<?xml version="1.0" encoding="UTF-8" standalone="no"?>
<!-- Created with Inkscape (http://www.inkscape.org/) -->

<svg
   xmlns:dc="http://purl.org/dc/elements/1.1/"
   xmlns:cc="http://creativecommons.org/ns#"
   xmlns:rdf="http://www.w3.org/1999/02/22-rdf-syntax-ns#"
   xmlns:svg="http://www.w3.org/2000/svg"
   xmlns="http://www.w3.org/2000/svg"
   xmlns:sodipodi="http://sodipodi.sourceforge.net/DTD/sodipodi-0.dtd"
   xmlns:inkscape="http://www.inkscape.org/namespaces/inkscape"
   width="210mm"
   height="297mm"
   viewBox="0 0 744.09448819 1052.3622047"
   id="svg3385"
   version="1.1"
   inkscape:version="0.91 r13725"
   sodipodi:docname="icon_si_fabrication_vehicle_adv.svg">
  <defs
     id="defs3387" />
  <sodipodi:namedview
     id="base"
     pagecolor="#ffffff"
     bordercolor="#666666"
     borderopacity="1.0"
     inkscape:pageopacity="0.0"
     inkscape:pageshadow="2"
     inkscape:zoom="31.678384"
     inkscape:cx="2.9925519"
     inkscape:cy="1054.8914"
     inkscape:document-units="px"
     inkscape:current-layer="layer1"
     showgrid="false"
     inkscape:window-width="1920"
     inkscape:window-height="1028"
     inkscape:window-x="-8"
     inkscape:window-y="-8"
     inkscape:window-maximized="1" />
  <metadata
     id="metadata3390">
    <rdf:RDF>
      <cc:Work
         rdf:about="">
        <dc:format>image/svg+xml</dc:format>
        <dc:type
           rdf:resource="http://purl.org/dc/dcmitype/StillImage" />
        <dc:title></dc:title>
      </cc:Work>
    </rdf:RDF>
  </metadata>
  <g
     inkscape:label="Ebene 1"
     inkscape:groupmode="layer"
     id="layer1">
    <g
       id="g3404">
      <path
         style="fill:#c8c8c8"
         d="m -17.310596,3.780821 0,-4.73974 5.359815,-5.26026 5.3598138,-5.26026 6.7803712,0 6.7803713,0 5.3598137,5.26026 5.359815,5.26026 0,4.73974 0,4.73974 -17.5,0 -17.5,0 z M -2.7036597,4.5526685 0.189404,1.834776 3.0824677,4.5526685 5.9755315,7.270561 l 5.2319365,0 5.231936,0 0,-4.0097962 0,-4.00979755 -4.628685,-4.74020245 -4.628685,-4.7402038 -6.88111125,0 -6.88111245,0 -4.7402023,4.628685 -4.740204,4.628685 0,4.121315 0,4.121315 5.231936,0 5.2319365,0 z m -0.8678735,-9.9939996 2.57494791,-0.049566 0.0495677,-2.3224109 2.37466082,-0.024453 0.031567,2.3044105 2.6587649,0.1018175 -0.063135,2.367545 -2.5379127,-0.019036 0.094702,2.52538129 -2.57347533,0.0264728 0,-2.39911209 -2.64125507,-0.1119365 z m 5.2609372,11.2118919 -1.5,-1.5 -1.5,1.5 -1.5,1.5 3,0 3,0 z"
         id="path3406"
         inkscape:connector-curvature="0"
         sodipodi:nodetypes="cccccccccccccccccccccccccccccccccccccccccccccccccccc" />
    </g>
    <path
       style="fill:#a0a0a0;stroke:none;stroke-width:1px;stroke-linecap:butt;stroke-linejoin:miter;stroke-opacity:1"
       d="M -6.5703125 -10.224609 L -11.310547 -5.5976562 L -16.048828 -0.97070312 L -16.048828 3.1464844 L -16.048828 7.2636719 L -10.824219 7.2636719 L -5.6015625 7.2636719 L -2.7128906 4.5488281 C -1.1240955 3.0556964 0.18248813 1.8339844 0.18945312 1.8339844 C 0.19641813 1.8339844 1.4999245 3.0548011 3.0859375 4.546875 L 5.96875 7.2597656 L 11.201172 7.2617188 L 16.433594 7.2636719 L 16.433594 3.2617188 L 16.433594 -0.74023438 L 11.804688 -5.4824219 L 7.1738281 -10.224609 L 0.30078125 -10.224609 L -6.5703125 -10.224609 z M 1.4296875 -7.8535156 L 1.453125 -6.7109375 C 1.465786 -6.0828919 1.4824344 -5.5624975 1.4902344 -5.5546875 C 1.4980388 -5.5468825 2.09103 -5.5191055 2.8066406 -5.4921875 L 4.1074219 -5.4433594 L 4.0996094 -4.6386719 C 4.0952914 -4.195941 4.0827166 -3.6579969 4.0722656 -3.4453125 L 4.0527344 -3.0585938 L 2.7929688 -3.0585938 L 1.5332031 -3.0585938 L 1.5351562 -2.8945312 C 1.5357144 -2.8033807 1.5563061 -2.2446047 1.5800781 -1.6542969 C 1.6038502 -1.063989 1.6154147 -0.57161525 1.6074219 -0.55859375 C 1.5994291 -0.54557225 1.0185425 -0.53320312 0.31640625 -0.53320312 L -0.95898438 -0.53320312 L -0.95898438 -1.7285156 L -0.95898438 -2.921875 L -1.8828125 -2.9589844 C -2.3906509 -2.9797504 -2.9876189 -3.0066681 -3.2089844 -3.0175781 L -3.6113281 -3.0371094 L -3.6113281 -3.4375 C -3.6113281 -3.6577931 -3.6012587 -4.2009184 -3.5898438 -4.6445312 L -3.5703125 -5.4511719 L -2.2851562 -5.4746094 L -1.0019531 -5.4980469 L -0.98046875 -6.6523438 C -0.96864525 -7.2871898 -0.95512887 -7.80944 -0.95117188 -7.8125 C -0.94721492 -7.815563 -0.40874338 -7.8262475 0.24414062 -7.8359375 L 1.4296875 -7.8535156 z M 0.19140625 4.2949219 L -1.2910156 5.7792969 L -2.7753906 7.2636719 L 0.18554688 7.2636719 C 1.813165 7.2636719 3.1445312 7.2602694 3.1445312 7.2558594 C 3.1445313 7.2514496 2.4797109 6.5830888 1.6679688 5.7714844 L 0.19140625 4.2949219 z "
       id="path3415" />
  </g>
</svg>
