<?xml version="1.0" encoding="UTF-8" standalone="no"?>
<!-- Created with Inkscape (http://www.inkscape.org/) -->

<svg
   xmlns:dc="http://purl.org/dc/elements/1.1/"
   xmlns:cc="http://creativecommons.org/ns#"
   xmlns:rdf="http://www.w3.org/1999/02/22-rdf-syntax-ns#"
   xmlns:svg="http://www.w3.org/2000/svg"
   xmlns="http://www.w3.org/2000/svg"
   xmlns:sodipodi="http://sodipodi.sourceforge.net/DTD/sodipodi-0.dtd"
   xmlns:inkscape="http://www.inkscape.org/namespaces/inkscape"
   width="210mm"
   height="297mm"
   viewBox="0 0 744.09448819 1052.3622047"
   id="svg3385"
   version="1.1"
   inkscape:version="0.91 r13725"
   sodipodi:docname="icon_si_bot_tactical_missile.svg">
  <defs
     id="defs3387" />
  <sodipodi:namedview
     id="base"
     pagecolor="#ffffff"
     bordercolor="#666666"
     borderopacity="1.0"
     inkscape:pageopacity="0.0"
     inkscape:pageshadow="2"
     inkscape:zoom="11.2"
     inkscape:cx="-3.1002757"
     inkscape:cy="1054.7266"
     inkscape:document-units="px"
     inkscape:current-layer="layer1"
     showgrid="false"
     inkscape:window-width="1920"
     inkscape:window-height="1028"
     inkscape:window-x="-8"
     inkscape:window-y="-8"
     inkscape:window-maximized="1" />
  <metadata
     id="metadata3390">
    <rdf:RDF>
      <cc:Work
         rdf:about="">
        <dc:format>image/svg+xml</dc:format>
        <dc:type
           rdf:resource="http://purl.org/dc/dcmitype/StillImage" />
        <dc:title></dc:title>
      </cc:Work>
    </rdf:RDF>
  </metadata>
  <g
     inkscape:label="Ebene 1"
     inkscape:groupmode="layer"
     id="layer1">
    <g
       id="g3404">
      <path
         style="fill:#c8c8c8"
         d="M -8.5009175,4.1144802 -11.25,-1.5439597 l 0,-4.34156 0,-4.3415613 2.1191012,0 2.1191013,0 3.5058987,-3.358864 L 0,-16.944808 l 3.5058988,3.358863 3.5058987,3.358864 2.1191013,0 2.1191012,0 0,4.3415613 0,4.34156 -2.7490825,5.65844 -2.7490812,5.6584387 -5.7518363,0 -5.7518363,0 -2.7490812,-5.6584388 z M 1.5,7.022919 l -1.5,-1.5 -1.5,1.5 -1.5,1.5 3,0 3,0 -1.5,-1.5 z M -2.2859263,5.204184 0,3.1354502 2.5076637,5.404854 C 5.3501362,7.9772577 5.2236963,8.0411302 7.96603,2.647494 L 10,-1.352931 l 0,-3.812075 0,-3.812075 -1.4941012,0 c -0.8217563,0 -3.0717563,-1.511489 -5,-3.358864 L 0,-15.694808 l -3.5058988,3.358863 c -1.9282437,1.847375 -4.1782437,3.358864 -5,3.358864 l -1.4941012,0 0,3.7075913 0,3.7075912 2.106515,4.4174088 c 2.4195913,5.073935 2.54031,5.1244962 5.6075587,2.3486737 z M -6.25,-1.477081 l 0,-1.25 4.375,0 4.375,0 0,1.25 0,1.25 -4.375,0 -4.375,0 0,-1.25 z m 10,0 c 0,-0.6875 0.5625,-1.25 1.25,-1.25 0.6875,0 1.25,0.5625 1.25,1.25 0,0.6875 -0.5625,1.25 -1.25,1.25 -0.6875,0 -1.25,-0.5625 -1.25,-1.25 z m -6.2727275,-5.4772725 c 0.7,-0.7 1.2727275,-2.2852275 1.2727275,-3.5227275 l 0,-2.25 1.25,0 1.25,0 0,2.25 c 0,1.2375 0.5727275,2.8227275 1.2727275,3.5227275 l 1.2727275,1.2727275 -3.795455,0 -3.795455,0 1.2727275,-1.2727275 z"
         id="path3406"
         inkscape:connector-curvature="0" />
    </g>
    <path
       style="fill:#a0a0a0;stroke:none;stroke-width:1px;stroke-linecap:butt;stroke-linejoin:miter;stroke-opacity:1"
       d="M 0.0078125 -15.666016 L -2.0820312 -13.666016 C -4.9012412 -10.969485 -6.1411073 -9.9761901 -7.5332031 -9.2988281 C -8.2095268 -8.9697441 -8.2829298 -8.953125 -9.1171875 -8.953125 L -9.9921875 -8.953125 L -9.9921875 -5.2871094 L -9.9921875 -1.6191406 L -8.7773438 0.94140625 C -6.5503759 5.6351474 -6.012101 6.5880268 -5.421875 6.8789062 C -5.0336202 7.0702482 -4.8565319 7.0656339 -4.40625 6.8476562 C -3.9534462 6.6284581 -3.162799 5.9745295 -1.3613281 4.3320312 L -0.00390625 3.0957031 L 1.8789062 4.796875 C 4.0065438 6.7200187 4.430117 7.0292969 4.9492188 7.0292969 C 5.2435446 7.0292969 5.3569424 6.9695879 5.6308594 6.6816406 C 6.0798049 6.2097022 6.5067103 5.448999 8.3886719 1.7539062 L 10.007812 -1.4238281 L 10.007812 -5.1894531 L 10.007812 -8.953125 L 9.1621094 -8.953125 C 8.1467505 -8.953125 7.7348754 -9.0941742 6.6191406 -9.8183594 C 5.2223075 -10.724996 4.6299236 -11.231936 1.8613281 -13.888672 L 0.0078125 -15.666016 z M -1.2167969 -12.792969 L 0.009765625 -12.792969 L 1.2363281 -12.792969 L 1.2792969 -11.208984 C 1.3456416 -8.7611117 1.6509397 -7.9196948 2.9550781 -6.5898438 C 3.3960567 -6.1401705 3.7578125 -5.7447165 3.7578125 -5.7109375 C 3.7578125 -5.6771595 2.041558 -5.6503906 -0.0546875 -5.6503906 L -3.8652344 -5.6503906 L -3.015625 -6.5214844 C -1.6557835 -7.9134039 -1.3493332 -8.7373725 -1.2695312 -11.208984 L -1.2167969 -12.792969 z M -6.2421875 -2.7929688 L -1.8671875 -2.7929688 L 2.5078125 -2.7929688 L 2.5078125 -1.4980469 L 2.5078125 -0.203125 L -1.8671875 -0.203125 L -6.2421875 -0.203125 L -6.2421875 -1.4980469 L -6.2421875 -2.7929688 z M 5.0078125 -2.7285156 C 6.2927599 -2.7285156 6.7220808 -1.0580933 5.6113281 -0.38085938 C 4.8228209 0.099899555 3.7570982 -0.51131649 3.7578125 -1.4433594 C 3.7584107 -2.182396 4.2894893 -2.7285156 5.0078125 -2.7285156 z M 0.0078125 5.5566406 L -1.4433594 7.0058594 L -2.8945312 8.4570312 L 0.0078125 8.4570312 L 2.9082031 8.4570312 L 1.4570312 7.0058594 L 0.0078125 5.5566406 z "
       id="path3410" />
  </g>
</svg>
