<?xml version="1.0" encoding="UTF-8" standalone="no"?>
<!-- Created with Inkscape (http://www.inkscape.org/) -->

<svg
   xmlns:dc="http://purl.org/dc/elements/1.1/"
   xmlns:cc="http://creativecommons.org/ns#"
   xmlns:rdf="http://www.w3.org/1999/02/22-rdf-syntax-ns#"
   xmlns:svg="http://www.w3.org/2000/svg"
   xmlns="http://www.w3.org/2000/svg"
   xmlns:sodipodi="http://sodipodi.sourceforge.net/DTD/sodipodi-0.dtd"
   xmlns:inkscape="http://www.inkscape.org/namespaces/inkscape"
   width="210mm"
   height="297mm"
   viewBox="0 0 744.09448819 1052.3622047"
   id="svg4412"
   version="1.1"
   inkscape:version="0.91 r13725"
   sodipodi:docname="icon_si_orbital_factory.svg">
  <defs
     id="defs4414" />
  <sodipodi:namedview
     id="base"
     pagecolor="#ffffff"
     bordercolor="#666666"
     borderopacity="1.0"
     inkscape:pageopacity="0.0"
     inkscape:pageshadow="2"
     inkscape:zoom="15.839192"
     inkscape:cx="2.0885779"
     inkscape:cy="1050.2677"
     inkscape:document-units="px"
     inkscape:current-layer="layer1"
     showgrid="false"
     inkscape:window-width="1920"
     inkscape:window-height="1028"
     inkscape:window-x="-8"
     inkscape:window-y="-8"
     inkscape:window-maximized="1" />
  <metadata
     id="metadata4417">
    <rdf:RDF>
      <cc:Work
         rdf:about="">
        <dc:format>image/svg+xml</dc:format>
        <dc:type
           rdf:resource="http://purl.org/dc/dcmitype/StillImage" />
        <dc:title></dc:title>
      </cc:Work>
    </rdf:RDF>
  </metadata>
  <g
     inkscape:label="Ebene 1"
     inkscape:groupmode="layer"
     id="layer1">
    <path
       style="fill:#000000"
       d="m -11.1055,20.988667 -4.248355,-2.155272 -2.653183,-3.146311 c -1.459251,-1.730471 -3.304524,-4.700939 -4.100607,-6.601041 l -1.447423,-3.454729 0.360325,-7.135471 0.360325,-7.135471 2.747175,-4.151261 2.747174,-4.151262 4.168433,-2.758538 4.168433,-2.758538 8.646058,0 8.646058,0 4.168433,2.758538 4.168433,2.758538 2.758538,4.168433 2.758538,4.168433 0,8.646058 0,8.646058 -2.758538,4.168433 -2.758538,4.168433 -4.168341,2.758538 -4.168341,2.758538 -7.573121,0.301583 -7.573121,0.301582 -4.248355,-2.155271 z m 20.849818,-2.732239 5.329847,-2.784345 2.784345,-5.329847 2.784345,-5.329846 0,-4.771617 0,-4.771617 -2.784345,-5.329846 -2.784345,-5.329847 -5.329847,-2.784345 -5.329846,-2.784345 -4.771617,0 -4.771617,0 -5.329846,2.784345 -5.329847,2.784345 -2.784345,5.329847 -2.784345,5.329846 0,4.771617 0,4.771617 2.784345,5.329846 2.784345,5.329847 5.329847,2.784345 5.329846,2.784345 4.771617,0 4.771617,0 5.329846,-2.784345 z M -9.148937,8.752921 -13.357145,4.46507 l 0,-4.424297 0,-4.424297 4.208208,-4.287851 4.208208,-4.287852 4.583584,0 4.583584,0 4.208208,4.287852 4.208208,4.287851 0,4.424297 0,4.424297 -4.208208,4.287851 -4.208208,4.287852 -4.583584,0 -4.583584,0 -4.208208,-4.287852 z m 16.999629,-0.415096 3.792163,-3.702948 0,-4.504889 0,-4.50489 -3.702948,-3.792162 -3.702948,-3.792163 -4.504889,0 -4.50489,0 -3.792162,3.702948 -3.792163,3.702948 0,4.504889 0,4.50489 3.702948,3.792162 3.702948,3.792163 4.504889,0 4.50489,0 3.792162,-3.702948 z M -2.785716,2.469344 C -3.650002,1.605059 -4.357145,0.512202 -4.357145,0.040773 c 0,-1.110893 2.889107,-4 4,-4 1.110893,0 4,2.889107 4,4 0,0.471429 -0.707143,1.564286 -1.571429,2.428571 -0.864285,0.864286 -1.957142,1.571429 -2.428571,1.571429 -0.471429,0 -1.564286,-0.707143 -2.428571,-1.571429 z"
       id="path4431"
       inkscape:connector-curvature="0" />
    <path
       style="fill:#a0a0a0;stroke:none;stroke-width:1px;stroke-linecap:butt;stroke-linejoin:miter;stroke-opacity:1"
       d="M -5.1015625 -20.9375 L -10.433594 -18.152344 L -15.763672 -15.367188 L -18.556641 -10.023438 L -21.347656 -4.6796875 L -21.34375 0.0546875 L -21.339844 4.7910156 L -18.550781 10.121094 L -15.759766 15.451172 L -10.488281 18.212891 L -5.2167969 20.974609 L -0.38085938 20.978516 L 4.4550781 20.984375 L 9.7519531 18.216797 L 15.050781 15.449219 L 17.839844 10.119141 L 20.630859 4.7910156 L 20.632812 0.05859375 L 20.636719 -4.671875 L 17.845703 -10.019531 L 15.052734 -15.365234 L 9.7207031 -18.152344 L 4.390625 -20.9375 L -0.35546875 -20.9375 L -5.1015625 -20.9375 z M -4.9648438 -12.982422 L -0.35546875 -12.982422 L 4.2539062 -12.982422 L 8.46875 -8.6855469 L 12.681641 -4.390625 L 12.681641 0.041015625 L 12.681641 4.4746094 L 8.4492188 8.7832031 L 4.2148438 13.091797 L -0.37304688 13.085938 L -4.9628906 13.082031 L -9.1777344 8.7773438 L -13.392578 4.4746094 L -13.392578 0.037109375 L -13.392578 -4.4003906 L -9.1777344 -8.6914062 L -4.9648438 -12.982422 z M -4.7734375 -11.908203 L -8.546875 -8.2304688 L -12.318359 -4.5527344 L -12.314453 -0.0390625 L -12.3125 4.4746094 L -8.6171875 8.2460938 L -8.6171875 8.2480469 L -4.9199219 12.019531 L -0.43945312 12.019531 L 4.0410156 12.019531 L 7.8261719 8.3183594 L 11.609375 4.6171875 L 11.607422 0.12695312 L 11.607422 -4.3632812 L 7.9316406 -8.1347656 L 4.2539062 -11.90625 L -0.25976562 -11.90625 L -4.7734375 -11.908203 z M -0.578125 -3.9414062 C -0.29055461 -3.9978737 -0.034054855 -3.9369926 0.28320312 -3.7753906 C 1.713223 -3.0469803 3.6544863 -0.86434919 3.6542969 0.015625 C 3.6540866 0.97863183 1.7094714 3.164099 0.21289062 3.8828125 C -0.24800726 4.1041532 -0.44617471 4.1089013 -0.87304688 3.9101562 C -2.3740345 3.2113202 -4.3632812 0.99582739 -4.3632812 0.0234375 C -4.3632813 -0.71024261 -2.9839065 -2.4310261 -1.6191406 -3.4003906 C -1.1834707 -3.7098382 -0.86569539 -3.8849388 -0.578125 -3.9414062 z "
       id="path4433" />
  </g>
</svg>
