<?xml version="1.0" encoding="UTF-8" standalone="no"?>
<!-- Created with Inkscape (http://www.inkscape.org/) -->

<svg
   xmlns:dc="http://purl.org/dc/elements/1.1/"
   xmlns:cc="http://creativecommons.org/ns#"
   xmlns:rdf="http://www.w3.org/1999/02/22-rdf-syntax-ns#"
   xmlns:svg="http://www.w3.org/2000/svg"
   xmlns="http://www.w3.org/2000/svg"
   xmlns:sodipodi="http://sodipodi.sourceforge.net/DTD/sodipodi-0.dtd"
   xmlns:inkscape="http://www.inkscape.org/namespaces/inkscape"
   width="210mm"
   height="297mm"
   viewBox="0 0 744.09448819 1052.3622047"
   id="svg4370"
   version="1.1"
   inkscape:version="0.91 r13725"
   sodipodi:docname="icon_si_fabrication_bot_adv.svg">
  <defs
     id="defs4372" />
  <sodipodi:namedview
     id="base"
     pagecolor="#ffffff"
     bordercolor="#666666"
     borderopacity="1.0"
     inkscape:pageopacity="0.0"
     inkscape:pageshadow="2"
     inkscape:zoom="31.678384"
     inkscape:cx="2.5389011"
     inkscape:cy="1054.3119"
     inkscape:document-units="px"
     inkscape:current-layer="layer1"
     showgrid="false"
     showguides="false"
     inkscape:window-width="1920"
     inkscape:window-height="1028"
     inkscape:window-x="-8"
     inkscape:window-y="-8"
     inkscape:window-maximized="1" />
  <metadata
     id="metadata4375">
    <rdf:RDF>
      <cc:Work
         rdf:about="">
        <dc:format>image/svg+xml</dc:format>
        <dc:type
           rdf:resource="http://purl.org/dc/dcmitype/StillImage" />
        <dc:title></dc:title>
      </cc:Work>
    </rdf:RDF>
  </metadata>
  <g
     inkscape:label="Ebene 1"
     inkscape:groupmode="layer"
     id="layer1">
    <g
       id="g4395">
      <path
         style="fill:#c8c8c8"
         d="M -8.5009175,4.9180512 -11.25,-0.74038875 l 0,-4.34156005 0,-4.3415612 11.25,0 11.25,0 0,4.3415612 0,4.34156005 L 8.5009175,4.9180513 5.7518363,10.57649 0,10.57649 l -5.7518363,0 z M 1.5,7.82649 l -1.5,-1.5 -1.5,1.5 -1.5,1.5 3,0 3,0 z M -2.2859263,6.007755 0,3.9390212 2.5076637,6.208425 C 5.3501362,8.7808287 5.2236963,8.8447012 7.96603,3.451065 L 10,-0.54936 l 0,-3.812075 0,-3.812075 -10,0 -10,0 0,3.7075913 0,3.7075912 2.106515,4.4174087 c 2.4195913,5.073935 2.54031,5.1244963 5.6075587,2.3486738 z m 3.4871813,-4.1306617 -2.4156365,0.026473 0,-2.55694859 -2.514986,0.10903431 0.031567,-2.62008322 2.5118133,0.045135 0.049565,-2.44868 2.3359778,-0.1262691 0.07025,2.5640631 2.3991123,-0.063135 -0.024453,2.50092972 -2.4747781,0.26506937 z"
         id="path4397"
         inkscape:connector-curvature="0"
         sodipodi:nodetypes="ccccccccccccccccccccscsscccccccssccccccccccccc" />
    </g>
    <path
       style="stroke:#000000;stroke-width:0.03156727;stroke-opacity:1"
       d="M -10 -8.1621094 L -10 -4.4707031 L -10 -0.77929688 L -8.6621094 2.0253906 C -7.9265005 3.5671047 -7.2078241 5.0611834 -7.0644531 5.3476562 C -6.3381579 6.798884 -5.8684345 7.4757932 -5.4160156 7.71875 C -5.2400347 7.8132552 -5.190595 7.8235409 -4.9804688 7.8222656 C -4.7959619 7.8211444 -4.6957085 7.8028567 -4.5292969 7.734375 C -4.1656732 7.584736 -3.7236595 7.2643749 -2.9726562 6.6074219 C -2.6077174 6.2881856 -0.31442194 4.2203711 -0.11523438 4.03125 L -0.001953125 3.9238281 L 1.5253906 5.3066406 C 3.3378195 6.9482436 3.6358167 7.209872 3.96875 7.4609375 C 4.2401856 7.6656273 4.5302523 7.8227075 4.7285156 7.8710938 C 5.1729439 7.9795567 5.5706439 7.7032797 6.0839844 6.9277344 C 6.4993705 6.3001768 6.7822741 5.760732 9.2207031 0.96289062 L 9.9824219 -0.53320312 L 9.9824219 -4.3476562 L 9.9824219 -8.1621094 L -0.0078125 -8.1621094 L -10 -8.1621094 z M 1.1933594 -5.6933594 C 1.2080934 -5.6786251 1.2688051 -3.8743399 1.2695312 -3.4316406 L 1.2695312 -3.1347656 L 1.9726562 -3.15625 C 2.3589607 -3.167156 2.8984235 -3.1828974 3.171875 -3.1933594 L 3.6699219 -3.2128906 L 3.6699219 -1.9648438 C 3.6699219 -1.2078798 3.6569019 -0.70853232 3.6386719 -0.69726562 C 3.6106708 -0.67995983 1.3591572 -0.42773438 1.2324219 -0.42773438 C 1.1774789 -0.42773438 1.1748945 -0.37758434 1.1953125 0.71875 L 1.2167969 1.8652344 L 0.90429688 1.8867188 C 0.73227105 1.8981117 0.18275117 1.9081084 -0.31640625 1.9082031 L -1.2246094 1.9082031 L -1.2246094 0.63085938 L -1.2246094 -0.64648438 L -1.53125 -0.62890625 C -2.3988968 -0.58069735 -3.7036671 -0.53413745 -3.7207031 -0.55078125 C -3.7313731 -0.5612035 -3.7332294 -1.1564768 -3.7246094 -1.8730469 L -3.7089844 -3.1757812 L -2.4550781 -3.1542969 L -1.203125 -3.1328125 L -1.1816406 -3.8535156 C -1.1701066 -4.2497136 -1.1601562 -4.7968851 -1.1601562 -5.0703125 L -1.1601562 -5.5683594 L -0.90039062 -5.5878906 C -0.33729939 -5.6290119 1.1812694 -5.7054494 1.1933594 -5.6933594 z M 0.0078125 6.34375 L -1.484375 7.8339844 L -2.9765625 9.3261719 L 0.0078125 9.3261719 L 2.9902344 9.3261719 L 1.4980469 7.8339844 L 0.0078125 6.34375 z "
       id="path4401" />
  </g>
</svg>
