<?xml version="1.0" encoding="UTF-8" standalone="no"?>
<!-- Created with Inkscape (http://www.inkscape.org/) -->

<svg
   xmlns:dc="http://purl.org/dc/elements/1.1/"
   xmlns:cc="http://creativecommons.org/ns#"
   xmlns:rdf="http://www.w3.org/1999/02/22-rdf-syntax-ns#"
   xmlns:svg="http://www.w3.org/2000/svg"
   xmlns="http://www.w3.org/2000/svg"
   xmlns:sodipodi="http://sodipodi.sourceforge.net/DTD/sodipodi-0.dtd"
   xmlns:inkscape="http://www.inkscape.org/namespaces/inkscape"
   width="210mm"
   height="297mm"
   viewBox="0 0 744.09448819 1052.3622047"
   id="svg3428"
   version="1.1"
   inkscape:version="0.91 r13725"
   sodipodi:docname="icon_si_metal_storage.svg">
  <defs
     id="defs3430" />
  <sodipodi:namedview
     id="base"
     pagecolor="#ffffff"
     bordercolor="#666666"
     borderopacity="1.0"
     inkscape:pageopacity="0.0"
     inkscape:pageshadow="2"
     inkscape:zoom="15.839192"
     inkscape:cx="-3.4474826"
     inkscape:cy="1048.5155"
     inkscape:document-units="px"
     inkscape:current-layer="layer1"
     showgrid="false"
     inkscape:window-width="1920"
     inkscape:window-height="1028"
     inkscape:window-x="-8"
     inkscape:window-y="-8"
     inkscape:window-maximized="1" />
  <metadata
     id="metadata3433">
    <rdf:RDF>
      <cc:Work
         rdf:about="">
        <dc:format>image/svg+xml</dc:format>
        <dc:type
           rdf:resource="http://purl.org/dc/dcmitype/StillImage" />
        <dc:title></dc:title>
      </cc:Work>
    </rdf:RDF>
  </metadata>
  <g
     inkscape:label="Ebene 1"
     inkscape:groupmode="layer"
     id="layer1">
    <path
       style="fill:#000000"
       d="m -11.868654,0.16206 0,-12.5 12.5,0 12.5,0 0,12.5 0,12.5 -12.5,0 -12.5,0 0,-12.5 z m 23.75,0 0,-11.25 -11.25,0 -11.25,0 0,11.25 0,11.25 11.25,0 11.25,0 0,-11.25 z m -15.625,2.5 -2.2624688,-2.5 2.2624688,-2.5 2.2624688,-2.5 2.1125312,0 2.1125312,0 2.2624688,2.5 2.2624688,2.5 -2.2624688,2.5 -2.2624688,2.5 -2.1125312,0 -2.1125312,0 -2.2624688,-2.5 z"
       id="path3447"
       inkscape:connector-curvature="0" />
    <path
       style="fill:#a0a0a0;stroke:none;stroke-width:1px;stroke-linecap:butt;stroke-linejoin:miter;stroke-opacity:1"
       d="m -10.594312,0.16592122 0,-11.20638022 11.23794717,0 11.23794683,0 0,11.20638022 0,11.20637978 -11.23794683,0 -11.23794717,0 0,-11.20637978 z M 5.0052807,2.7124779 C 6.2350328,1.3525272 7.241194,0.20456839 7.241194,0.1614595 c 0,-0.0431089 -1.0043454,-1.1890594 -2.231879,-2.5465567 l -2.231879,-2.4681771 -2.15597115,0.00419 -2.15597115,0.00419 -2.0203051,2.238046 c -1.1111678,1.2309251 -2.1249782,2.35974725 -2.2529121,2.50849347 L -6.0403305,0.17209262 -4.92971,1.40013 c 0.6108414,0.6754215 1.6328196,1.8033515 2.2710637,2.5065124 l 1.1604437,1.2784743 2.13378496,0 2.13378434,0 2.235914,-2.4726388 z"
       id="path3451"
       inkscape:connector-curvature="0" />
  </g>
</svg>
