<?xml version="1.0" encoding="UTF-8" standalone="no"?>
<!-- Created with Inkscape (http://www.inkscape.org/) -->

<svg
   xmlns:dc="http://purl.org/dc/elements/1.1/"
   xmlns:cc="http://creativecommons.org/ns#"
   xmlns:rdf="http://www.w3.org/1999/02/22-rdf-syntax-ns#"
   xmlns:svg="http://www.w3.org/2000/svg"
   xmlns="http://www.w3.org/2000/svg"
   xmlns:sodipodi="http://sodipodi.sourceforge.net/DTD/sodipodi-0.dtd"
   xmlns:inkscape="http://www.inkscape.org/namespaces/inkscape"
   width="210mm"
   height="297mm"
   viewBox="0 0 744.09448819 1052.3622047"
   id="svg2"
   version="1.1"
   inkscape:version="0.91 r13725"
   sodipodi:docname="icon_si_tank_heavy_armor.svg">
  <defs
     id="defs4" />
  <sodipodi:namedview
     id="base"
     pagecolor="#ffffff"
     bordercolor="#666666"
     borderopacity="1.0"
     inkscape:pageopacity="0.0"
     inkscape:pageshadow="2"
     inkscape:zoom="22.4"
     inkscape:cx="-1.143321"
     inkscape:cy="1053.2376"
     inkscape:document-units="px"
     inkscape:current-layer="layer1"
     showgrid="false"
     inkscape:window-width="1920"
     inkscape:window-height="1028"
     inkscape:window-x="-8"
     inkscape:window-y="-8"
     inkscape:window-maximized="1" />
  <metadata
     id="metadata7">
    <rdf:RDF>
      <cc:Work
         rdf:about="">
        <dc:format>image/svg+xml</dc:format>
        <dc:type
           rdf:resource="http://purl.org/dc/dcmitype/StillImage" />
        <dc:title></dc:title>
      </cc:Work>
    </rdf:RDF>
  </metadata>
  <g
     inkscape:label="Ebene 1"
     inkscape:groupmode="layer"
     id="layer1">
    <path
       style="fill:#000000"
       d="m -17.554371,3.3987467 0,-6.0047912 4.122009,-3.9952088 4.1220085,-3.9952087 9.3827825,0 9.3827825,0 3.9952085,4.1220087 3.995209,4.1220088 0,5.8779912 0,5.8779913 -17.5,0 -17.5,0 z M -2.9474347,5.4356455 -0.054371,2.717753 2.8386927,5.4356455 5.7317565,8.153538 l 5.2319365,0 5.231936,0 0,-5.3911363 0,-5.3911362 -3.505899,-3.3588638 -3.5058985,-3.3588637 -9.2382025,0 -9.2382025,0 -3.5058985,3.3588637 -3.505899,3.3588638 0,5.3911362 0,5.3911363 5.231936,0 5.2319365,0 z M 6.195629,3.153538 l -1.875,-1.875 1.875,-1.875 1.875,-1.875 1.875,1.875 1.875,1.875 -1.875,1.875 -1.875,1.875 z m -1.25,0.625 c 0,-0.34375 0.5491071,-2.0535714 0.8928571,-2.0535714 0.34375,0 1.8303572,1.5758928 1.8303572,1.9196428 0,0.34375 -1.7544643,0.7589286 -2.0982143,0.7589286 -0.34375,0 -0.625,-0.28125 -0.625,-0.625 z M 9.1420576,3.5553237 c 0,-0.34375 0.6830357,-1.4732143 1.0267854,-1.4732143 0.34375,0 1.026786,1.3526786 1.026786,1.6964286 0,0.34375 -0.28125,0.625 -0.625,0.625 -0.34375,0 -1.4285714,-0.5044643 -1.4285714,-0.8482143 z M 4.945629,-1.221462 c 0.002,-0.3437442 0.28125,-0.625 0.625,-0.625 0.34375,0 2.0982143,0.28125 2.0982143,0.625 0,0.34375 -1.272584,1.70675592 -1.6071429,1.78571429 C 5.6117615,0.6704412 4.943618,-0.87570101 4.945629,-1.221462 Z m 3.6607143,0.53571429 c 0,-0.34374999 1.6205357,-1.16071429 1.9642857,-1.16071429 0.34375,0 0.625,0.28125 0.625,0.625 0,0.34375 -0.325893,1.74107143 -0.669643,1.74107143 -0.34375,0 -1.9196427,-0.86160714 -1.9196427,-1.20535714 z M -5.054371,-5.596462 l 0,-1.25 5,0 5,0 0,1.25 0,1.25 -5,0 -5,0 z m 6.5,12.25 -1.5,-1.5 -1.5,1.5 -1.5,1.5 3,0 3,0 z"
       id="path3347"
       inkscape:connector-curvature="0"
       sodipodi:nodetypes="cccccccccccccccccccccccccccccccccccccccccsssssssssssssssssssscccccccccccccccc" />
    <path
       style="fill:#a0a0a0;stroke:none;stroke-width:1px;stroke-linecap:butt;stroke-linejoin:miter;stroke-opacity:1"
       d="M -9.3027344 -9.3046875 L -12.792969 -5.9667969 L -16.28125 -2.6289062 L -16.283203 2.7617188 L -16.287109 8.1523438 L -11.074219 8.1503906 L -5.8613281 8.1484375 L -2.96875 5.4257812 C -1.3773263 3.9288875 -0.061757145 2.7054017 -0.044921875 2.7070312 C -0.028086165 2.708662 1.281529 3.933096 2.8652344 5.4277344 L 5.7441406 8.1464844 L 10.957031 8.1484375 L 16.169922 8.1523438 L 16.167969 2.7617188 L 16.167969 -2.6289062 L 12.679688 -5.9667969 L 9.1933594 -9.3046875 L -0.0546875 -9.3046875 L -9.3027344 -9.3046875 z M -5.0800781 -6.8476562 L -0.05859375 -6.8476562 L 4.9628906 -6.8476562 L 4.9628906 -5.5761719 L 4.9628906 -4.3046875 L -0.029296875 -4.3046875 C -2.7752049 -4.3046875 -5.0344122 -4.3176154 -5.0507812 -4.3339844 C -5.0671503 -4.3503532 -5.0800781 -4.922061 -5.0800781 -5.6054688 L -5.0800781 -6.8476562 z M 8.0683594 -2.4726562 C 8.0928483 -2.4726562 8.3715313 -2.2151089 8.6875 -1.8984375 L 9.2617188 -1.3222656 L 9.7675781 -1.5703125 C 10.55535 -1.9549888 10.903901 -1.9395384 11.130859 -1.5117188 C 11.227969 -1.3286697 11.231021 -1.3016728 11.181641 -0.96289062 C 11.153039 -0.76665626 11.064938 -0.41088749 10.986328 -0.17382812 L 10.84375 0.25585938 L 11.351562 0.76757812 L 11.859375 1.2773438 L 11.248047 1.890625 C 10.665394 2.4760281 10.642174 2.5085915 10.708984 2.59375 C 10.74751 2.6428571 10.869911 2.874163 10.982422 3.1074219 C 11.296521 3.758621 11.264534 4.1242777 10.875 4.3378906 C 10.600096 4.4886424 9.9806929 4.3262978 9.4589844 3.9667969 L 9.2890625 3.8496094 L 8.6992188 4.4375 C 8.3750085 4.7610433 8.0891161 5.0273438 8.0644531 5.0273438 C 8.0397897 5.0273438 7.8101085 4.8137634 7.5527344 4.5546875 C 7.2004687 4.2000912 7.0613536 4.0900178 6.9941406 4.1054688 C 6.9450335 4.1167575 6.6680768 4.1877599 6.3769531 4.2636719 C 6.0765629 4.3420002 5.7343639 4.4023438 5.5859375 4.4023438 C 5.3580429 4.4023438 5.3050496 4.3842683 5.1699219 4.265625 C 4.9792864 4.0982442 4.9004413 3.8827277 4.9414062 3.6308594 C 4.9766647 3.4140763 5.2553735 2.5375661 5.3203125 2.4375 C 5.3543156 2.3851031 5.2448054 2.2521477 4.8183594 1.8242188 L 4.2734375 1.2753906 L 4.859375 0.68554688 L 5.4433594 0.09375 L 5.2265625 -0.35351562 C 4.8618256 -1.1046129 4.8443099 -1.4065183 5.1464844 -1.6953125 C 5.279884 -1.8228022 5.2912147 -1.8271125 5.7363281 -1.8203125 C 6.046642 -1.815571 6.3399902 -1.7777674 6.6601562 -1.7011719 L 7.1289062 -1.5878906 L 7.5761719 -2.03125 C 7.8221273 -2.2747599 8.0438714 -2.4726562 8.0683594 -2.4726562 z M -0.037109375 5.1835938 L -1.5195312 6.6679688 L -3.0039062 8.1523438 L -0.037109375 8.1523438 L 2.9316406 8.1523438 L 1.4472656 6.6679688 L -0.037109375 5.1835938 z "
       id="path3349" />
  </g>
</svg>
