<?xml version="1.0" encoding="UTF-8" standalone="no"?>
<!-- Created with Inkscape (http://www.inkscape.org/) -->

<svg
   xmlns:dc="http://purl.org/dc/elements/1.1/"
   xmlns:cc="http://creativecommons.org/ns#"
   xmlns:rdf="http://www.w3.org/1999/02/22-rdf-syntax-ns#"
   xmlns:svg="http://www.w3.org/2000/svg"
   xmlns="http://www.w3.org/2000/svg"
   xmlns:sodipodi="http://sodipodi.sourceforge.net/DTD/sodipodi-0.dtd"
   xmlns:inkscape="http://www.inkscape.org/namespaces/inkscape"
   width="210mm"
   height="297mm"
   viewBox="0 0 744.09448819 1052.3622047"
   id="svg3402"
   version="1.1"
   inkscape:version="0.91 r13725"
   sodipodi:docname="icon_si_metal_extractor_adv.svg">
  <defs
     id="defs3404" />
  <sodipodi:namedview
     id="base"
     pagecolor="#ffffff"
     bordercolor="#666666"
     borderopacity="1.0"
     inkscape:pageopacity="0.0"
     inkscape:pageshadow="2"
     inkscape:zoom="15.839192"
     inkscape:cx="9.3506163"
     inkscape:cy="1049.8231"
     inkscape:document-units="px"
     inkscape:current-layer="layer1"
     showgrid="false"
     inkscape:window-width="1920"
     inkscape:window-height="1028"
     inkscape:window-x="-8"
     inkscape:window-y="-8"
     inkscape:window-maximized="1" />
  <metadata
     id="metadata3407">
    <rdf:RDF>
      <cc:Work
         rdf:about="">
        <dc:format>image/svg+xml</dc:format>
        <dc:type
           rdf:resource="http://purl.org/dc/dcmitype/StillImage" />
        <dc:title></dc:title>
      </cc:Work>
    </rdf:RDF>
  </metadata>
  <g
     inkscape:label="Ebene 1"
     inkscape:groupmode="layer"
     id="layer1">
    <path
       style="fill:#000000"
       d="m -13.301626,12.724682 -6.5198,-6.6018078 0,-6.87839245 0,-6.87839375 6.601806,-6.5198 6.6018078,-6.5198 6.87839245,0 6.87839375,0 6.5198,6.601806 6.5198,6.6018078 0,6.87839245 0,6.87839375 -6.601806,6.5198 -6.6018078,6.5198 -6.87839245,0 -6.87839375,0 -6.5198,-6.601806 z m 10.5871363,2.633913 2.8930637,-2.717892 3.1497437,2.959031 3.1497438,2.95903 6.2252565,-6.131649 6.225256,-6.131647 0,-6.87905375 0,-6.87905375 -5.89051,-5.9804365 -5.89051,-5.980436 -6.87905375,0 -6.87905375,0 -5.9804365,5.89051 -5.980436,5.89051 0,6.87905375 0,6.87905375 5.89051,5.9804365 c 3.2397812,3.28924 6.1566525,5.980436 6.4819363,5.980436 0.3252837,0 1.8933049,-1.223051 3.48449,-2.717893 z M -4.821426,2.451488 l -2.935785,-3.125 2.935785,-3.125 2.935785,-3.125 2.064215,0 2.064215,0 2.935785,3.125 2.935785,3.125 -2.935785,3.125 -2.935785,3.125 -2.064215,0 -2.064215,0 -2.935785,-3.125 z m 9.375,-0.625 2.2624688,-2.5 -2.2624688,-2.5 -2.2624688,-2.5 -2.1125312,0 -2.1125312,0 -2.2624688,2.5 -2.2624688,2.5 2.2624688,2.5 2.2624688,2.5 2.1125312,0 2.1125312,0 2.2624688,-2.5 z m -2.875,14.75 -1.5,-1.5 -1.5,1.5 -1.5,1.5 3,0 3,0 -1.5,-1.5 z"
       id="path3421"
       inkscape:connector-curvature="0" />
    <path
       style="fill:#a0a0a0;stroke:none;stroke-width:1px;stroke-linecap:butt;stroke-linejoin:miter;stroke-opacity:1"
       d="M -6.5722656 -19.416016 L -12.552734 -13.53125 L -18.533203 -7.6445312 L -18.535156 -0.75976562 L -18.535156 6.125 L -13.847656 10.833984 C -11.2694 13.42419 -8.7912557 15.879399 -8.3398438 16.289062 C -7.0951451 17.418644 -6.3475871 18.019531 -6.1875 18.019531 C -5.8219971 18.019531 -4.2724881 16.769267 -2.0214844 14.658203 C -1.1971172 13.885084 -0.36297428 13.107698 -0.16796875 12.929688 L 0.18554688 12.605469 L 3.3398438 15.566406 L 6.4941406 18.527344 L 8.515625 16.517578 C 9.6277171 15.412177 12.420238 12.652719 14.720703 10.384766 L 18.902344 6.2597656 L 18.900391 -0.59765625 L 18.898438 -7.4550781 L 13.013672 -13.433594 L 7.1289062 -19.412109 L 0.27734375 -19.414062 L -6.5722656 -19.416016 z M -1.8515625 -6.9824219 L 0.18945312 -6.9824219 L 2.2285156 -6.9824219 L 5.1738281 -3.8535156 C 6.835219 -2.0879565 8.1034447 -0.68820229 8.0859375 -0.64257812 C 8.0688735 -0.59811059 6.7557088 0.81999382 5.1679688 2.5097656 L 2.28125 5.5820312 L 0.1796875 5.5820312 L -1.9238281 5.5820312 L -4.8632812 2.453125 L -7.8046875 -0.67578125 L -5.8671875 -2.7402344 C -3.6613875 -5.0894527 -3.1254327 -5.6564464 -2.3808594 -6.4316406 L -1.8515625 -6.9824219 z M 0.18164062 15.115234 L -1.2695312 16.568359 L -2.71875 18.019531 L 0.16796875 18.019531 C 1.7563084 18.019531 3.0566406 18.012906 3.0566406 18.003906 C 3.0566406 17.994942 2.4093916 17.340472 1.6191406 16.550781 L 0.18164062 15.115234 z "
       id="path3423" />
  </g>
</svg>
