<?xml version="1.0" encoding="UTF-8" standalone="no"?>
<!-- Created with Inkscape (http://www.inkscape.org/) -->

<svg
   xmlns:dc="http://purl.org/dc/elements/1.1/"
   xmlns:cc="http://creativecommons.org/ns#"
   xmlns:rdf="http://www.w3.org/1999/02/22-rdf-syntax-ns#"
   xmlns:svg="http://www.w3.org/2000/svg"
   xmlns="http://www.w3.org/2000/svg"
   xmlns:sodipodi="http://sodipodi.sourceforge.net/DTD/sodipodi-0.dtd"
   xmlns:inkscape="http://www.inkscape.org/namespaces/inkscape"
   width="210mm"
   height="297mm"
   viewBox="0 0 744.09448819 1052.3622047"
   id="svg4332"
   version="1.1"
   inkscape:version="0.91 r13725"
   sodipodi:docname="icon_si_defense_satellite.svg">
  <defs
     id="defs4334" />
  <sodipodi:namedview
     id="base"
     pagecolor="#ffffff"
     bordercolor="#666666"
     borderopacity="1.0"
     inkscape:pageopacity="0.0"
     inkscape:pageshadow="2"
     inkscape:zoom="22.4"
     inkscape:cx="0.10939275"
     inkscape:cy="1054.7705"
     inkscape:document-units="px"
     inkscape:current-layer="layer1"
     showgrid="false"
     inkscape:window-width="1920"
     inkscape:window-height="1028"
     inkscape:window-x="-8"
     inkscape:window-y="-8"
     inkscape:window-maximized="1" />
  <metadata
     id="metadata4337">
    <rdf:RDF>
      <cc:Work
         rdf:about="">
        <dc:format>image/svg+xml</dc:format>
        <dc:type
           rdf:resource="http://purl.org/dc/dcmitype/StillImage" />
        <dc:title></dc:title>
      </cc:Work>
    </rdf:RDF>
  </metadata>
  <g
     inkscape:label="Ebene 1"
     inkscape:groupmode="layer"
     id="layer1">
    <g
       id="g4351">
      <path
         style="fill:#c8c8c8"
         d="m -3.421939,16.863192 c -5.279963,-1.18714 -4.537943,-1.473977 3.813046,-1.473977 l 7.845634,0 -1.178967,0.61247 c -0.648432,0.336859 -2.528967,0.835484 -4.178967,1.108057 l -3,0.495586 -3.300746,-0.742136 z m -8.570716,-4.051529 c -1.452649,-1.142654 -3.118537,-3.055154 -3.701974,-4.25 l -1.060794,-2.172448 1.92706,2.390055 c 1.059883,1.31453 3.002585,3.217024 4.317115,4.227764 1.31453,1.01074 2.113241,1.847715 1.774914,1.859945 -0.338328,0.01223 -1.803672,-0.912662 -3.256321,-2.055316 z m 23.261517,0.284722 c 1.31453,-1.059883 3.26608,-3.002585 4.336777,-4.317115 l 1.946722,-2.390055 -0.738882,1.5 c -1.205612,2.44751 -3.773826,5.118155 -5.923483,6.159739 l -2.011189,0.974491 2.390055,-1.92706 z m -21.890055,-15.20717 0,-11 11,0 11,0 0,11 0,11 -11,0 -11,0 0,-11 z m 21,0 0,-10 -10,0 -10,0 0,10 0,10 10,0 10,0 0,-10 z m -13,6 0,-1 5,0 5,0 0,1 0,1 -5,0 -5,0 0,-1 z m -4,-7 0,-5 1,0 1,0 0,5 0,5 -1,0 -1,0 0,-5 z m 7.5,0 3.905896,-4 1.5,0 1.5,0 -3.905896,4 -3.905896,4 -1.5,0 -1.5,0 3.905896,-4 z m -19.08347,6.75 c -0.395036,-1.2375 -0.691528,-4.128893 -0.658873,-6.425317 l 0.05937,-4.175317 0.841484,-1.50365 0.841485,-1.50365 0,7.928967 c 0,4.360932 -0.08218,7.928967 -0.182612,7.928967 -0.100437,0 -0.505823,-1.0125 -0.900858,-2.25 z m 36.08347,-5.75 0,-7.857934 0.865385,1.546357 0.865384,1.546356 0,4.765221 0,4.765221 -0.865384,1.546356 -0.865385,1.546357 0,-7.857934 z m -33.659739,-10.511189 c 1.041584,-2.149657 3.712229,-4.717871 6.159739,-5.923483 l 1.5,-0.738882 -2.390055,1.946722 c -1.31453,1.070697 -3.257232,3.022247 -4.317115,4.336777 l -1.92706,2.390055 0.974491,-2.011189 z m 28.755231,-2.726653 c -3.691688,-3.84927 -3.27521,-4.334932 0.747132,-0.871242 1.588976,1.368287 4.257373,5.263847 3.44256,5.025751 -0.156851,-0.04583 -2.042213,-1.915362 -4.189692,-4.154509 z m -18.907069,-5.127543 1.546356,-0.865384 4.765221,0 4.765221,0 1.546356,0.865384 1.546357,0.865385 -7.857934,0 -7.857934,0 1.546357,-0.865385 z"
         id="path4353"
         inkscape:connector-curvature="0" />
    </g>
    <path
       style="fill:#a0a0a0;stroke:none;stroke-width:1px;stroke-linecap:butt;stroke-linejoin:miter;stroke-opacity:1"
       d="M 0.74804688 -19.585938 C -3.9730849 -19.585938 -6.0714339 -19.572049 -6.296875 -19.537109 C -6.6269893 -19.485948 -7.0125447 -19.356223 -7.1308594 -19.255859 C -7.2446808 -19.159308 -7.5367955 -19.018787 -8.0253906 -18.826172 C -8.2832031 -18.724537 -8.5697465 -18.597722 -8.6640625 -18.544922 C -8.821674 -18.456682 -8.841138 -18.455758 -8.890625 -18.523438 C -8.9379956 -18.58822 -9.0428281 -18.516012 -9.7675781 -17.925781 C -11.045508 -16.885043 -11.413002 -16.558659 -12.4375 -15.548828 C -13.370696 -14.628991 -14.376874 -13.556238 -14.486328 -13.365234 C -14.516632 -13.312351 -14.681272 -12.974903 -14.853516 -12.615234 C -15.184962 -11.923127 -15.39145 -11.583534 -15.634766 -11.328125 C -15.716635 -11.242188 -15.849054 -11.051619 -15.927734 -10.904297 C -16.102809 -10.576477 -16.241585 -10.329794 -16.484375 -9.921875 C -16.586674 -9.75 -16.764544 -9.4124782 -16.878906 -9.171875 L -17.087891 -8.734375 L -17.09375 -5.1308594 C -17.09707 -3.1493643 -17.111863 -0.44308036 -17.126953 0.8828125 C -17.142003 2.2087053 -17.148125 3.3028871 -17.140625 3.3144531 C -17.133155 3.3260191 -17.109924 3.3078736 -17.089844 3.2753906 C -17.063628 3.2329714 -17.001502 3.2897692 -16.869141 3.4746094 C -16.767785 3.6161531 -16.685547 3.7493804 -16.685547 3.7714844 C -16.685547 3.8307375 -16.412904 4.3843192 -16.371094 4.4101562 C -16.351404 4.4223254 -16.312613 4.5759799 -16.283203 4.7539062 C -16.253794 4.9318326 -16.192438 5.1688058 -16.148438 5.2792969 C -16.10444 5.389788 -16.002885 5.6914062 -15.921875 5.9492188 C -15.840866 6.2070312 -15.748587 6.4679129 -15.716797 6.5292969 C -15.633952 6.689279 -15.645231 6.9666022 -15.746094 7.2597656 L -15.833984 7.5136719 L -15.248047 8.2382812 C -14.494224 9.170541 -14.514376 9.1490038 -13.724609 10.001953 C -12.783328 11.018539 -11.442771 12.25847 -10.412109 13.068359 C -10.166573 13.261299 -9.842733 13.526883 -9.6914062 13.658203 C -9.4388807 13.87734 -9.4059638 13.892569 -9.2929688 13.849609 C -9.1991539 13.813939 -9.1289964 13.818694 -8.9980469 13.871094 C -8.9035308 13.908914 -8.7474076 13.939453 -8.6503906 13.939453 C -8.5533732 13.939453 -8.367888 13.986099 -8.2382812 14.042969 C -8.108675 14.099843 -7.9020648 14.173008 -7.7792969 14.205078 C -7.2149121 14.35252 -6.8235616 14.482976 -6.7753906 14.541016 C -6.6433924 14.700064 -5.9111679 15.056552 -5.7148438 15.056641 C -5.6237373 15.056674 -5.6132812 15.077467 -5.6132812 15.285156 L -5.6132812 15.513672 L -5.3574219 15.484375 C -4.7479835 15.416243 -1.5791094 15.369842 2.4335938 15.369141 C 6.6186153 15.368411 6.7632277 15.366017 7.0761719 15.279297 C 7.2538326 15.230027 7.4051194 15.207536 7.4121094 15.228516 C 7.4191027 15.249496 7.6207906 15.219952 7.859375 15.164062 C 8.0979593 15.108174 8.4388768 15.038386 8.6171875 15.009766 L 8.9414062 14.958984 L 9.6328125 14.398438 C 10.17402 13.960543 10.324219 13.817415 10.324219 13.734375 C 10.324219 13.647171 10.347092 13.626953 10.453125 13.626953 C 10.548452 13.626953 10.614604 13.585249 10.708984 13.464844 C 10.901767 13.21891 10.986458 13.149194 11.126953 13.121094 C 11.282222 13.09004 11.954174 12.519635 12.980469 11.546875 C 14.362145 10.237273 16.291978 8.0608232 16.210938 7.9042969 C 16.142016 7.771179 16.168259 7.5728545 16.277344 7.4121094 C 16.335825 7.3259326 16.439982 7.1569259 16.507812 7.0371094 C 16.727382 6.649263 16.85666 6.4666282 17.050781 6.2695312 C 17.195196 6.1229027 17.263701 6.0028821 17.332031 5.7734375 C 17.381581 5.6070388 17.421875 5.4306384 17.421875 5.3808594 C 17.421875 5.1917866 17.578991 4.8143246 17.720703 4.6640625 L 17.869141 4.5078125 L 17.867188 -1.9472656 L 17.867188 -8.4042969 L 17.722656 -8.4707031 C 17.585198 -8.5345705 17.520214 -8.63023 17.361328 -9.0058594 C 17.324978 -9.0917969 17.280972 -9.3842076 17.263672 -9.6542969 C 17.228252 -10.207179 17.181742 -10.370098 16.898438 -10.964844 C 16.779193 -11.215172 16.715984 -11.399578 16.740234 -11.423828 C 16.764484 -11.448077 16.18046 -12.069041 15.283203 -12.970703 C 13.467601 -14.795217 12.244768 -16.081636 11.476562 -16.976562 C 10.919194 -17.625878 10.894026 -17.64711 10.646484 -17.71875 C 10.505987 -17.759412 10.254387 -17.813321 10.087891 -17.837891 C 9.7053857 -17.89433 9.4449045 -18.053742 8.9394531 -18.539062 C 8.4961795 -18.964682 8.3988308 -19.029912 8.1582031 -19.070312 C 8.0599888 -19.0868 7.8527106 -19.143673 7.6972656 -19.195312 L 7.4140625 -19.289062 L 7.4433594 -19.4375 L 7.4707031 -19.585938 L 0.74804688 -19.585938 z M -10.613281 -13.113281 L 0.390625 -13.113281 L 11.394531 -13.113281 L 11.394531 -2.109375 L 11.394531 8.8945312 L 0.390625 8.8945312 L -10.613281 8.8945312 L -10.613281 -2.109375 L -10.613281 -13.113281 z M -9.5878906 -12.085938 L -9.5878906 -2.109375 L -9.5878906 7.8691406 L 0.390625 7.8691406 L 10.369141 7.8691406 L 10.369141 -2.109375 L 10.369141 -12.085938 L 0.390625 -12.085938 L -9.5878906 -12.085938 z M -6.640625 -8.1132812 L -5.6132812 -8.1132812 L -4.5878906 -8.1132812 L -4.5878906 -3.1132812 L -4.5878906 1.8867188 L -5.6132812 1.8867188 L -6.640625 1.8867188 L -6.640625 -3.1132812 L -6.640625 -8.1132812 z M 6.2753906 -7.1269531 C 7.1061201 -7.1292101 7.7796644 -7.114071 7.7714844 -7.09375 C 7.7633 -7.073429 6.0092076 -5.2663344 3.8730469 -3.078125 L -0.01171875 0.90039062 L -1.5234375 0.90234375 L -3.0351562 0.90429688 L -2.6621094 0.50195312 C -2.4563822 0.28124106 -0.70145086 -1.5248664 1.2382812 -3.5117188 L 4.765625 -7.1230469 L 6.2753906 -7.1269531 z M -2.6230469 2.8691406 L 2.3769531 2.8691406 L 7.3769531 2.8691406 L 7.3769531 3.8945312 L 7.3769531 4.921875 L 2.3769531 4.921875 L -2.6230469 4.921875 L -2.6230469 3.8945312 L -2.6230469 2.8691406 z "
       id="path4392" />
  </g>
</svg>
