<?xml version="1.0" encoding="UTF-8" standalone="no"?>
<!-- Created with Inkscape (http://www.inkscape.org/) -->

<svg
   xmlns:dc="http://purl.org/dc/elements/1.1/"
   xmlns:cc="http://creativecommons.org/ns#"
   xmlns:rdf="http://www.w3.org/1999/02/22-rdf-syntax-ns#"
   xmlns:svg="http://www.w3.org/2000/svg"
   xmlns="http://www.w3.org/2000/svg"
   xmlns:sodipodi="http://sodipodi.sourceforge.net/DTD/sodipodi-0.dtd"
   xmlns:inkscape="http://www.inkscape.org/namespaces/inkscape"
   width="210mm"
   height="297mm"
   viewBox="0 0 744.09448819 1052.3622047"
   id="svg3639"
   version="1.1"
   inkscape:version="0.91 r13725"
   sodipodi:docname="icon_si_battleship.svg">
  <defs
     id="defs3641" />
  <sodipodi:namedview
     id="base"
     pagecolor="#ffffff"
     bordercolor="#666666"
     borderopacity="1.0"
     inkscape:pageopacity="0.0"
     inkscape:pageshadow="2"
     inkscape:zoom="11.2"
     inkscape:cx="13.644023"
     inkscape:cy="1047.7583"
     inkscape:document-units="px"
     inkscape:current-layer="layer1"
     showgrid="false"
     inkscape:window-width="1920"
     inkscape:window-height="1028"
     inkscape:window-x="-8"
     inkscape:window-y="-8"
     inkscape:window-maximized="1" />
  <metadata
     id="metadata3644">
    <rdf:RDF>
      <cc:Work
         rdf:about="">
        <dc:format>image/svg+xml</dc:format>
        <dc:type
           rdf:resource="http://purl.org/dc/dcmitype/StillImage" />
        <dc:title></dc:title>
      </cc:Work>
    </rdf:RDF>
  </metadata>
  <g
     inkscape:label="Ebene 1"
     inkscape:groupmode="layer"
     id="layer1">
    <g
       id="g3658">
      <path
         style="fill:#c8c8c8"
         d="m -13.785719,-0.887783 0,-8.5 3.685549,0 3.685549,0 2.314451,-2.174314 2.314451,-2.174314 2.314451,2.174314 2.314451,2.174314 8.685549,0 8.685549,0 0,3.28416 0,3.28416 -5.281445,5.21584 -5.281446,5.21584 -11.718554,0 -11.718555,0 0,-8.5 z m 9.685549,5.325686 2.314451,-2.174314 2.314451,2.174314 2.314451,2.174314 3.4012,0 3.4012,0 4.784349,-4.712408 4.784349,-4.712408 0,-2.787592 0,-2.787592 -8.185549,0 -8.185549,0 -2.314451,-2.174314 -2.314451,-2.174314 -2.314451,2.174314 -2.314451,2.174314 -3.185549,0 -3.185549,0 0,7.5 0,7.5 3.185549,0 3.185549,0 2.314451,-2.174314 z m -3.685549,-5.825686 0,-1 3,0 3,0 0,1 0,1 -3,0 -3,0 0,-1 z m 7,0 c 0,-0.55 0.45,-1 1,-1 0.55,0 1,0.45 1,1 0,0.55 -0.45,1 -1,1 -0.55,0 -1,-0.45 -1,-1 z m 3,0 c 0,-0.55 0.45,-1 1,-1 0.55,0 1,0.45 1,1 0,0.55 -0.45,1 -1,1 -0.55,0 -1,-0.45 -1,-1 z m -5.819551,-5.25 0.319551,-2.25 1.5,0 1.5,0 0.319551,2.25 0.319551,2.25 -2.139102,0 -2.139102,0 0.319551,-2.25 z m 3.019551,12.05 -1.2,-1.2 -1.2,1.2 -1.2,1.2 2.4,0 2.4,0 -1.2,-1.2 z"
         id="path3660"
         inkscape:connector-curvature="0" />
    </g>
    <path
       style="fill:#a0a0a0;stroke:none;stroke-width:1px;stroke-linecap:butt;stroke-linejoin:miter;stroke-opacity:1"
       d="M -1.7910156 -12.691406 L -4.1035156 -10.511719 L -6.4179688 -8.3320312 L -9.5664062 -8.328125 L -12.712891 -8.3242188 L -12.712891 -0.86914062 L -12.712891 6.5859375 L -9.5664062 6.5839844 L -6.4179688 6.5839844 L -4.0996094 4.40625 L -1.7792969 2.2304688 L -0.62890625 3.3144531 C 0.00397411 3.9108834 1.0505178 4.8906947 1.6953125 5.4921875 L 2.8671875 6.5859375 L 6.2597656 6.5839844 L 9.6523438 6.5820312 L 14.412109 1.8730469 L 19.169922 -2.8339844 L 19.166016 -5.578125 L 19.162109 -8.3242188 L 11.013672 -8.3261719 L 2.8671875 -8.3300781 L 1.3945312 -9.7167969 C 0.58426334 -10.479939 -0.4650424 -11.462018 -0.93554688 -11.898438 L -1.7910156 -12.691406 z M -1.7265625 -8.9296875 L -0.26171875 -8.9042969 L 0.05859375 -6.6503906 L 0.37890625 -4.3964844 L -1.7988281 -4.3964844 L -3.9765625 -4.3964844 L -3.9277344 -4.640625 C -3.9007933 -4.7756696 -3.7539848 -5.7712054 -3.6015625 -6.8515625 C -3.4491393 -7.9319197 -3.2947695 -8.8466776 -3.2578125 -8.8847656 C -3.2208563 -8.9228486 -2.5319232 -8.9432215 -1.7265625 -8.9296875 z M -7.8027344 -2.4316406 L -4.7675781 -2.4316406 L -1.7304688 -2.4316406 L -1.7304688 -1.4042969 L -1.7304688 -0.37890625 L -4.7675781 -0.37890625 L -7.8027344 -0.37890625 L -7.8027344 -1.4042969 L -7.8027344 -2.4316406 z M 0.12695312 -2.3945312 C 0.26218934 -2.4054149 0.40587902 -2.3889745 0.54882812 -2.3417969 C 0.94621831 -2.2106469 1.2143974 -1.8008839 1.2148438 -1.328125 C 1.2151081 -1.0559946 1.1524317 -0.92196294 0.91210938 -0.68164062 C 0.67046563 -0.4399969 0.53729777 -0.37896638 0.26367188 -0.38085938 C -0.45266563 -0.38581026 -0.94953482 -0.99680445 -0.7578125 -1.6367188 C -0.6243192 -2.0822783 -0.27875552 -2.3618802 0.12695312 -2.3945312 z M 3.1035156 -2.3945312 C 3.2034148 -2.4108149 3.3032846 -2.4120156 3.3964844 -2.3945312 C 3.7332523 -2.3313535 4.1241219 -1.954762 4.2089844 -1.6113281 C 4.299704 -1.2441897 4.0955669 -0.74720446 3.7734375 -0.55078125 C 2.8580232 0.00740447 1.8092674 -0.9876179 2.3496094 -1.9023438 C 2.4998008 -2.1565978 2.803818 -2.3456804 3.1035156 -2.3945312 z M -1.7773438 4.2636719 L -2.9355469 5.4257812 L -4.09375 6.5859375 L -1.796875 6.5859375 C -0.53307458 6.5859375 0.50195312 6.575485 0.50195312 6.5625 C 0.50195312 6.5495146 -0.011860095 6.0277641 -0.63867188 5.4023438 L -1.7773438 4.2636719 z "
       id="path3664" />
  </g>
</svg>
