<?xml version="1.0" encoding="UTF-8" standalone="no"?>
<!-- Created with Inkscape (http://www.inkscape.org/) -->

<svg
   xmlns:dc="http://purl.org/dc/elements/1.1/"
   xmlns:cc="http://creativecommons.org/ns#"
   xmlns:rdf="http://www.w3.org/1999/02/22-rdf-syntax-ns#"
   xmlns:svg="http://www.w3.org/2000/svg"
   xmlns="http://www.w3.org/2000/svg"
   xmlns:sodipodi="http://sodipodi.sourceforge.net/DTD/sodipodi-0.dtd"
   xmlns:inkscape="http://www.inkscape.org/namespaces/inkscape"
   width="210mm"
   height="297mm"
   viewBox="0 0 744.09448819 1052.3622047"
   id="svg4383"
   version="1.1"
   inkscape:version="0.91 r13725"
   sodipodi:docname="icon_si_orbital_fabricatior.svg">
  <defs
     id="defs4385" />
  <sodipodi:namedview
     id="base"
     pagecolor="#ffffff"
     bordercolor="#666666"
     borderopacity="1.0"
     inkscape:pageopacity="0.0"
     inkscape:pageshadow="2"
     inkscape:zoom="22.4"
     inkscape:cx="1.2441153"
     inkscape:cy="1054.0381"
     inkscape:document-units="px"
     inkscape:current-layer="layer1"
     showgrid="false"
     inkscape:window-width="1920"
     inkscape:window-height="1028"
     inkscape:window-x="-8"
     inkscape:window-y="-8"
     inkscape:window-maximized="1" />
  <metadata
     id="metadata4388">
    <rdf:RDF>
      <cc:Work
         rdf:about="">
        <dc:format>image/svg+xml</dc:format>
        <dc:type
           rdf:resource="http://purl.org/dc/dcmitype/StillImage" />
        <dc:title></dc:title>
      </cc:Work>
    </rdf:RDF>
  </metadata>
  <g
     inkscape:label="Ebene 1"
     inkscape:groupmode="layer"
     id="layer1">
    <path
       style="fill:#000000"
       d="m -9.474586,17.94971 -4.331727,-2.198813 -2.668273,-4.032033 -2.668273,-4.032033 0,-7.658528 0,-7.658529 2.86163,-4.129333 2.86163,-4.129334 4.204094,-2.035167 4.204095,-2.035167 5.368551,0 5.368551,0 4.204095,2.035167 4.204094,2.035167 2.820976,4.07067 2.820976,4.07067 0.403978,6.344344 0.403977,6.344343 -2.234472,4.615803 -2.234472,4.615804 -4.018336,2.659209 -4.018336,2.659209 -6.610516,0.328682 -6.610515,0.328682 -4.331727,-2.198813 z m 17.113846,-1.285776 3.217881,-1.376839 2.686382,-2.873161 c 1.477509,-1.580239 3.165009,-4.139956 3.75,-5.688261 l 1.063618,-2.815099 0,-3.967019 0,-3.967019 -1.376839,-3.217882 -1.376839,-3.217881 -2.873161,-2.686382 c -1.580239,-1.477509 -4.139956,-3.165009 -5.688261,-3.75 l -2.815099,-1.063618 -3.967019,0 -3.967019,0 -3.217882,1.376839 -3.217881,1.376839 -2.686382,2.873161 c -1.477509,1.580239 -3.16501,4.139956 -3.75,5.688261 l -1.063618,2.815099 0,3.869801 0,3.869801 1.063618,2.815099 c 0.58499,1.548305 2.272491,4.107403 3.75,5.686884 l 2.686382,2.871783 3,1.339075 3,1.339074 4.282119,0.03914 4.282118,0.03914 3.217882,-1.376839 z m -14.882119,-9.023161 -3.4,-3.4 0,-4.2 0,-4.2 3.4,-3.4 3.4,-3.4 4.2,0 4.2,0 3.4,3.4 3.4,3.4 0,4.2 0,4.2 -3.4,3.4 -3.4,3.4 -4.2,0 -4.2,0 -3.4,-3.4 z m 14.676923,-0.523077 2.923077,-2.923077 0,-4.153846 0,-4.153846 -2.923077,-2.923077 -2.923077,-2.923077 -4.153846,0 -4.153846,0 -2.923077,2.923077 -2.923077,2.923077 0,4.153846 0,4.153846 2.923077,2.923077 2.923077,2.923077 4.153846,0 4.153846,0 2.923077,-2.923077 z m -9.076923,-3.576923 0,-1.5 -1.5,0 -1.5,0 0,-2 0,-2 1.5,0 1.5,0 0,-1.5 0,-1.5 2,0 2,0 0,1.5 0,1.5 1.5,0 1.5,0 0,2 0,2 -1.5,0 -1.5,0 0,1.5 0,1.5 -2,0 -2,0 0,-1.5 z"
       id="path4402"
       inkscape:connector-curvature="0" />
    <path
       style="fill:#a0a0a0;stroke:none;stroke-width:1px;stroke-linecap:butt;stroke-linejoin:miter;stroke-opacity:1"
       d="M -3.7421875 -17.917969 L -6.9355469 -16.552734 L -10.128906 -15.1875 L -11.677734 -13.527344 C -13.27117 -11.819258 -13.775954 -11.228436 -14.509766 -10.203125 C -15.658329 -8.5983098 -16.269173 -7.4267174 -17.066406 -5.3027344 L -17.603516 -3.8691406 L -17.603516 0.0390625 L -17.603516 3.9472656 L -17.117188 5.2363281 C -16.84965 5.9449437 -16.570071 6.6808749 -16.494141 6.8710938 C -15.985219 8.1460268 -14.692703 10.176053 -13.433594 11.681641 C -13.217987 11.939454 -12.384574 12.853516 -11.580078 13.712891 L -10.117188 15.275391 L -7.1308594 16.607422 L -4.1445312 17.941406 L -1.0410156 17.972656 C 0.66545759 17.99045 2.5888669 18.009486 3.234375 18.013672 L 4.4082031 18.019531 L 7.6230469 16.648438 L 10.839844 15.275391 L 12.251953 13.763672 C 13.028401 12.93239 13.820552 12.068272 14.013672 11.84375 C 14.726989 11.014447 15.619468 9.7692732 16.255859 8.7128906 C 16.804738 7.8017719 17.150295 7.0489401 17.748047 5.4648438 L 18.333984 3.9121094 L 18.333984 -0.0546875 L 18.333984 -4.0214844 L 16.958984 -7.2324219 L 15.585938 -10.443359 L 13.980469 -11.945312 C 11.939956 -13.852367 11.471212 -14.241607 10.119141 -15.160156 C 8.6438829 -16.162394 7.7489277 -16.612794 5.7167969 -17.376953 L 4.28125 -17.917969 L 0.26953125 -17.917969 L -3.7421875 -17.917969 z M -3.8320312 -10.998047 L 0.36523438 -10.998047 L 4.5605469 -10.998047 L 7.9648438 -7.59375 L 11.369141 -4.1894531 L 11.369141 0.029296875 L 11.369141 4.2480469 L 7.9648438 7.6523438 L 4.5605469 11.056641 L 0.34179688 11.056641 L -3.8769531 11.056641 L -7.28125 7.6523438 L -10.683594 4.2460938 L -10.683594 0.05078125 L -10.683594 -4.1445312 L -7.2578125 -7.5703125 L -3.8320312 -10.998047 z M -3.7871094 -9.9257812 L -6.6992188 -7.0136719 L -9.6132812 -4.0996094 L -9.6132812 0.05078125 L -9.6132812 4.203125 L -6.7011719 7.1171875 L -3.7871094 10.029297 L 0.34179688 10.029297 L 4.4707031 10.029297 L 7.40625 7.09375 L 10.341797 4.1582031 L 10.341797 0.029296875 L 10.341797 -4.0996094 L 7.4296875 -7.0136719 L 4.5175781 -9.9257812 L 0.36523438 -9.9257812 L -3.7871094 -9.9257812 z M -1.6660156 -4.9707031 L 0.36523438 -4.9707031 L 2.3964844 -4.9707031 L 2.3964844 -3.4746094 L 2.3964844 -1.9804688 L 3.8925781 -1.9804688 L 5.3886719 -1.9804688 L 5.3769531 0.041015625 L 5.3652344 2.0605469 L 3.8808594 2.0722656 L 2.3964844 2.0839844 L 2.3847656 3.5683594 L 2.3730469 5.0507812 L 0.35351562 5.0625 L -1.6660156 5.0742188 L -1.6660156 3.578125 L -1.6660156 2.0820312 L -3.1621094 2.0820312 L -4.6582031 2.0820312 L -4.6582031 0.05078125 L -4.6582031 -1.9804688 L -3.1621094 -1.9804688 L -1.6660156 -1.9804688 L -1.6660156 -3.4746094 L -1.6660156 -4.9707031 z "
       id="path4407" />
  </g>
</svg>
