<?xml version="1.0" encoding="UTF-8" standalone="no"?>
<!-- Created with Inkscape (http://www.inkscape.org/) -->

<svg
   xmlns:dc="http://purl.org/dc/elements/1.1/"
   xmlns:cc="http://creativecommons.org/ns#"
   xmlns:rdf="http://www.w3.org/1999/02/22-rdf-syntax-ns#"
   xmlns:svg="http://www.w3.org/2000/svg"
   xmlns="http://www.w3.org/2000/svg"
   xmlns:sodipodi="http://sodipodi.sourceforge.net/DTD/sodipodi-0.dtd"
   xmlns:inkscape="http://www.inkscape.org/namespaces/inkscape"
   width="210mm"
   height="297mm"
   viewBox="0 0 744.09448819 1052.3622047"
   id="svg4308"
   version="1.1"
   inkscape:version="0.91 r13725"
   sodipodi:docname="icon_si_fabrication_aircraft_adv.svg">
  <defs
     id="defs4310" />
  <sodipodi:namedview
     id="base"
     pagecolor="#ffffff"
     bordercolor="#666666"
     borderopacity="1.0"
     inkscape:pageopacity="0.0"
     inkscape:pageshadow="2"
     inkscape:zoom="22.4"
     inkscape:cx="8.7506394"
     inkscape:cy="1056.9353"
     inkscape:document-units="px"
     inkscape:current-layer="layer1"
     showgrid="false"
     inkscape:window-width="1920"
     inkscape:window-height="1028"
     inkscape:window-x="-8"
     inkscape:window-y="-8"
     inkscape:window-maximized="1" />
  <metadata
     id="metadata4313">
    <rdf:RDF>
      <cc:Work
         rdf:about="">
        <dc:format>image/svg+xml</dc:format>
        <dc:type
           rdf:resource="http://purl.org/dc/dcmitype/StillImage" />
        <dc:title></dc:title>
      </cc:Work>
    </rdf:RDF>
  </metadata>
  <g
     inkscape:label="Ebene 1"
     inkscape:groupmode="layer"
     id="layer1">
    <g
       id="g4327">
      <path
         style="fill:#fefefe"
         d="m -22.232143,5.143421 0,-6.5937837 9.091895,-9.0312163 9.091895,-9.031215 4.37689,0 4.3768887,0 9.0312163,9.091895 9.031215,9.091895 0,6.533105 0,6.533105 -22.5,0 -22.5,0 0,-6.593785 z m 41.25,-1.25 0,-2.8437837 -9.375,-9.3124313 -9.375,-9.312431 -9.375,9.312431 -9.375,9.3124313 0,2.8437837 0,2.843785 18.75,0 18.75,0 0,-2.843785 z"
         id="path4331"
         inkscape:connector-curvature="0" />
      <path
         style="fill:#c8c8c8"
         d="m -18.482143,3.893421 0,-2.8437837 9.375,-9.3124313 9.375,-9.312431 9.375,9.312431 9.375,9.3124313 0,2.8437837 0,2.843785 -18.75,0 -18.75,0 z M -2.6252067,2.7693135 0.267857,0.051421 3.1609207,2.7693135 6.0539845,5.487206 l 5.8569365,0 5.856936,0 0,-2.221025 0,-2.2210237 -8.75,-8.6829513 -8.75,-8.682951 -8.75,8.682951 -8.75,8.6829513 0,2.2210237 0,2.221025 5.856936,0 5.8569365,0 z m -0.8198187,-10.9788038 2.3660714,-0.1339285 0.1292543,-2.3589752 2.5118147,-0.08113 0.164952,2.5640622 2.2799576,0.00712 -0.075666,2.4747781 -2.4472062,-0.068229 0.026179,2.6186321 -2.45535718,-0.044643 -0.0892858,-2.5669643 -2.4330352,0.066956 z M 1.767857,3.987206 l -1.49999998,-1.5 -1.50000002,1.5 -1.5,1.5 3.00000002,0 2.99999998,0 z"
         id="path4329"
         inkscape:connector-curvature="0"
         sodipodi:nodetypes="cccccccccccccccccccccccccccccccccccccccccccccccc" />
    </g>
    <path
       style="stroke:#000000;stroke-width:0.04464286;stroke-opacity:1"
       d="M 0.27148438 -16.304688 L -8.4628906 -7.6386719 L -17.195312 1.0273438 L -17.195312 3.2539062 L -17.195312 5.4804688 L -11.359375 5.4785156 L -5.5214844 5.4785156 L -2.6230469 2.7539062 L 0.2734375 0.029296875 L 0.546875 0.29296875 C 0.69628794 0.43814598 1.9985848 1.6655219 3.4414062 3.0195312 L 6.0644531 5.4804688 L 11.912109 5.4804688 L 17.759766 5.4804688 L 17.755859 3.2597656 L 17.753906 1.0390625 L 13.996094 -2.6855469 C 11.929083 -4.7335777 7.9945205 -8.6361085 5.2539062 -11.357422 L 0.27148438 -16.304688 z M 1.5761719 -10.791016 L 1.6503906 -9.6757812 C 1.6914626 -9.0619419 1.7266156 -8.4846541 1.7285156 -8.3925781 L 1.7324219 -8.2246094 L 2.8789062 -8.2246094 L 4.0234375 -8.2246094 L 3.9941406 -7.3886719 C 3.9780506 -6.9282925 3.964933 -6.364433 3.9648438 -6.1367188 L 3.9648438 -5.7226562 L 2.7363281 -5.7539062 L 1.5097656 -5.7832031 L 1.5097656 -4.4824219 L 1.5097656 -3.1796875 L 0.6953125 -3.1894531 C 0.24720982 -3.1945491 -0.30448392 -3.2048206 -0.52929688 -3.2128906 L -0.9375 -3.2285156 L -0.96289062 -3.4824219 C -0.97684322 -3.6227144 -1.0015591 -4.1978678 -1.0175781 -4.7597656 L -1.046875 -5.78125 L -2.2753906 -5.7480469 L -3.5039062 -5.7167969 L -3.4746094 -6.9570312 C -3.4576554 -7.6394465 -3.4392238 -8.2014012 -3.4335938 -8.2070312 C -3.427959 -8.2126653 -2.9023362 -8.2498215 -2.265625 -8.2890625 C -1.6289134 -8.3283045 -1.1027763 -8.3655338 -1.0976562 -8.3710938 C -1.0925333 -8.376658 -1.0655324 -8.8638393 -1.0371094 -9.453125 C -1.0086866 -10.04241 -0.97747187 -10.566631 -0.96679688 -10.619141 C -0.94786473 -10.712259 -0.92074152 -10.716041 0.0703125 -10.744141 C 0.62912634 -10.759981 1.1950334 -10.77595 1.3300781 -10.78125 L 1.5761719 -10.791016 z M 0.25976562 2.5117188 L -1.2246094 3.9960938 L -2.7089844 5.4804688 L 0.25976562 5.4804688 L 3.2285156 5.4804688 L 1.7441406 3.9960938 L 0.25976562 2.5117188 z "
       id="path4338" />
  </g>
</svg>
