<?xml version="1.0" encoding="UTF-8" standalone="no"?>
<!-- Created with Inkscape (http://www.inkscape.org/) -->

<svg
   xmlns:dc="http://purl.org/dc/elements/1.1/"
   xmlns:cc="http://creativecommons.org/ns#"
   xmlns:rdf="http://www.w3.org/1999/02/22-rdf-syntax-ns#"
   xmlns:svg="http://www.w3.org/2000/svg"
   xmlns="http://www.w3.org/2000/svg"
   xmlns:sodipodi="http://sodipodi.sourceforge.net/DTD/sodipodi-0.dtd"
   xmlns:inkscape="http://www.inkscape.org/namespaces/inkscape"
   width="210mm"
   height="297mm"
   viewBox="0 0 744.09448819 1052.3622047"
   id="svg3534"
   version="1.1"
   inkscape:version="0.91 r13725"
   sodipodi:docname="icon_si_ion_defense.svg">
  <defs
     id="defs3536" />
  <sodipodi:namedview
     id="base"
     pagecolor="#ffffff"
     bordercolor="#666666"
     borderopacity="1.0"
     inkscape:pageopacity="0.0"
     inkscape:pageshadow="2"
     inkscape:zoom="15.839192"
     inkscape:cx="6.455825"
     inkscape:cy="1053.2228"
     inkscape:document-units="px"
     inkscape:current-layer="layer1"
     showgrid="false"
     inkscape:window-width="1920"
     inkscape:window-height="1028"
     inkscape:window-x="-8"
     inkscape:window-y="-8"
     inkscape:window-maximized="1" />
  <metadata
     id="metadata3539">
    <rdf:RDF>
      <cc:Work
         rdf:about="">
        <dc:format>image/svg+xml</dc:format>
        <dc:type
           rdf:resource="http://purl.org/dc/dcmitype/StillImage" />
        <dc:title></dc:title>
      </cc:Work>
    </rdf:RDF>
  </metadata>
  <g
     inkscape:label="Ebene 1"
     inkscape:groupmode="layer"
     id="layer1">
    <path
       style="fill:#000000"
       d="m -19.742791,5.588135 0.0046,-13.4375 2.483902,-4.073925 2.483902,-4.073925 4.073925,-2.483902 4.0739255,-2.483903 6.875,0 6.875,0 4.0739245,2.483903 4.073925,2.483902 2.483903,4.073925 2.483902,4.073925 0.0046,13.4375 0.0048,13.4375 -20,0 -20,0 0.0047,-13.4375 z m 37.495328,-0.374575 0,-11.312075 -1.935686,-3.7432025 -1.935685,-3.7432035 -4.0018153,-2.440049 -4.0018137,-2.44005 -5.374575,-0.0047 -5.374575,-0.0047 -3.7432025,1.935686 -3.7432035,1.935685 -2.440049,4.001815 -2.44005,4.001814 -0.0047,11.5625 -0.0047,11.5625 17.5,0 17.5,0 0,-11.312075 z m -20,-7.437925 0,-6.25 2.5,0 2.5,0 0,6.25 0,6.25 -2.5,0 -2.5,0 0,-6.25 z"
       id="path3602"
       inkscape:connector-curvature="0" />
    <path
       style="fill:#a0a0a0;stroke:none;stroke-width:1px;stroke-linecap:butt;stroke-linejoin:miter;stroke-opacity:1"
       d="m -17.230371,4.9762398 0.0019,-11.5378361 2.447097,-4.0090427 2.447096,-4.009043 3.7539906,-1.940766 3.7539901,-1.940767 5.33486817,0.0022 5.33486813,0.0022 4.0068623,2.446952 4.0068627,2.446953 1.942524,3.7531968 1.942523,3.7531971 0.001,11.285298 0.001,11.2852981 -17.48826627,0 -17.48826573,0 0.0019,-11.5378362 z m 20.0117661,-7.1815533 0,-6.2818861 -2.52538137,0 -2.52538133,0 0,6.2818861 0,6.2818862 2.52538133,0 2.52538137,0 0,-6.2818862 z"
       id="path3604"
       inkscape:connector-curvature="0" />
  </g>
</svg>
