<?xml version="1.0" encoding="UTF-8" standalone="no"?>
<!-- Created with Inkscape (http://www.inkscape.org/) -->

<svg
   xmlns:dc="http://purl.org/dc/elements/1.1/"
   xmlns:cc="http://creativecommons.org/ns#"
   xmlns:rdf="http://www.w3.org/1999/02/22-rdf-syntax-ns#"
   xmlns:svg="http://www.w3.org/2000/svg"
   xmlns="http://www.w3.org/2000/svg"
   xmlns:sodipodi="http://sodipodi.sourceforge.net/DTD/sodipodi-0.dtd"
   xmlns:inkscape="http://www.inkscape.org/namespaces/inkscape"
   width="210mm"
   height="297mm"
   viewBox="0 0 744.09448819 1052.3622047"
   id="svg4331"
   version="1.1"
   inkscape:version="0.91 r13725"
   sodipodi:docname="icon_si_naval_factory_adv.svg">
  <defs
     id="defs4333" />
  <sodipodi:namedview
     id="base"
     pagecolor="#ffffff"
     bordercolor="#666666"
     borderopacity="1.0"
     inkscape:pageopacity="0.0"
     inkscape:pageshadow="2"
     inkscape:zoom="15.839192"
     inkscape:cx="-0.47423779"
     inkscape:cy="1050.2154"
     inkscape:document-units="px"
     inkscape:current-layer="layer1"
     showgrid="false"
     inkscape:window-width="1920"
     inkscape:window-height="1028"
     inkscape:window-x="-8"
     inkscape:window-y="-8"
     inkscape:window-maximized="1" />
  <metadata
     id="metadata4336">
    <rdf:RDF>
      <cc:Work
         rdf:about="">
        <dc:format>image/svg+xml</dc:format>
        <dc:type
           rdf:resource="http://purl.org/dc/dcmitype/StillImage" />
        <dc:title></dc:title>
      </cc:Work>
    </rdf:RDF>
  </metadata>
  <g
     inkscape:label="Ebene 1"
     inkscape:groupmode="layer"
     id="layer1">
    <path
       style="fill:#000000"
       d="m -12.340631,11.876116 -5.26026,-5.3598137 0,-6.8799263 0,-6.879925 5.359815,-5.26026 5.3598138,-5.26026 6.7803712,0 6.7803713,0 5.3598137,5.26026 5.359815,5.26026 0,6.879925 0,6.8799263 -5.26026,5.3598137 -5.26026,5.359815 -6.97948,0 -6.97948,0 -5.26026,-5.359815 z m 9.3466763,1.391922 2.8930637,-2.717892 3.1436813,2.953335 3.1436812,2.953335 4.9813185,-4.864127 4.981319,-4.864128 0,-6.88111125 0,-6.88111245 -4.628685,-4.7402023 -4.628685,-4.740204 -6.88111125,0 -6.88111245,0 -4.7402023,4.628685 -4.740204,4.628685 0,6.88111125 0,6.88111245 4.628685,4.7402023 c 2.5457763,2.607113 4.9001475,4.740204 5.2319363,4.740204 0.3317875,0 1.90513,-1.223051 3.496315,-2.717893 z m -4.6069363,-13.532107 0,-3.75 7.5,0 7.5,0 0,1.0321075 c 0,0.5676588 -1.3018787,2.25515875 -2.8930637,3.75 l -2.8930638,2.7178925 -4.6069362,0 -4.6069363,0 0,-3.75 z m 9,14.75 -1.5,-1.5 -1.5,1.5 -1.5,1.5 3,0 3,0 -1.5,-1.5 z"
       id="path4350"
       inkscape:connector-curvature="0" />
    <path
       style="fill:#a0a0a0;stroke:none;stroke-width:1px;stroke-linecap:butt;stroke-linejoin:miter;stroke-opacity:1"
       d="M 6.8925781 -16.464844 L -0.001953125 -16.460938 L -6.8945312 -16.458984 L -11.615234 -11.84375 L -16.333984 -7.2285156 L -16.333984 -0.38085938 L -16.333984 6.46875 L -14.644531 8.2089844 C -9.593922 13.412506 -6.9307298 15.921875 -6.4609375 15.921875 C -6.38215 15.921875 -6.1075418 15.77865 -5.8496094 15.601562 C -4.8802437 14.936028 -3.9795503 14.150997 -1.4414062 11.765625 C -0.73322748 11.100071 -0.12821273 10.556641 -0.09765625 10.556641 C -0.06709977 10.556641 1.3571 11.873576 3.0664062 13.482422 L 6.1738281 16.40625 L 7.3222656 15.296875 C 7.9537177 14.686344 10.18818 12.509613 12.289062 10.460938 L 16.109375 6.7363281 L 16.113281 -0.14453125 L 16.115234 -7.0273438 L 11.503906 -11.746094 L 6.8925781 -16.464844 z M -7.6210938 -4.0273438 L -0.10742188 -4.0273438 L 7.4042969 -4.0273438 L 7.4042969 -3.3945312 C 7.4042969 -2.6806153 7.3560165 -2.5401134 6.8496094 -1.8183594 C 6.193723 -0.8835598 5.1570359 0.19874892 2.7246094 2.4941406 L 1.6757812 3.484375 L -2.9726562 3.484375 L -7.6210938 3.484375 L -7.6210938 -0.27148438 L -7.6210938 -4.0273438 z M -0.10742188 13.050781 L -1.5761719 14.517578 L -3.0429688 15.986328 L -0.10742188 15.986328 L 2.828125 15.986328 L 1.359375 14.517578 L -0.10742188 13.050781 z "
       id="path4352" />
  </g>
</svg>
