<?xml version="1.0" encoding="UTF-8" standalone="no"?>
<!-- Created with Inkscape (http://www.inkscape.org/) -->

<svg
   xmlns:dc="http://purl.org/dc/elements/1.1/"
   xmlns:cc="http://creativecommons.org/ns#"
   xmlns:rdf="http://www.w3.org/1999/02/22-rdf-syntax-ns#"
   xmlns:svg="http://www.w3.org/2000/svg"
   xmlns="http://www.w3.org/2000/svg"
   xmlns:sodipodi="http://sodipodi.sourceforge.net/DTD/sodipodi-0.dtd"
   xmlns:inkscape="http://www.inkscape.org/namespaces/inkscape"
   width="210mm"
   height="297mm"
   viewBox="0 0 744.09448819 1052.3622047"
   id="svg3461"
   version="1.1"
   inkscape:version="0.91 r13725"
   sodipodi:docname="icon_si_radar_adv.svg">
  <defs
     id="defs3463" />
  <sodipodi:namedview
     id="base"
     pagecolor="#ffffff"
     bordercolor="#666666"
     borderopacity="1.0"
     inkscape:pageopacity="0.0"
     inkscape:pageshadow="2"
     inkscape:zoom="15.839192"
     inkscape:cx="1.1732866"
     inkscape:cy="1055.0272"
     inkscape:document-units="px"
     inkscape:current-layer="layer1"
     showgrid="false"
     inkscape:window-width="1920"
     inkscape:window-height="1028"
     inkscape:window-x="-8"
     inkscape:window-y="-8"
     inkscape:window-maximized="1" />
  <metadata
     id="metadata3466">
    <rdf:RDF>
      <cc:Work
         rdf:about="">
        <dc:format>image/svg+xml</dc:format>
        <dc:type
           rdf:resource="http://purl.org/dc/dcmitype/StillImage" />
        <dc:title></dc:title>
      </cc:Work>
    </rdf:RDF>
  </metadata>
  <g
     inkscape:label="Ebene 1"
     inkscape:groupmode="layer"
     id="layer1">
    <path
       style="fill:#000000"
       d="m -11.607143,-1.209225 0,-15 11.25,0 11.25,0 0,15 0,15 -11.25,0 -11.25,0 0,-15 z M -3.2502067,9.8228825 -0.357143,7.10499 l 2.8930637,2.7178925 2.8930638,2.7178925 2.1069362,0 2.1069363,0 0,-13.75 0,-13.75 -10,0 -10,0 0,13.75 0,13.75 2.1069363,0 2.1069362,0 2.8930638,-2.7178925 z M -5.7958505,-6.86895 c 0.4030562,-1.0503488 1.7509037,-2.4545813 2.9952163,-3.1205175 l 2.2623862,-1.2107925 2.0002775,0.767579 c 1.1001525,0.422168 2.5669425,1.826401 3.2595325,3.1205172 l 1.259255,2.3529388 -1.1602437,0 c -0.6381351,0 -1.4840213,-0.84375 -1.8797488,-1.875 l -0.719505,-1.875 -2.5784625,0 -2.5784625,0 -0.719505,1.875 c -0.3957275,1.03125 -1.2041687,1.875 -1.7965375,1.875 l -1.0770325,0 0.73283,-1.909725 z m 6.9387075,17.909725 -1.5,-1.5 -1.5,1.5 -1.5,1.5 3,0 3,0 -1.5,-1.5 z"
       id="path3480"
       inkscape:connector-curvature="0" />
    <path
       style="fill:#a0a0a0;stroke:none;stroke-width:1px;stroke-linecap:butt;stroke-linejoin:miter;stroke-opacity:1"
       d="M -10.330078 -14.900391 L -10.330078 -1.2011719 L -10.330078 -1.1992188 L -10.330078 12.5 L -8.2304688 12.498047 L -6.1308594 12.494141 L -3.2578125 9.7851562 C -1.6778708 8.2950772 -0.37283075 7.0756668 -0.35546875 7.0761719 C -0.33810676 7.0766637 0.96888643 8.2969588 2.5488281 9.7871094 L 5.421875 12.496094 L 7.5214844 12.498047 L 9.6210938 12.5 L 9.6210938 -1.2011719 L 9.6210938 -14.900391 L -0.35546875 -14.900391 L -10.330078 -14.900391 z M -0.54296875 -11.238281 L 0.64257812 -10.777344 C 2.0525099 -10.231153 2.5197512 -9.9449357 3.375 -9.09375 C 4.1599144 -8.3125656 4.4171223 -7.9371984 5.2929688 -6.3085938 L 6.0195312 -4.9570312 L 5.359375 -4.9394531 C 4.5086176 -4.9164058 4.2186624 -5.0281658 3.7011719 -5.5820312 C 3.2567446 -6.0576976 3.0503874 -6.4462865 2.5800781 -7.6875 L 2.2148438 -8.6503906 L -0.35742188 -8.6503906 L -2.9277344 -8.6503906 L -3.3242188 -7.6054688 C -3.5424585 -7.0305304 -3.8232795 -6.3873221 -3.9472656 -6.1777344 C -4.242124 -5.6793049 -4.7044793 -5.2035327 -5.0410156 -5.0507812 C -5.2474849 -4.9570659 -5.4539656 -4.9268412 -5.9257812 -4.9257812 C -6.2643401 -4.9250192 -6.5412176 -4.9466133 -6.5410156 -4.9726562 C -6.5396479 -5.1471733 -5.6360234 -7.3044531 -5.4414062 -7.5976562 C -4.981487 -8.290554 -4.1095412 -9.1636058 -3.3847656 -9.6582031 C -3.1937836 -9.788532 -2.4768536 -10.197262 -1.7910156 -10.566406 L -0.54296875 -11.238281 z M -0.35546875 9.5644531 L -1.8222656 11.033203 L -3.2890625 12.5 L -0.35546875 12.5 L 2.5800781 12.5 L 1.1132812 11.033203 L -0.35546875 9.5644531 z "
       id="path3482" />
  </g>
</svg>
