<?xml version="1.0" encoding="UTF-8" standalone="no"?>
<!-- Created with Inkscape (http://www.inkscape.org/) -->

<svg
   xmlns:dc="http://purl.org/dc/elements/1.1/"
   xmlns:cc="http://creativecommons.org/ns#"
   xmlns:rdf="http://www.w3.org/1999/02/22-rdf-syntax-ns#"
   xmlns:svg="http://www.w3.org/2000/svg"
   xmlns="http://www.w3.org/2000/svg"
   xmlns:sodipodi="http://sodipodi.sourceforge.net/DTD/sodipodi-0.dtd"
   xmlns:inkscape="http://www.inkscape.org/namespaces/inkscape"
   width="210mm"
   height="297mm"
   viewBox="0 0 744.09448819 1052.3622047"
   id="svg2"
   version="1.1"
   inkscape:version="0.91 r13725"
   sodipodi:docname="icon_si_energy_generator.svg">
  <defs
     id="defs4" />
  <sodipodi:namedview
     id="base"
     pagecolor="#ffffff"
     bordercolor="#666666"
     borderopacity="1.0"
     inkscape:pageopacity="0.0"
     inkscape:pageshadow="2"
     inkscape:zoom="7.9195959"
     inkscape:cx="-3.4360264"
     inkscape:cy="1054.0254"
     inkscape:document-units="px"
     inkscape:current-layer="layer1"
     showgrid="false"
     inkscape:window-width="1920"
     inkscape:window-height="1028"
     inkscape:window-x="-8"
     inkscape:window-y="-8"
     inkscape:window-maximized="1" />
  <metadata
     id="metadata7">
    <rdf:RDF>
      <cc:Work
         rdf:about="">
        <dc:format>image/svg+xml</dc:format>
        <dc:type
           rdf:resource="http://purl.org/dc/dcmitype/StillImage" />
        <dc:title></dc:title>
      </cc:Work>
    </rdf:RDF>
  </metadata>
  <g
     inkscape:label="Ebene 1"
     inkscape:groupmode="layer"
     id="layer1">
    <g
       id="g3347">
      <path
         style="fill:#c8c8c8"
         d="m -8.2089233,8.6663172 -3.9952087,-4.1220087 0,-4.3827825 0,-4.3827825 4.1220087,-3.9952088 4.1220088,-3.9952087 4.3827825,0 4.3827825,0 3.9952087,4.1220087 3.9952088,4.1220088 0,4.3827825 0,4.3827825 -4.1220087,3.9952087 -4.1220088,3.9952088 -4.3827825,0 -4.3827825,0 -3.9952088,-4.1220088 z m 16.2488925,-0.486855 3.5058988,-3.3588637 0,-4.5322725 0,-4.5322725 -3.5058988,-3.3588638 -3.5058987,-3.3588637 -4.2382025,0 -4.2382025,0 -3.5058988,3.3588637 -3.5058987,3.3588638 0,4.3852375 0,4.3852375 3.3588637,3.5058987 3.3588638,3.5058988 4.3852375,0 4.3852375,0 3.5058987,-3.3588638 z M -2.829132,2.788326 l 1.9392,-3.75 -2.1008338,0 -2.100835,0 2.2624688,-2.5 2.26246875,-2.5 3.12500005,0 3.125,0 -2.2624688,2.5 -2.2624688,2.5 1.6775988,0 1.6775975,0 -3.5927275,3.75 c -1.976,2.0625 -4.0644338,3.75 -4.6409638,3.75 l -1.0482362,0 1.9392,-3.75 z"
         id="path3349"
         inkscape:connector-curvature="0" />
    </g>
    <path
       style="fill:#a0a0a0;stroke:none;stroke-width:1px;stroke-linecap:butt;stroke-linejoin:miter;stroke-opacity:1"
       d="m -7.5965922,7.9959203 -3.3145628,-3.4788114 0,-4.37858218 0,-4.37858182 3.5039664,-3.3644801 3.5039666,-3.3644798 4.18857547,-0.0064 4.18857543,-0.0064 1.9354738,1.8539909 c 1.0645113,1.0196949 2.6599437,2.5597029 3.5454056,3.42224 l 1.6099307,1.5682492 0,4.44746463 0,4.44746437 -3.5039667,3.3632512 -3.5039667,3.3632497 -4.41941738,-0.0047 -4.41941742,-0.0047 -3.314563,-3.4788127 z M -2.7860767,6.0960456 C -1.5961502,5.2919111 -0.1423465,3.953565 2.2546313,1.4556573 L 4.5568056,-0.943455 2.9308729,-1.0065895 1.3049391,-1.0697241 3.4675165,-3.4591076 c 1.1894167,-1.314161 2.1625762,-2.4363773 2.1625762,-2.4938141 0,-0.057437 -1.3847297,-0.1044306 -3.0771772,-0.1044306 l -3.07717745,0 -2.28925805,2.5210874 c -1.2590919,1.386598 -2.2892581,2.55143014 -2.2892581,2.58851587 0,0.0370857 0.9091373,0.0674286 2.0203051,0.0674286 1.1111678,0 2.0203051,0.0344207 2.0203051,0.0764904 0,0.0420696 -0.8097004,1.6472651 -1.7993343,3.56710077 -0.9896338,1.9198366 -1.8177058,3.5616375 -1.84016,3.6484475 -0.028603,0.1105814 0.1471528,0.1578364 0.5870396,0.1578364 0.5167886,0 0.7518242,-0.083769 1.3285459,-0.473509 z"
       id="path3353"
       inkscape:connector-curvature="0" />
  </g>
</svg>
