<?xml version="1.0" encoding="UTF-8" standalone="no"?>
<!-- Created with Inkscape (http://www.inkscape.org/) -->

<svg
   xmlns:dc="http://purl.org/dc/elements/1.1/"
   xmlns:cc="http://creativecommons.org/ns#"
   xmlns:rdf="http://www.w3.org/1999/02/22-rdf-syntax-ns#"
   xmlns:svg="http://www.w3.org/2000/svg"
   xmlns="http://www.w3.org/2000/svg"
   xmlns:sodipodi="http://sodipodi.sourceforge.net/DTD/sodipodi-0.dtd"
   xmlns:inkscape="http://www.inkscape.org/namespaces/inkscape"
   width="210mm"
   height="297mm"
   viewBox="0 0 744.09448819 1052.3622047"
   id="svg3575"
   version="1.1"
   inkscape:version="0.91 r13725"
   sodipodi:docname="icon_si_vehicle_factory_adv.svg">
  <defs
     id="defs3577" />
  <sodipodi:namedview
     id="base"
     pagecolor="#ffffff"
     bordercolor="#666666"
     borderopacity="1.0"
     inkscape:pageopacity="0.0"
     inkscape:pageshadow="2"
     inkscape:zoom="22.4"
     inkscape:cx="-0.68558993"
     inkscape:cy="1051.5237"
     inkscape:document-units="px"
     inkscape:current-layer="layer1"
     showgrid="false"
     inkscape:window-width="1920"
     inkscape:window-height="1028"
     inkscape:window-x="-8"
     inkscape:window-y="-8"
     inkscape:window-maximized="1" />
  <metadata
     id="metadata3580">
    <rdf:RDF>
      <cc:Work
         rdf:about="">
        <dc:format>image/svg+xml</dc:format>
        <dc:type
           rdf:resource="http://purl.org/dc/dcmitype/StillImage" />
        <dc:title></dc:title>
      </cc:Work>
    </rdf:RDF>
  </metadata>
  <g
     inkscape:label="Ebene 1"
     inkscape:groupmode="layer"
     id="layer1">
    <path
       style="fill:#000000"
       d="m -11.992776,11.796897 -5.26026,-5.3598137 0,-6.8799263 0,-6.879925 5.359815,-5.26026 5.3598138,-5.26026 6.7803712,0 6.7803712,0 5.3598138,5.26026 5.359815,5.26026 0,6.879925 0,6.8799263 -5.26026,5.3598137 -5.26026,5.359815 -6.97948,0 -6.97948,0 z m 9.3466763,1.391922 2.8930637,-2.717892 3.1436812,2.953335 3.1436813,2.953335 4.9813185,-4.864128 4.981319,-4.864127 0,-6.88111125 0,-6.88111245 -4.628685,-4.7402023 -4.628685,-4.740204 -6.88111125,0 -6.88111245,0 -4.7402023,4.628685 -4.740204,4.628685 0,6.88111125 0,6.88111245 4.628685,4.7402023 c 2.5457762,2.607113 4.9001475,4.740204 5.2319362,4.740204 0.3317875,0 1.90513,-1.223051 3.4963151,-2.717893 z M -7.253036,0.475447 l 0,-1.6812662 2.2859263,-2.0687338 2.2859249,-2.068735 3.14534005,0 3.14534005,0 2.0687337,2.2859263 2.0240922,1.9642856 0.044643,3.2497881 -7.5,0 -7.5,0 z m 9,13.931265 -1.5,-1.5 -1.5,1.5 -1.5,1.5 3,0 3,0 z"
       id="path3594"
       inkscape:connector-curvature="0"
       sodipodi:nodetypes="cccccccccccccccccscccccccccccccccsssccccccccccccccccccc" />
    <path
       style="fill:#a0a0a0;stroke:none;stroke-width:1px;stroke-linecap:butt;stroke-linejoin:miter;stroke-opacity:1"
       d="M -6.5195312 -16.5625 L -11.242188 -11.953125 L -15.962891 -7.3457031 L -15.962891 -0.453125 L -15.962891 6.4394531 L -14.367188 8.0742188 C -9.7266469 12.833172 -7.1444562 15.312614 -6.328125 15.791016 L -6.1269531 15.908203 L -5.890625 15.783203 C -5.1484888 15.394645 -4.006787 14.430611 -1.4628906 12.042969 L 0.24609375 10.439453 L 0.76953125 10.929688 C 1.0573112 11.199349 2.467913 12.52558 3.9042969 13.876953 C 5.3406808 15.228326 6.5265246 16.331172 6.5410156 16.326172 C 6.5555062 16.32118 8.8005658 14.136719 11.529297 11.472656 L 16.490234 6.6289062 L 16.492188 -0.2265625 L 16.492188 -7.0839844 L 11.865234 -11.824219 L 7.2382812 -16.5625 L 0.359375 -16.5625 L -6.5195312 -16.5625 z M -2.6972656 -5.3574219 L 0.46484375 -5.3574219 L 3.6269531 -5.3574219 L 4.6699219 -4.2089844 C 5.2433974 -3.5767299 6.164734 -2.6191104 6.7167969 -2.0820312 L 7.7207031 -1.1054688 L 7.7421875 0.5078125 C 7.7544675 1.3948406 7.7595431 2.1339287 7.7519531 2.1523438 C 7.7443656 2.1707587 4.3637853 2.1875 0.24023438 2.1875 L -7.2578125 2.1875 L -7.2578125 0.4765625 L -7.2578125 -1.2324219 L -4.9765625 -3.2949219 L -2.6972656 -5.3574219 z M 0.2421875 12.923828 L -1.2421875 14.408203 L -2.7265625 15.892578 L 0.2421875 15.892578 L 3.2109375 15.892578 L 1.7265625 14.408203 L 0.2421875 12.923828 z "
       id="path3596" />
  </g>
</svg>
