<?xml version="1.0" encoding="UTF-8" standalone="no"?>
<!-- Created with Inkscape (http://www.inkscape.org/) -->

<svg
   xmlns:dc="http://purl.org/dc/elements/1.1/"
   xmlns:cc="http://creativecommons.org/ns#"
   xmlns:rdf="http://www.w3.org/1999/02/22-rdf-syntax-ns#"
   xmlns:svg="http://www.w3.org/2000/svg"
   xmlns="http://www.w3.org/2000/svg"
   xmlns:sodipodi="http://sodipodi.sourceforge.net/DTD/sodipodi-0.dtd"
   xmlns:inkscape="http://www.inkscape.org/namespaces/inkscape"
   width="210mm"
   height="297mm"
   viewBox="0 0 744.09448819 1052.3622047"
   id="svg4308"
   version="1.1"
   inkscape:version="0.91 r13725"
   sodipodi:docname="icon_si_naval_factory.svg">
  <defs
     id="defs4310" />
  <sodipodi:namedview
     id="base"
     pagecolor="#ffffff"
     bordercolor="#666666"
     borderopacity="1.0"
     inkscape:pageopacity="0.0"
     inkscape:pageshadow="2"
     inkscape:zoom="15.839192"
     inkscape:cx="-6.4202879"
     inkscape:cy="1045.2075"
     inkscape:document-units="px"
     inkscape:current-layer="layer1"
     showgrid="false"
     inkscape:window-width="1920"
     inkscape:window-height="1028"
     inkscape:window-x="-8"
     inkscape:window-y="-8"
     inkscape:window-maximized="1" />
  <metadata
     id="metadata4313">
    <rdf:RDF>
      <cc:Work
         rdf:about="">
        <dc:format>image/svg+xml</dc:format>
        <dc:type
           rdf:resource="http://purl.org/dc/dcmitype/StillImage" />
        <dc:title></dc:title>
      </cc:Work>
    </rdf:RDF>
  </metadata>
  <g
     inkscape:label="Ebene 1"
     inkscape:groupmode="layer"
     id="layer1">
    <path
       style="fill:#000000"
       d="M -10.371315,9.9983562 -15,5.2581537 l 0,-5.63111245 0,-5.63111125 4.740204,-4.628685 4.7402023,-4.628685 5.63111245,0 5.63111125,0 4.628685,4.740204 L 15,-5.7810337 l 0,5.63111245 0,5.63111125 -4.740204,4.628685 -4.7402023,4.628685 -5.63111245,0 -5.63111125,0 -4.628685,-4.7402038 z M 9.6279913,9.4933512 13.75,5.4981425 l 0,-5.6327825 0,-5.6327825 -3.9952088,-4.1220088 -3.9952087,-4.1220087 -5.6327825,0 -5.6327825,0 -4.1220088,3.995209 -4.1220087,3.9952085 0,5.6327825 0,5.6327825 3.9952087,4.1220088 3.9952088,4.1220087 5.6327825,0 5.6327825,0 4.1220088,-3.9952088 z M -7.5,-0.26144 l 0,-3.75 7.5,0 7.5,0 0,1.0321075 c 0,0.5676588 -1.3018788,2.25515875 -2.8930637,3.75 L 1.7138725,3.48856 l -4.6069362,0 -4.6069363,0 0,-3.75 z"
       id="path4327"
       inkscape:connector-curvature="0" />
    <path
       style="fill:#a0a0a0;stroke:none;stroke-width:1px;stroke-linecap:butt;stroke-linejoin:miter;stroke-opacity:1"
       d="m -9.7083672,9.3673524 -3.9850188,-4.1134315 0.0056,-5.65663769 0.0056,-5.65663771 4.0938742,-3.9616925 4.0938742,-3.961692 5.61792678,0 5.61792682,0 3.9828168,4.107718 3.9828172,4.1077174 0,5.63259417 0,5.63259353 -4.1195287,3.9907106 -4.1195284,3.9907103 -5.59564658,7.39e-4 -5.59564662,7.4e-4 -3.9850189,-4.1134316 z M 3.5743306,1.7812286 C 5.8386665,-0.35176028 6.8515187,-1.4891049 7.33627,-2.4431018 7.5026952,-2.7706286 7.5198173,-2.8633878 7.5198173,-3.4374707 l 0,-0.633146 -7.5130096,0 -7.5130096,0 0,3.78807208 0,3.78807202 4.6250264,0 4.6250264,0 1.8304797,-1.7242988 z"
       id="path4329"
       inkscape:connector-curvature="0" />
  </g>
</svg>
