<?xml version="1.0" encoding="UTF-8" standalone="no"?>
<!-- Created with Inkscape (http://www.inkscape.org/) -->

<svg
   xmlns:dc="http://purl.org/dc/elements/1.1/"
   xmlns:cc="http://creativecommons.org/ns#"
   xmlns:rdf="http://www.w3.org/1999/02/22-rdf-syntax-ns#"
   xmlns:svg="http://www.w3.org/2000/svg"
   xmlns="http://www.w3.org/2000/svg"
   xmlns:sodipodi="http://sodipodi.sourceforge.net/DTD/sodipodi-0.dtd"
   xmlns:inkscape="http://www.inkscape.org/namespaces/inkscape"
   width="210mm"
   height="297mm"
   viewBox="0 0 744.09448819 1052.3622047"
   id="svg4343"
   version="1.1"
   inkscape:version="0.91 r13725"
   sodipodi:docname="icon_si_fabrication_bot.svg">
  <defs
     id="defs4345" />
  <sodipodi:namedview
     id="base"
     pagecolor="#ffffff"
     bordercolor="#666666"
     borderopacity="1.0"
     inkscape:pageopacity="0.0"
     inkscape:pageshadow="2"
     inkscape:zoom="31.678384"
     inkscape:cx="3.4541924"
     inkscape:cy="1052.2891"
     inkscape:document-units="px"
     inkscape:current-layer="layer1"
     showgrid="false"
     inkscape:window-width="1920"
     inkscape:window-height="1028"
     inkscape:window-x="-8"
     inkscape:window-y="-8"
     inkscape:window-maximized="1" />
  <metadata
     id="metadata4348">
    <rdf:RDF>
      <cc:Work
         rdf:about="">
        <dc:format>image/svg+xml</dc:format>
        <dc:type
           rdf:resource="http://purl.org/dc/dcmitype/StillImage" />
        <dc:title></dc:title>
      </cc:Work>
    </rdf:RDF>
  </metadata>
  <g
     inkscape:label="Ebene 1"
     inkscape:groupmode="layer"
     id="layer1">
    <g
       id="g4362">
      <path
         style="fill:#c8c8c8"
         d="m -6.123177,2.7380225 -2.525405,-4.9502025 0,-2.5497975 0,-2.5497975 8.75,0 8.75,0 0,2.5497975 0,2.5497975 -2.525405,4.9502025 -2.525405,4.9502025 -3.69919,0 -3.69919,0 z M 5.494903,2.0208163 c 1.1585825,-2.42957505 2.106515,-5.242075 2.106515,-6.25 l 0,-1.8325913 -7.5,0 -7.5,0 0,1.8325913 c 0,1.007925 0.9479325,3.82042495 2.106515,6.25 l 2.1065163,4.4174087 3.2869687,0 3.2869688,0 z m -4.208756,0.6182166 -2.4306797,-0.031567 0.031567,-2.46224743 -2.514986,-0.04880202 -0.031567,-2.36754495 2.4171116,-0.049567 0.1442694,-2.3539781 2.4062281,-0.05602 -0.05602,2.4377952 2.5759847,0.044099 0.015041,2.45715261 -2.3359778,0 z"
         id="path4364"
         inkscape:connector-curvature="0"
         sodipodi:nodetypes="cccccccccccccsscccsscccsccccccccccccc" />
    </g>
    <path
       style="stroke:#000000;stroke-width:0.03156727;stroke-opacity:1"
       d="M -3.3513676,6.0694897 C -3.443699,5.8740867 -3.9563953,4.7979718 -4.4906924,3.678123 -5.0249896,2.5582742 -5.5676676,1.4022939 -5.6966436,1.109278 -6.3211051,-0.30941342 -6.8876202,-1.8772115 -7.161297,-2.9440663 -7.3632924,-3.7314907 -7.3794245,-3.8854048 -7.3795668,-5.0265509 l -1.269e-4,-1.0180443 7.48144231,0 7.48144229,0 -1.263e-4,1.0180443 C 7.5829384,-3.9013431 7.565374,-3.7262261 7.3808182,-3.0085166 7.0797132,-1.8375649 6.5296413,-0.31740846 5.8579239,1.2000926 5.7119045,1.5299705 5.0974056,2.8368554 4.492371,4.1042812 l -1.1000628,2.3044105 -3.28789973,0.00804 -3.28789977,0.00804 -0.1678757,-0.3552782 -6e-7,0 z M 1.3013048,2.6064642 c 0,-0.060132 0.1895586,-2.13640982 0.2069326,-2.26657965 l 0.017907,-0.13416089 1.1710351,0 1.1710355,0 L 3.849521,-1.0128069 C 3.839239,-1.6829986 3.824469,-2.2376955 3.816698,-2.2454664 3.808928,-2.2532364 3.2306602,-2.2683104 2.5316606,-2.2789624 L 1.260752,-2.2983294 1.281176,-3.1692013 C 1.29241,-3.6481809 1.303204,-4.1963312 1.305164,-4.3873132 l 0.00356,-0.3472399 -0.35884312,0.00741 c -0.19736392,0.00408 -0.73849096,0.01633 -1.20250484,0.027233 l -0.84366114,0.019822 -0.015245,0.099036 c -0.00838,0.05447 -0.03734,0.496784 -0.064346,0.9829199 -0.027006,0.4861359 -0.057657,0.9726664 -0.068114,1.0811789 l -0.019013,0.1972954 -0.3857928,0 c -0.212186,0 -0.7503315,0.00938 -1.1958788,0.020845 l -0.8100859,0.020845 4.83e-4,1.1550359 c 2.525e-4,0.63526979 0.011074,1.17168605 0.024019,1.19203589 0.016923,0.02660584 0.3729215,0.04348012 1.2672364,0.06006651 l 1.2437011,0.0230662 -0.019875,1.2244501 -0.019875,1.2244501 0.1174397,0.012327 c 0.2650874,0.027824 2.3429324,0.021617 2.3429324,-0.007 z"
       id="path4368"
       inkscape:connector-curvature="0" />
  </g>
</svg>
