<?xml version="1.0" encoding="UTF-8" standalone="no"?>
<!-- Created with Inkscape (http://www.inkscape.org/) -->

<svg
   xmlns:dc="http://purl.org/dc/elements/1.1/"
   xmlns:cc="http://creativecommons.org/ns#"
   xmlns:rdf="http://www.w3.org/1999/02/22-rdf-syntax-ns#"
   xmlns:svg="http://www.w3.org/2000/svg"
   xmlns="http://www.w3.org/2000/svg"
   xmlns:sodipodi="http://sodipodi.sourceforge.net/DTD/sodipodi-0.dtd"
   xmlns:inkscape="http://www.inkscape.org/namespaces/inkscape"
   width="210mm"
   height="297mm"
   viewBox="0 0 744.09448819 1052.3622047"
   id="svg3487"
   version="1.1"
   inkscape:version="0.91 r13725"
   sodipodi:docname="icon_si_radar_satellite.svg">
  <defs
     id="defs3489" />
  <sodipodi:namedview
     id="base"
     pagecolor="#ffffff"
     bordercolor="#666666"
     borderopacity="1.0"
     inkscape:pageopacity="0.0"
     inkscape:pageshadow="2"
     inkscape:zoom="15.839192"
     inkscape:cx="0.15339054"
     inkscape:cy="1049.2216"
     inkscape:document-units="px"
     inkscape:current-layer="layer1"
     showgrid="false"
     inkscape:window-width="1920"
     inkscape:window-height="1028"
     inkscape:window-x="-8"
     inkscape:window-y="-8"
     inkscape:window-maximized="1" />
  <metadata
     id="metadata3492">
    <rdf:RDF>
      <cc:Work
         rdf:about="">
        <dc:format>image/svg+xml</dc:format>
        <dc:type
           rdf:resource="http://purl.org/dc/dcmitype/StillImage" />
        <dc:title></dc:title>
      </cc:Work>
    </rdf:RDF>
  </metadata>
  <g
     inkscape:label="Ebene 1"
     inkscape:groupmode="layer"
     id="layer1">
    <path
       style="fill:#000000"
       d="m -9.699111,17.753465 -4.331727,-2.198813 -2.668273,-4.032033 -2.668273,-4.032033 0,-7.658528 0,-7.658529 2.86163,-4.129333 2.86163,-4.129334 4.204094,-2.035167 4.204095,-2.035167 5.368551,0 5.368551,0 4.204095,2.035167 4.204094,2.035167 2.820976,4.07067 2.820976,4.07067 0.403978,6.344344 0.403977,6.344343 -2.234472,4.615803 -2.234472,4.615804 -4.018336,2.659209 -4.018336,2.659209 -6.610516,0.328682 -6.610515,0.328682 -4.331727,-2.198813 z m 17.113846,-1.285776 3.217881,-1.376839 2.686382,-2.873161 c 1.477509,-1.580239 3.165009,-4.139956 3.75,-5.688261 l 1.063618,-2.815099 0,-3.967019 0,-3.967019 -1.376839,-3.217882 -1.376839,-3.217881 -2.873161,-2.686382 c -1.580239,-1.477509 -4.139956,-3.16501 -5.688261,-3.75 l -2.815099,-1.063618 -3.967019,0 -3.967019,0 -3.217882,1.376839 -3.217881,1.376839 -2.686382,2.873161 c -1.477509,1.580239 -3.165009,4.139956 -3.75,5.688261 l -1.063618,2.815099 0,3.869801 0,3.869801 1.063618,2.815099 c 0.584991,1.548305 2.272491,4.107403 3.75,5.686884 l 2.686382,2.871783 3,1.339075 3,1.339074 4.282119,0.03914 4.282118,0.03914 3.217882,-1.376839 z m -14.882119,-9.023161 -3.4,-3.4 0,-4.2 0,-4.2 3.4,-3.4 3.4,-3.4 4.2,0 4.2,0 3.4,3.4 3.4,3.4 0,4.2 0,4.2 -3.4,3.4 -3.4,3.4 -4.2,0 -4.2,0 -3.4,-3.4 z m 14.676923,-0.523077 2.923077,-2.923077 0,-4.153846 0,-4.153846 -2.923077,-2.923077 -2.923077,-2.923077 -4.153846,0 -4.153846,0 -2.923077,2.923077 -2.923077,2.923077 0,4.153846 0,4.153846 2.923077,2.923077 2.923077,2.923077 4.153846,0 4.153846,0 2.923077,-2.923077 z M -5.879649,-3.132554 c 1.193641,-2.230338 4.086413,-4.022918 6.491978,-4.022918 l 1.611196,0 2.560606,2.560606 2.560606,2.560606 -0.629061,0.629062 -0.629062,0.629061 -1.533703,-2.189667 -1.533703,-2.189668 -2.934822,0 -2.934822,0 -1.249021,2 c -0.686961,1.1 -1.606607,2 -2.043658,2 l -0.794637,0 1.058103,-1.977082 z"
       id="path3506"
       inkscape:connector-curvature="0" />
    <path
       style="fill:#a0a0a0;stroke:none;stroke-width:1px;stroke-linecap:butt;stroke-linejoin:miter;stroke-opacity:1"
       d="M -3.9316406 -18.123047 L -7.140625 -16.75 L -10.349609 -15.376953 L -11.818359 -13.798828 C -13.895817 -11.568391 -14.273509 -11.10689 -15.304688 -9.53125 C -16.114063 -8.2945246 -16.581009 -7.3442221 -17.25 -5.5722656 L -17.853516 -3.9746094 L -17.853516 -0.15625 L -17.853516 3.6640625 L -17.279297 5.1914062 C -16.651675 6.8624588 -16.264574 7.6849164 -15.611328 8.7421875 C -14.605015 10.370896 -13.888873 11.270405 -11.855469 13.449219 L -10.347656 15.0625 L -7.3925781 16.384766 L -4.4355469 17.705078 L -2.6367188 17.738281 C -1.6470848 17.756691 0.29854027 17.780462 1.6875 17.789062 L 4.2128906 17.804688 L 7.4140625 16.435547 L 10.615234 15.066406 L 12.113281 13.460938 C 14.09791 11.334277 14.80546 10.453588 15.796875 8.875 C 16.48535 7.7787686 16.854505 7.0055923 17.501953 5.296875 L 18.134766 3.6269531 L 18.134766 -0.25585938 L 18.134766 -4.1386719 L 16.740234 -7.3925781 L 15.345703 -10.648438 L 13.597656 -12.271484 C 11.698579 -14.036069 11.000197 -14.606903 9.6308594 -15.513672 C 8.3600692 -16.355182 7.2823331 -16.889644 5.5253906 -17.548828 L 3.9941406 -18.123047 L 0.03125 -18.123047 L -3.9316406 -18.123047 z M -4.1210938 -11.177734 L 0.109375 -11.177734 L 4.3398438 -11.177734 L 7.7636719 -7.7539062 L 11.189453 -4.328125 L 11.189453 -0.16015625 L 11.189453 4.0058594 L 7.7636719 7.4316406 L 4.3378906 10.855469 L 0.109375 10.855469 L -4.1210938 10.855469 L -7.5136719 7.4628906 L -10.908203 4.0683594 L -10.908203 -0.16210938 L -10.908203 -4.390625 L -7.5136719 -7.7851562 L -4.1210938 -11.177734 z M -3.9941406 -10.105469 L -6.9140625 -7.1855469 L -9.8339844 -4.265625 L -9.8339844 -0.13085938 L -9.8339844 4.0058594 L -6.9140625 6.9257812 L -3.9941406 9.8457031 L 0.109375 9.8457031 L 4.2128906 9.8457031 L 7.1640625 6.8945312 L 10.115234 3.9433594 L 10.115234 -0.16015625 L 10.115234 -4.2636719 L 7.1972656 -7.1855469 L 4.2773438 -10.105469 L 0.140625 -10.105469 L -3.9941406 -10.105469 z M 2.2167969 -7.2167969 L 4.7773438 -4.6621094 C 6.1858581 -3.2569637 7.3378906 -2.0811411 7.3378906 -2.0488281 C 7.3378906 -2.0165158 7.0598832 -1.7129074 6.7207031 -1.375 C 6.3815229 -1.0370926 6.0909597 -0.76250388 6.0742188 -0.76367188 C 6.057478 -0.76484239 5.3626727 -1.7431913 4.5292969 -2.9394531 L 3.0136719 -5.1152344 L 0.091796875 -5.1171875 L -2.8300781 -5.1171875 L -3.1289062 -4.640625 C -4.4260697 -2.5613792 -4.9499136 -1.8651315 -5.5546875 -1.4199219 C -5.9279227 -1.1451576 -5.941772 -1.140625 -6.4316406 -1.140625 C -6.7056126 -1.140625 -6.9298327 -1.161457 -6.9296875 -1.1875 C -6.9291795 -1.279631 -5.7885124 -3.3653043 -5.53125 -3.7441406 C -4.7648347 -4.8727369 -3.327645 -6.0179851 -1.9355469 -6.609375 C -0.93782421 -7.0332266 -0.35332268 -7.1470978 1.0039062 -7.1835938 L 2.2167969 -7.2167969 z "
       id="path3508" />
  </g>
</svg>
