<?xml version="1.0" encoding="UTF-8" standalone="no"?>
<!-- Created with Inkscape (http://www.inkscape.org/) -->

<svg
   xmlns:dc="http://purl.org/dc/elements/1.1/"
   xmlns:cc="http://creativecommons.org/ns#"
   xmlns:rdf="http://www.w3.org/1999/02/22-rdf-syntax-ns#"
   xmlns:svg="http://www.w3.org/2000/svg"
   xmlns="http://www.w3.org/2000/svg"
   xmlns:sodipodi="http://sodipodi.sourceforge.net/DTD/sodipodi-0.dtd"
   xmlns:inkscape="http://www.inkscape.org/namespaces/inkscape"
   width="210mm"
   height="297mm"
   viewBox="0 0 744.09448819 1052.3622047"
   id="svg3412"
   version="1.1"
   inkscape:version="0.91 r13725"
   sodipodi:docname="icon_si_orbital_launcher.svg">
  <defs
     id="defs3414" />
  <sodipodi:namedview
     id="base"
     pagecolor="#ffffff"
     bordercolor="#666666"
     borderopacity="1.0"
     inkscape:pageopacity="0.0"
     inkscape:pageshadow="2"
     inkscape:zoom="11.2"
     inkscape:cx="4.5809627"
     inkscape:cy="1047.9057"
     inkscape:document-units="px"
     inkscape:current-layer="layer1"
     showgrid="false"
     inkscape:window-width="1920"
     inkscape:window-height="1028"
     inkscape:window-x="-8"
     inkscape:window-y="-8"
     inkscape:window-maximized="1" />
  <metadata
     id="metadata3417">
    <rdf:RDF>
      <cc:Work
         rdf:about="">
        <dc:format>image/svg+xml</dc:format>
        <dc:type
           rdf:resource="http://purl.org/dc/dcmitype/StillImage" />
        <dc:title></dc:title>
      </cc:Work>
    </rdf:RDF>
  </metadata>
  <g
     inkscape:label="Ebene 1"
     inkscape:groupmode="layer"
     id="layer1">
    <path
       style="fill:#000000"
       d="m -14.601872,15.052817 -5.89051,-5.9804365 0,-9.37905375 0,-9.37905375 5.980436,-5.89051 5.9804365,-5.89051 9.37905375,0 9.37905375,0 5.89051,5.980436 5.89051,5.9804365 0,9.37905375 0,9.37905375 -5.980436,5.89051 -5.980436,5.89051 -9.37905425,0 -9.37905375,0 -5.89051,-5.980436 z m 28.84923,-1.879379 5.26026,-5.3598137 0,-8.1299263 0,-8.129925 -5.359815,-5.26026 -5.3598137,-5.26026 -8.0303713,0 -8.0303712,0 -5.3598138,5.26026 -5.359815,5.26026 0,8.129925 0,8.1299263 5.26026,5.3598137 5.26026,5.359815 8.22948,0 8.22948,0 5.26026,-5.359815 z m -19.11474,0.481248 c -1.375,-0.60392 -3.90625,-2.611118 -5.625,-4.4604392 l -3.125,-3.3624038 0,-6.12525625 0,-6.12525625 4.0865388,-4.0865385 4.0865387,-4.086539 6.2019225,0 6.2019225,0 4.0865385,4.086539 4.086539,4.0865385 0,6.2019225 0,6.2019225 -3.866725,3.8667262 -3.866725,3.8667253 -4.883275,0.517046 -4.883275,0.517047 -2.5,-1.098035 z M 7.0485343,11.637094 10.715301,9.7409355 12.611459,6.0741693 c 2.39681,-4.63492 2.39681,-7.9469125 0,-12.5818325 l -1.896158,-3.6667658 -3.6667667,-1.896159 c -2.0167213,-1.042888 -4.8476338,-1.896159 -6.2909163,-1.896159 -1.4432825,0 -4.274195,0.853271 -6.2909163,1.896159 l -3.6667662,1.896158 -1.8961585,3.6667668 c -2.395452,4.6322912 -2.396888,7.9467649 -0.0055,12.5713025 l 1.8907122,3.6562362 3.4217876,1.8566425 3.4218412,1.856641 2.874575,0.05005 2.874575,0.05005 3.6667663,-1.896159 z M -2.992382,3.533253 c -1.375,-1.375 -2.5,-3.0625 -2.5,-3.75 0,-0.6875 1.125,-2.375 2.5,-3.75 1.375,-1.375 3.0625,-2.5 3.75,-2.5 0.6875,0 2.375,1.125 3.75,2.5 1.375,1.375 2.5,3.0625 2.5,3.75 0,0.6875 -1.125,2.375 -2.5,3.75 -1.375,1.375 -3.0625,2.5 -3.75,2.5 -0.6875,0 -2.375,-1.125 -3.75,-2.5 z"
       id="path3431"
       inkscape:connector-curvature="0" />
    <path
       style="fill:#a0a0a0;stroke:none;stroke-width:1px;stroke-linecap:butt;stroke-linejoin:miter;stroke-opacity:1"
       d="M -7.2675781 -18.912109 L -12.601562 -13.677734 L -17.9375 -8.4433594 L -17.933594 -0.31054688 L -17.927734 7.8222656 L -12.691406 13.158203 L -7.4550781 18.492188 L 0.76367188 18.488281 L 8.9824219 18.484375 L 14.222656 13.154297 L 19.462891 7.8222656 L 19.466797 -0.30273438 L 19.470703 -8.4277344 L 14.136719 -13.667969 L 8.8046875 -18.908203 L 0.76757812 -18.910156 L -7.2675781 -18.912109 z M -5.4804688 -14.632812 L 0.76953125 -14.632812 L 7.0195312 -14.632812 L 11.103516 -10.546875 L 15.1875 -6.4628906 L 15.1875 -0.21289062 L 15.1875 6.0371094 L 11.326172 9.8964844 L 7.4648438 13.753906 L 2.7773438 14.246094 C 0.19921875 14.517048 -2.0158268 14.751738 -2.1445312 14.767578 C -2.3864831 14.797363 -4.8143187 13.766962 -5.6601562 13.275391 C -7.2589563 12.346226 -9.2341645 10.611858 -11.660156 8.0039062 L -13.650391 5.8632812 L -13.650391 -0.30078125 L -13.650391 -6.4648438 L -9.5664062 -10.548828 L -5.4804688 -14.632812 z M 1.0722656 -13.888672 C 0.015009041 -13.944832 -1.0503866 -13.726062 -2.7988281 -13.148438 C -4.0157192 -12.746418 -4.8872566 -12.349255 -7.2773438 -11.115234 L -9.1601562 -10.144531 L -10.277344 -7.9902344 C -11.566342 -5.505903 -11.853169 -4.8767585 -12.263672 -3.6230469 C -13.099665 -1.0698487 -13.016511 1.310442 -11.998047 3.9609375 C -11.725139 4.6711634 -10.374464 7.4247862 -9.4472656 9.1621094 L -9.1601562 9.6972656 L -5.7851562 11.527344 L -2.4082031 13.357422 L -0.77539062 13.40625 C 0.12260313 13.43248 1.4199219 13.462116 2.1074219 13.472656 L 3.3574219 13.492188 L 7.03125 11.595703 L 10.705078 9.6972656 L 12.054688 7.0195312 C 13.422291 4.305892 13.866004 3.1975724 14.158203 1.7617188 C 14.393302 0.60644018 14.425201 -0.44913976 14.257812 -1.5839844 C 14.006036 -3.2909487 13.538903 -4.5346675 12.035156 -7.5039062 L 10.695312 -10.150391 L 8.1425781 -11.439453 C 5.4043692 -12.822915 3.9944767 -13.365603 2.1523438 -13.744141 C 1.7770004 -13.821269 1.4246845 -13.869952 1.0722656 -13.888672 z M 0.78515625 -6.5078125 C 1.8553259 -6.5080782 4.8573825 -4.0010259 6.1972656 -1.9882812 C 6.9544674 -0.8508286 7.1272714 -0.37997545 6.9765625 0.12304688 C 6.76235 0.83802278 5.9059894 2.0919035 4.8554688 3.2265625 C 3.8100652 4.3556946 2.0919161 5.6541272 1.25 5.9511719 C 0.80619824 6.1077595 0.68735893 6.107716 0.265625 5.9570312 C -0.93512232 5.5280079 -3.1693254 3.6146384 -4.4355469 1.9296875 C -5.0220466 1.1492375 -5.5254799 0.16262589 -5.5253906 -0.203125 C -5.5252052 -0.93561786 -4.4981682 -2.4608165 -2.9882812 -3.9707031 C -1.4737178 -5.4852671 0.04710982 -6.507625 0.78515625 -6.5078125 z "
       id="path3433" />
  </g>
</svg>
