<?xml version="1.0" encoding="UTF-8" standalone="no"?>
<!-- Created with Inkscape (http://www.inkscape.org/) -->

<svg
   xmlns:dc="http://purl.org/dc/elements/1.1/"
   xmlns:cc="http://creativecommons.org/ns#"
   xmlns:rdf="http://www.w3.org/1999/02/22-rdf-syntax-ns#"
   xmlns:svg="http://www.w3.org/2000/svg"
   xmlns="http://www.w3.org/2000/svg"
   xmlns:sodipodi="http://sodipodi.sourceforge.net/DTD/sodipodi-0.dtd"
   xmlns:inkscape="http://www.inkscape.org/namespaces/inkscape"
   width="210mm"
   height="297mm"
   viewBox="0 0 744.09448819 1052.3622047"
   id="svg3807"
   version="1.1"
   inkscape:version="0.91 r13725"
   sodipodi:docname="icon_si_bot_factory_adv.svg">
  <defs
     id="defs3809" />
  <sodipodi:namedview
     id="base"
     pagecolor="#ffffff"
     bordercolor="#666666"
     borderopacity="1.0"
     inkscape:pageopacity="0.0"
     inkscape:pageshadow="2"
     inkscape:zoom="11.2"
     inkscape:cx="-17.190483"
     inkscape:cy="1039.4887"
     inkscape:document-units="px"
     inkscape:current-layer="layer1"
     showgrid="false"
     inkscape:window-width="1920"
     inkscape:window-height="1028"
     inkscape:window-x="-8"
     inkscape:window-y="-8"
     inkscape:window-maximized="1" />
  <metadata
     id="metadata3812">
    <rdf:RDF>
      <cc:Work
         rdf:about="">
        <dc:format>image/svg+xml</dc:format>
        <dc:type
           rdf:resource="http://purl.org/dc/dcmitype/StillImage" />
        <dc:title></dc:title>
      </cc:Work>
    </rdf:RDF>
  </metadata>
  <g
     inkscape:label="Ebene 1"
     inkscape:groupmode="layer"
     id="layer1">
    <g
       id="g3826">
      <path
         style="fill:#c8c8c8"
         d="m -12.066427,12.687695 -5.26026,-5.3598137 0,-6.8799263 0,-6.879925 5.359815,-5.26026 5.3598138,-5.26026 6.7803712,0 6.7803713,0 5.3598137,5.26026 5.359815,5.26026 0,6.879925 0,6.8799263 -5.26026,5.3598137 -5.26026,5.359815 -6.97948,0 -6.97948,0 -5.26026,-5.359815 z m 9.3466763,1.391922 2.8930637,-2.717892 3.1436813,2.953335 3.1436812,2.953335 4.9813185,-4.864127 4.981319,-4.864128 0,-6.88111125 0,-6.88111245 -4.628685,-4.7402023 -4.628685,-4.740204 -6.88111125,0 -6.88111245,0 -4.7402023,4.628685 -4.740204,4.628685 0,6.88111125 0,6.88111245 4.628685,4.7402023 c 2.5457762,2.607113 4.9001475,4.740204 5.2319363,4.740204 0.3317874,0 1.90513,-1.223051 3.496315,-2.717893 z M -3.3760432,1.1136937 C -5.3736195,-3.2705088 -5.4295545,-3.20249 0.173313,-3.20249 c 5.6028675,0 5.5469325,-0.068013 3.5493563,4.3161837 L 2.2720255,4.29751 l -2.0987125,0 -2.0987125,0 -1.4506437,-3.1838163 z M 1.673313,15.29751 l -1.5,-1.5 -1.5,1.5 -1.5,1.5 3,0 3,0 -1.5,-1.5 z"
         id="path3828"
         inkscape:connector-curvature="0" />
    </g>
    <path
       style="fill:#a0a0a0;stroke:none;stroke-width:1px;stroke-linecap:butt;stroke-linejoin:miter;stroke-opacity:1"
       d="M -6.5878906 -15.679688 L -11.316406 -11.058594 L -16.046875 -6.4394531 L -16.046875 0.453125 L -16.046875 7.3457031 L -11.962891 11.443359 C -8.0693998 15.35058 -6.5672687 16.730469 -6.203125 16.730469 C -5.7907785 16.730469 -4.2583889 15.489887 -1.6386719 13.03125 C -0.66291294 12.11549 0.1655214 11.378168 0.203125 11.392578 C 0.24072857 11.406983 1.6524956 12.713109 3.3398438 14.296875 C 5.0271928 15.88064 6.444084 17.165124 6.4882812 17.150391 C 6.5324776 17.135658 8.7719141 14.976399 11.464844 12.351562 L 16.359375 7.578125 L 16.359375 0.66015625 L 16.357422 -6.2597656 L 11.753906 -10.970703 L 7.1503906 -15.679688 L 0.28125 -15.679688 L -6.5878906 -15.679688 z M 0.203125 -3.2597656 C 2.0848868 -3.2596863 3.9665464 -3.1627576 4.4355469 -2.9667969 C 4.6566969 -2.8743942 4.8029138 -2.733779 4.8867188 -2.5332031 C 5.1117098 -1.9947245 4.9297594 -1.4779183 3.0996094 2.5566406 L 2.3007812 4.3183594 L 0.18554688 4.3183594 C -0.97784955 4.3187104 -1.9487601 4.2907363 -1.9707031 4.2539062 C -1.9926451 4.2170759 -2.5019495 3.1012835 -3.1035156 1.7753906 C -4.8938388 -2.1706013 -4.9719228 -2.5729434 -4.0292969 -2.9667969 C -3.5603911 -3.1627179 -1.6786368 -3.259845 0.203125 -3.2597656 z M 0.203125 13.830078 L -1.2480469 15.279297 L -2.6992188 16.730469 L 0.203125 16.730469 L 3.1035156 16.730469 L 1.6523438 15.279297 L 0.203125 13.830078 z "
       id="path3832" />
  </g>
</svg>
