<?xml version="1.0" encoding="UTF-8" standalone="no"?>
<!-- Created with Inkscape (http://www.inkscape.org/) -->

<svg
   xmlns:dc="http://purl.org/dc/elements/1.1/"
   xmlns:cc="http://creativecommons.org/ns#"
   xmlns:rdf="http://www.w3.org/1999/02/22-rdf-syntax-ns#"
   xmlns:svg="http://www.w3.org/2000/svg"
   xmlns="http://www.w3.org/2000/svg"
   xmlns:sodipodi="http://sodipodi.sourceforge.net/DTD/sodipodi-0.dtd"
   xmlns:inkscape="http://www.inkscape.org/namespaces/inkscape"
   width="210mm"
   height="297mm"
   viewBox="0 0 744.09448819 1052.3622047"
   id="svg3565"
   version="1.1"
   inkscape:version="0.91 r13725"
   sodipodi:docname="icon_si_solar_array.svg">
  <defs
     id="defs3567" />
  <sodipodi:namedview
     id="base"
     pagecolor="#ffffff"
     bordercolor="#666666"
     borderopacity="1.0"
     inkscape:pageopacity="0.0"
     inkscape:pageshadow="2"
     inkscape:zoom="11.2"
     inkscape:cx="-7.3276772"
     inkscape:cy="1055.6302"
     inkscape:document-units="px"
     inkscape:current-layer="layer1"
     showgrid="false"
     inkscape:window-width="1920"
     inkscape:window-height="1028"
     inkscape:window-x="-8"
     inkscape:window-y="-8"
     inkscape:window-maximized="1" />
  <metadata
     id="metadata3570">
    <rdf:RDF>
      <cc:Work
         rdf:about="">
        <dc:format>image/svg+xml</dc:format>
        <dc:type
           rdf:resource="http://purl.org/dc/dcmitype/StillImage" />
        <dc:title></dc:title>
      </cc:Work>
    </rdf:RDF>
  </metadata>
  <g
     inkscape:label="Ebene 1"
     inkscape:groupmode="layer"
     id="layer1">
    <path
       style="fill:#000000"
       d="m -10.903155,17.056854 -4.331727,-2.198813 -2.668273,-4.032033 -2.668273,-4.032033 0,-7.658528 0,-7.658529 2.86163,-4.129333 2.86163,-4.129334 4.204094,-2.035167 4.204095,-2.035167 5.368551,0 5.368551,0 4.204095,2.035167 4.204094,2.035167 2.820976,4.07067 2.820976,4.07067 0.403978,6.344344 0.403977,6.344343 -2.234472,4.615803 -2.234472,4.615804 -4.018336,2.659209 -4.018336,2.659209 -6.610516,0.328682 -6.610515,0.328682 -4.331727,-2.198813 z m 17.113846,-1.285776 3.217881,-1.376839 2.686382,-2.873161 c 1.477509,-1.580239 3.165009,-4.139956 3.75,-5.688261 l 1.063618,-2.815099 0,-3.967019 0,-3.967019 -1.376839,-3.217882 -1.376839,-3.217881 -2.873161,-2.686382 c -1.580239,-1.477509 -4.139956,-3.165009 -5.688261,-3.75 l -2.815099,-1.063618 -3.967019,0 -3.967019,0 -3.217882,1.376839 -3.217881,1.376839 -2.686382,2.873161 c -1.477509,1.580239 -3.16501,4.139956 -3.75,5.688261 l -1.063618,2.815099 0,3.869801 0,3.869801 1.063618,2.815099 c 0.58499,1.548305 2.272491,4.107403 3.75,5.686884 l 2.686382,2.871783 3,1.339075 3,1.339074 4.282119,0.03914 4.282118,0.03914 3.217882,-1.376839 z m -13.98357,-5.582677 -3.201452,-1.952039 -1.548548,-2.994563 -1.548549,-2.994562 0.0037,-3.29966 0.0037,-3.29966 1.95204,-3.201451 1.952039,-3.201452 2.994563,-1.548548 2.994638,-1.548549 3.09932,0 3.09932,0 2.994562,1.548549 2.994563,1.548548 1.952039,3.201452 1.95204,3.201451 0,3.5 0,3.5 -1.95204,3.201451 -1.952039,3.201452 -2.994563,1.548548 -2.994562,1.548549 -3.29966,-0.0037 -3.29966,-0.0037 -3.201451,-1.95204 z M 1.150794,8.925695 -1.071428,6.703473 -3.29365,8.925695 l -2.222222,2.222222 4.444444,0 4.444444,0 -2.222222,-2.222222 z m 0.527778,-1.527928 2.75,2.624032 1.750022,-0.986643 1.750022,-0.986644 1.499978,-2.900637 1.499978,-2.900638 0,-3.09932 0,-3.09932 -1.516927,-2.933413 -1.516927,-2.933413 -2.933413,-1.516927 -2.933413,-1.516927 -3.09932,0 -3.09932,0 -2.933413,1.516927 -2.933413,1.516927 -1.516927,2.933413 -1.516927,2.933413 0,3.09932 0,3.09932 1.499978,2.900638 1.499978,2.900637 1.750022,0.986644 1.750022,0.986643 2.75,-2.624032 2.75,-2.624032 2.75,2.624032 z m -5.25,-7.24985 1.55136,-3 -1.680667,0 -1.680668,0 1.809975,-2 1.809975,-2 2.5,0 2.5,0 -1.809975,2 -1.809975,2 1.342079,0 1.342078,0 -2.874182,3 c -1.5808,1.65 -3.251547,3 -3.712771,3 l -0.838589,0 1.55136,-3 z"
       id="path3584"
       inkscape:connector-curvature="0" />
    <path
       style="fill:#a0a0a0;stroke:none;stroke-width:1px;stroke-linecap:butt;stroke-linejoin:miter;stroke-opacity:1"
       d="M -5.1582031 -18.791016 L -8.3535156 -17.425781 L -11.548828 -16.0625 L -12.988281 -14.517578 C -14.837264 -12.533283 -15.419307 -11.832169 -16.269531 -10.564453 C -17.267176 -9.0769261 -17.692602 -8.2411553 -18.408203 -6.359375 L -19.041016 -4.6914062 L -19.041016 -0.85351562 L -19.041016 2.984375 L -18.455078 4.53125 C -17.782938 6.3040679 -17.192639 7.4848084 -16.339844 8.7597656 C -15.476063 10.051147 -14.945132 10.695523 -13.169922 12.613281 L -11.585938 14.324219 L -8.640625 15.648438 L -5.6933594 16.972656 L -3.7285156 17.021484 C -2.6481585 17.047884 -0.69977679 17.078634 0.6015625 17.089844 L 2.9667969 17.109375 L 6.1699219 15.746094 L 9.3710938 14.384766 L 10.923828 12.724609 C 12.699236 10.826402 13.400888 9.9664807 14.308594 8.5800781 C 15.157077 7.2841325 15.669055 6.2457474 16.316406 4.5117188 L 16.851562 3.0820312 L 16.851562 -0.95507812 L 16.851562 -4.9902344 L 15.492188 -8.1601562 L 14.130859 -11.330078 L 12.433594 -12.910156 C 10.097621 -15.082434 9.4308566 -15.606154 7.5566406 -16.738281 C 6.4840156 -17.386204 6.1814054 -17.524903 4.28125 -18.248047 L 2.8691406 -18.785156 L -1.1445312 -18.789062 L -5.1582031 -18.791016 z M -4.2285156 -13.875 L -1.0761719 -13.875 L 2.0761719 -13.875 L 5.0625 -12.332031 L 8.0488281 -10.787109 L 9.9882812 -7.6210938 L 11.927734 -4.4550781 L 11.933594 -0.87304688 L 11.939453 2.7070312 L 9.9921875 5.8964844 L 8.0449219 9.0839844 L 5.0410156 10.640625 L 2.0390625 12.197266 L -1.2929688 12.189453 L -4.6230469 12.181641 L -7.7460938 10.267578 C -9.4644223 9.2143441 -10.918893 8.3022395 -10.976562 8.2421875 C -11.034236 8.1821348 -11.766514 6.8058469 -12.605469 5.1816406 L -14.130859 2.2285156 L -14.130859 -1.0507812 L -14.130859 -4.3300781 L -12.158203 -7.5625 L -10.183594 -10.794922 L -7.2070312 -12.333984 L -4.2285156 -13.875 z M -1.0722656 -12.802734 L -4.1757812 -12.800781 L -7.0332031 -11.324219 C -8.6046317 -10.511935 -9.9353514 -9.7988824 -9.9902344 -9.7402344 C -10.045117 -9.6815865 -10.75745 -8.3403401 -11.574219 -6.7597656 L -13.060547 -3.8867188 L -13.060547 -0.859375 L -13.060547 2.1660156 L -11.539062 5.1054688 L -10.017578 8.0449219 L -8.3027344 9.0019531 L -6.5878906 9.9570312 L -6.3203125 9.7050781 C -6.1725058 9.5658593 -4.9472486 8.3997282 -3.5976562 7.1152344 C -2.2480633 5.8307407 -1.0973817 4.7910098 -1.0410156 4.8046875 C -0.98465046 4.8183652 0.27051026 5.9868691 1.7480469 7.4003906 L 4.4335938 9.9707031 L 6.1113281 9.0234375 C 7.0336361 8.5027116 7.8321107 8.0286781 7.8867188 7.9707031 C 7.9413267 7.912729 8.6353302 6.606132 9.4277344 5.0664062 L 10.869141 2.2675781 L 10.865234 -0.87109375 L 10.863281 -4.0097656 L 9.3613281 -6.8964844 L 7.859375 -9.7851562 L 4.9453125 -11.294922 L 2.0332031 -12.802734 L -1.0722656 -12.802734 z M -1.7773438 -6.9101562 L 0.75195312 -6.9101562 C 2.142421 -6.9101563 3.2792969 -6.8916675 3.2792969 -6.8671875 C 3.2792969 -6.8427074 2.4966517 -5.9603362 1.5390625 -4.90625 C 0.58147316 -3.8521638 -0.203125 -2.9677513 -0.203125 -2.9414062 C -0.203125 -2.9150614 0.36309553 -2.8925781 1.0546875 -2.8925781 C 1.8215679 -2.8925781 2.3013541 -2.8590606 2.2832031 -2.8066406 C 2.2257245 -2.6406406 -1.5059817 1.1649889 -2.2441406 1.8105469 C -2.6546612 2.1695674 -3.2305379 2.6234178 -3.5253906 2.8203125 C -3.9994004 3.1368435 -4.1232144 3.1777344 -4.5878906 3.1777344 C -4.8769375 3.1777344 -5.1132812 3.1464559 -5.1132812 3.1074219 C -5.1132812 3.0683871 -4.4404057 1.7324497 -3.6171875 0.13867188 L -2.1191406 -2.7597656 L -3.7578125 -2.7832031 C -4.6584184 -2.7965769 -5.3812374 -2.8436207 -5.3652344 -2.8867188 C -5.3492311 -2.9298169 -4.5355924 -3.8522315 -3.5566406 -4.9375 L -1.7773438 -6.9101562 z M -1.0527344 6.75 L -3.2382812 8.9375 L -5.4238281 11.125 L -1.0722656 11.125 C 1.3213317 11.125 3.2792969 11.114213 3.2792969 11.101562 C 3.2792969 11.088909 2.3045017 10.104539 1.1132812 8.9140625 L -1.0527344 6.75 z "
       id="path3591" />
  </g>
</svg>
