<?xml version="1.0" encoding="UTF-8" standalone="no"?>
<!-- Created with Inkscape (http://www.inkscape.org/) -->

<svg
   xmlns:dc="http://purl.org/dc/elements/1.1/"
   xmlns:cc="http://creativecommons.org/ns#"
   xmlns:rdf="http://www.w3.org/1999/02/22-rdf-syntax-ns#"
   xmlns:svg="http://www.w3.org/2000/svg"
   xmlns="http://www.w3.org/2000/svg"
   xmlns:sodipodi="http://sodipodi.sourceforge.net/DTD/sodipodi-0.dtd"
   xmlns:inkscape="http://www.inkscape.org/namespaces/inkscape"
   width="210mm"
   height="297mm"
   viewBox="0 0 744.09448819 1052.3622047"
   id="svg3453"
   version="1.1"
   inkscape:version="0.91 r13725"
   sodipodi:docname="icon_si_mining_platform.svg">
  <defs
     id="defs3455" />
  <sodipodi:namedview
     id="base"
     pagecolor="#ffffff"
     bordercolor="#666666"
     borderopacity="1.0"
     inkscape:pageopacity="0.0"
     inkscape:pageshadow="2"
     inkscape:zoom="11.2"
     inkscape:cx="-1.040507"
     inkscape:cy="1051.7839"
     inkscape:document-units="px"
     inkscape:current-layer="layer1"
     showgrid="false"
     inkscape:window-width="1920"
     inkscape:window-height="1028"
     inkscape:window-x="-8"
     inkscape:window-y="-8"
     inkscape:window-maximized="1" />
  <metadata
     id="metadata3458">
    <rdf:RDF>
      <cc:Work
         rdf:about="">
        <dc:format>image/svg+xml</dc:format>
        <dc:type
           rdf:resource="http://purl.org/dc/dcmitype/StillImage" />
        <dc:title></dc:title>
      </cc:Work>
    </rdf:RDF>
  </metadata>
  <g
     inkscape:label="Ebene 1"
     inkscape:groupmode="layer"
     id="layer1">
    <path
       style="fill:#000000"
       d="m -11.25343,20.478608 -4.248355,-2.155272 -2.653183,-3.146311 c -1.459251,-1.730471 -3.304524,-4.700939 -4.100607,-6.601041 l -1.447423,-3.454729 0.360325,-7.135471 0.360325,-7.135471 2.747175,-4.151261 2.747174,-4.151262 4.168433,-2.758538 4.168433,-2.758538 8.646058,0 8.646058,0 4.168433,2.758538 4.168433,2.758538 2.758538,4.168433 2.758538,4.168433 0,8.646058 0,8.646058 -2.758538,4.168433 -2.758538,4.168433 -4.168341,2.758538 -4.168341,2.758538 -7.573121,0.301583 -7.573121,0.301582 -4.248355,-2.155271 z m 20.849818,-2.732239 5.329847,-2.784345 2.784345,-5.329847 2.784345,-5.329846 0,-4.771617 0,-4.771617 -2.784345,-5.329846 -2.784345,-5.329847 -5.329847,-2.784345 -5.329846,-2.784345 -4.771617,0 -4.771617,0 -5.329846,2.784345 -5.329847,2.784345 -2.784345,5.329847 -2.784345,5.329846 0,4.771617 0,4.771617 2.784345,5.329846 2.784345,5.329847 5.329847,2.784345 5.329846,2.784345 4.771617,0 4.771617,0 5.329846,-2.784345 z m -20.885623,-7.4971 -5.21584,-5.281446 0,-5.502714 0,-5.502715 5.281445,-5.21584 5.281446,-5.21584 5.502714,0 5.502715,0 5.21584,5.281445 5.21584,5.281446 0,5.502714 0,5.502715 -5.281445,5.21584 -5.281446,5.21584 -5.502714,0 -5.502715,0 -5.21584,-5.281445 z m 8.469709,2.107131 2.314451,-2.174314 2.519795,2.367225 2.519795,2.367224 4.980205,-4.905319 4.980205,-4.905318 0,-5.503243 0,-5.503243 -4.712408,-4.784349 -4.712408,-4.784349 -5.503243,0 -5.503243,0 -4.784349,4.712408 -4.784349,4.712408 0,5.503243 0,5.503243 4.712408,4.784349 c 2.591825,2.631392 4.925322,4.784349 5.185549,4.784349 0.260227,0 1.514644,-0.978441 2.787592,-2.174314 z m -1.185549,-5.825686 -1.809975,-2 1.809975,-2 1.809975,-2 1.690025,0 1.690025,0 1.809975,2 1.809975,2 -1.809975,2 -1.809975,2 -1.690025,0 -1.690025,0 -1.809975,-2 z m 1,-11 1.55136,-3 -1.680667,0 -1.680668,0 1.809975,-2 1.809975,-2 2.5,0 2.5,0 -1.809975,2 -1.809975,2 1.342079,0 1.342078,0 -2.874182,3 c -1.5808,1.65 -3.251547,3 -3.712771,3 l -0.838589,0 1.55136,-3 z m 3.7,17.8 -1.2,-1.2 -1.2,1.2 -1.2,1.2 2.4,0 2.4,0 -1.2,-1.2 z"
       id="path4272"
       inkscape:connector-curvature="0" />
    <path
       style="fill:#a0a0a0;stroke:none;stroke-width:1px;stroke-linecap:butt;stroke-linejoin:miter;stroke-opacity:1"
       d="M -0.5078125 -21.457031 L -5.2109375 -21.455078 L -10.556641 -18.662109 L -15.902344 -15.867188 L -18.701172 -10.515625 L -21.5 -5.1621094 L -21.501953 -0.47460938 L -21.503906 4.2128906 L -18.703125 9.5703125 L -15.902344 14.925781 L -10.601562 17.708984 L -5.2988281 20.490234 L -0.54101562 20.498047 L 4.21875 20.507812 L 9.5566406 17.71875 L 14.892578 14.929688 L 17.675781 9.6015625 L 20.458984 4.2753906 L 20.458984 -0.47265625 L 20.458984 -5.21875 L 17.724609 -10.458984 C 16.220617 -13.340957 14.942494 -15.750303 14.882812 -15.814453 C 14.823129 -15.878607 12.393807 -17.17576 9.484375 -18.695312 L 4.1933594 -21.457031 L -0.5078125 -21.457031 z M -5.9257812 -16.546875 L -0.43359375 -16.546875 L 5.0585938 -16.544922 L 10.302734 -11.236328 L 15.548828 -5.9277344 L 15.548828 -0.40820312 L 15.548828 5.1132812 L 10.244141 10.355469 L 4.9394531 15.595703 L -0.58203125 15.591797 L -6.1035156 15.587891 L -11.304688 10.306641 L -16.503906 5.0253906 L -16.496094 -0.56054688 L -16.486328 -6.1445312 L -11.207031 -11.345703 L -5.9257812 -16.546875 z M 5.0585938 -15.394531 L -0.44726562 -15.390625 L -5.953125 -15.386719 L -10.693359 -10.722656 L -15.433594 -6.0585938 L -15.435547 -0.52148438 L -15.435547 5.015625 L -11.216797 9.2148438 C -7.0648664 13.345228 -5.884084 14.435547 -5.5664062 14.435547 C -5.2547679 14.435547 -4.0799523 13.471349 -1.8847656 11.412109 L -0.51953125 10.130859 L 0.21484375 10.802734 C 0.61904286 11.17226 1.7541852 12.237468 2.7363281 13.169922 L 4.5214844 14.865234 L 6.6210938 12.796875 C 7.7751115 11.659738 10.013973 9.4442753 11.597656 7.8730469 L 14.476562 5.0175781 L 14.474609 -0.4296875 L 14.470703 -5.8769531 L 9.7636719 -10.634766 L 5.0585938 -15.394531 z M 1.3300781 -11.546875 C 2.7173549 -11.547295 3.8515625 -11.523414 3.8515625 -11.496094 C 3.8515625 -11.468769 3.0627795 -10.575075 2.0976562 -9.5097656 L 0.34375 -7.5742188 L 1.6074219 -7.5488281 C 2.3024559 -7.5352032 2.8710938 -7.4865413 2.8710938 -7.4414062 C 2.8710936 -7.3962711 1.7553014 -6.2394754 0.39257812 -4.8691406 C -1.4139647 -3.0525076 -2.2751723 -2.2531347 -2.7851562 -1.9179688 C -3.4284348 -1.4952004 -3.525901 -1.4570313 -4.0117188 -1.4570312 C -4.3022474 -1.4570313 -4.5410406 -1.4866075 -4.5410156 -1.5234375 C -4.5409897 -1.5602679 -3.8652692 -2.8962054 -3.0410156 -4.4921875 L -1.5429688 -7.3945312 L -3.1816406 -7.4199219 C -4.0833076 -7.4332964 -4.8089718 -7.4774522 -4.7929688 -7.5195312 C -4.7769652 -7.5616103 -3.9606584 -8.484449 -2.9785156 -9.5703125 L -1.1914062 -11.544922 L 1.3300781 -11.546875 z M 1.2304688 0.5078125 L 3.0097656 2.4785156 C 3.9883584 3.5628067 4.7890625 4.486799 4.7890625 4.53125 C 4.7890625 4.5757018 3.9923996 5.4950933 3.0175781 6.5761719 L 1.2441406 8.5429688 L -0.5234375 8.5429688 C -2.289258 8.5429686 -2.2936526 8.5413505 -2.4570312 8.3261719 C -2.5470653 8.2075942 -3.353608 7.3060005 -4.25 6.3222656 L -5.8808594 4.5332031 L -4.0722656 2.5253906 L -2.2636719 0.51757812 L -0.515625 0.51171875 L 1.2304688 0.5078125 z M -0.48046875 12.203125 L -1.6386719 13.363281 L -2.796875 14.525391 L -0.5 14.525391 C 0.76380045 14.525391 1.7988281 14.514943 1.7988281 14.501953 C 1.7988281 14.488968 1.2850149 13.965265 0.65820312 13.339844 L -0.48046875 12.203125 z "
       id="path4274" />
  </g>
</svg>
