<?xml version="1.0" encoding="UTF-8" standalone="no"?>
<!-- Created with Inkscape (http://www.inkscape.org/) -->

<svg
   xmlns:dc="http://purl.org/dc/elements/1.1/"
   xmlns:cc="http://creativecommons.org/ns#"
   xmlns:rdf="http://www.w3.org/1999/02/22-rdf-syntax-ns#"
   xmlns:svg="http://www.w3.org/2000/svg"
   xmlns="http://www.w3.org/2000/svg"
   xmlns:sodipodi="http://sodipodi.sourceforge.net/DTD/sodipodi-0.dtd"
   xmlns:inkscape="http://www.inkscape.org/namespaces/inkscape"
   width="210mm"
   height="297mm"
   viewBox="0 0 744.09448819 1052.3622047"
   id="svg3468"
   version="1.1"
   inkscape:version="0.91 r13725"
   sodipodi:docname="icon_si_anti_nuke_launcher.svg">
  <defs
     id="defs3470" />
  <sodipodi:namedview
     id="base"
     pagecolor="#ffffff"
     bordercolor="#666666"
     borderopacity="1.0"
     inkscape:pageopacity="0.0"
     inkscape:pageshadow="2"
     inkscape:zoom="15.839192"
     inkscape:cx="12.530889"
     inkscape:cy="1048.5217"
     inkscape:document-units="px"
     inkscape:current-layer="layer1"
     showgrid="false"
     inkscape:window-width="1920"
     inkscape:window-height="1028"
     inkscape:window-x="-8"
     inkscape:window-y="-8"
     inkscape:window-maximized="1" />
  <metadata
     id="metadata3473">
    <rdf:RDF>
      <cc:Work
         rdf:about="">
        <dc:format>image/svg+xml</dc:format>
        <dc:type
           rdf:resource="http://purl.org/dc/dcmitype/StillImage" />
        <dc:title></dc:title>
      </cc:Work>
    </rdf:RDF>
  </metadata>
  <g
     inkscape:label="Ebene 1"
     inkscape:groupmode="layer"
     id="layer1">
    <g
       id="g3487">
      <path
         style="fill:#c8c8c8"
         d="m -17.043045,8.525544 0,-13.4710238 8.75,-8.6829512 8.75,-8.682951 8.75,8.682951 8.75,8.6829512 0,13.4710238 0,13.471025 -17.5,0 -17.5,0 0,-13.471025 z m 14.6069363,8.253132 2.8930637,-2.717892 2.8930637,2.717892 2.8930638,2.717893 4.6069365,0 4.606936,0 0,-11.6016288 0,-11.6016299 -7.5,-7.4217413 -7.5,-7.421741 -7.5,7.421741 -7.5,7.4217413 0,11.6016299 0,11.6016288 4.6069363,0 4.6069362,0 2.8930638,-2.717893 z m -3.3569363,-7.282107 0,-1.25 4.375,0 4.375,0 0,1.25 0,1.25 -4.375,0 -4.375,0 0,-1.25 z m 10,0 c 0,-0.6875 0.5625,-1.25 1.25,-1.25 0.6875,0 1.25,0.5625 1.25,1.25 0,0.6875 -0.5625,1.25 -1.25,1.25 -0.6875,0 -1.25,-0.5625 -1.25,-1.25 z m -7.5,-6.0969438 c 0,-0.6033199 0.84375,-1.797195 1.875,-2.6530562 l 1.875,-1.55611125 1.875,1.55611125 c 1.03125,0.8558612 1.875,2.0497363 1.875,2.6530562 l 0,1.0969438 -3.75,0 -3.75,0 0,-1.0969438 z m 0,-5.8518274 0,-1.9487713 1.27039,0.7851438 1.27039,0.7851449 -0.7191613,1.1636263 c -1.0715499,1.733805 -1.8216187,1.41051375 -1.8216187,-0.7851437 z m 5.6783813,0.7851437 -0.7191613,-1.1636262 1.27039,-0.785145 1.27039,-0.7851438 0,1.9487713 c 0,2.19565745 -0.7500688,2.5189487 -1.8216187,0.7851437 z m -4.2907388,-4.2955238 -1.41847,-1.7091524 1.8904138,-1.5689038 1.8904137,-1.5689035 1.8904138,1.5689035 1.8904137,1.5689038 -1.41847,1.7091525 C 2.039155,-5.0225497 0.97609375,-4.253431 0.456955,-4.253431 c -0.51913875,0 -1.5822,-0.7691187 -2.3623575,-1.7091513 z m 3.8623575,23.9591513 -1.5,-1.5 -1.5,1.5 -1.5,1.5 3,0 3,0 -1.5,-1.5 z"
         id="path3489"
         inkscape:connector-curvature="0" />
    </g>
    <path
       style="fill:#a0a0a0;stroke:none;stroke-width:1px;stroke-linecap:butt;stroke-linejoin:miter;stroke-opacity:1"
       d="M 0.45703125 -18.464844 C 0.42461545 -18.464844 -2.9547993 -15.145878 -7.0527344 -11.089844 L -14.503906 -3.7148438 L -14.503906 7.8652344 L -14.503906 19.447266 L -9.9023438 19.447266 L -5.3007812 19.447266 L -2.4453125 16.763672 C -0.87488575 15.287903 0.43246157 14.080078 0.45898438 14.080078 C 0.48550783 14.080078 1.7917396 15.287903 3.3632812 16.763672 L 6.2207031 19.447266 L 10.822266 19.447266 L 15.421875 19.447266 L 15.421875 7.8671875 L 15.421875 -3.7148438 L 7.96875 -11.089844 C 3.8695138 -15.146356 0.48944645 -18.464844 0.45703125 -18.464844 z M 0.421875 -10.769531 C 0.48431 -10.79349 3.6560359 -8.2330014 4.140625 -7.7675781 C 4.2508649 -7.6616983 4.2297507 -7.6246929 3.5800781 -6.8417969 C 2.3855228 -5.4022815 1.6018192 -4.6783259 0.89453125 -4.3574219 C 0.54761203 -4.2000156 0.37252852 -4.1975357 0.033203125 -4.3515625 C -0.66837244 -4.6700231 -1.4013787 -5.3380531 -2.5019531 -6.6582031 C -2.907232 -7.1443391 -3.2603042 -7.5764375 -3.2851562 -7.6171875 C -3.3139501 -7.6643995 -2.6642697 -8.2438396 -1.4941406 -9.2148438 C -0.48415914 -10.052953 0.3783172 -10.752821 0.421875 -10.769531 z M -3.3105469 -4.4179688 C -3.2648027 -4.4179688 -0.9169033 -2.9650061 -0.8203125 -2.8769531 C -0.71458362 -2.78057 -1.6024353 -1.3463366 -2.0449219 -0.8984375 C -2.3168758 -0.623157 -2.4108054 -0.56640625 -2.5957031 -0.56640625 C -2.8766713 -0.56640625 -3.0455007 -0.73894234 -3.1796875 -1.1640625 C -3.2543244 -1.4005209 -3.288474 -1.8571686 -3.3125 -2.9492188 C -3.330265 -3.7565515 -3.3290799 -4.4179688 -3.3105469 -4.4179688 z M 4.2304688 -4.4179688 C 4.2492408 -4.4179688 4.2486058 -3.7704397 4.2304688 -2.9804688 C 4.1949385 -1.4329966 4.1255082 -0.99567296 3.8671875 -0.72070312 C 3.6167183 -0.45409104 3.3510544 -0.50718901 2.9628906 -0.8984375 C 2.512064 -1.3528477 1.6309273 -2.7763179 1.7382812 -2.8769531 C 1.8326838 -2.9654469 4.1817227 -4.4179688 4.2304688 -4.4179688 z M 0.43359375 -0.765625 C 0.54907328 -0.74363714 0.78550702 -0.55748635 1.4824219 0.01953125 C 3.0827068 1.3445029 3.8485205 2.2103658 4.1308594 3.0136719 C 4.2238919 3.2783647 4.2482596 3.4930184 4.234375 3.9375 L 4.2167969 4.515625 L 0.48632812 4.5332031 C -1.5650083 4.5421571 -3.2617342 4.5292814 -3.2851562 4.5058594 C -3.370454 4.4205621 -3.3299847 3.3096397 -3.2304688 3.0175781 C -3.0976677 2.6278272 -2.5677443 1.87078 -2.0664062 1.3535156 C -1.8407003 1.1206394 -1.2298443 0.5750449 -0.70898438 0.140625 C -0.18812447 -0.29379552 0.28660037 -0.69193305 0.34570312 -0.7421875 C 0.36996415 -0.76281624 0.39510057 -0.77295429 0.43359375 -0.765625 z M -5.7910156 8.2089844 L -1.4023438 8.2089844 L 2.9882812 8.2089844 L 2.9707031 9.4882812 L 2.953125 10.765625 L -1.4179688 10.783203 L -5.7910156 10.798828 L -5.7910156 9.5039062 L -5.7910156 8.2089844 z M 5.4335938 8.2382812 C 5.8982474 8.2288838 6.3615426 8.4761716 6.5820312 8.9316406 C 6.8649377 9.5160474 6.6877414 10.147249 6.1210938 10.570312 C 5.888265 10.744146 5.1811083 10.780637 4.9101562 10.632812 C 4.0700389 10.174465 3.9419989 9.1615155 4.6464844 8.5429688 C 4.8751142 8.3422291 5.1548015 8.2439197 5.4335938 8.2382812 z M 0.45898438 16.511719 L -1.0078125 17.980469 L -2.4765625 19.447266 L 0.45898438 19.447266 L 3.3945312 19.447266 L 1.9277344 17.980469 L 0.45898438 16.511719 z "
       id="path3493" />
  </g>
</svg>
