<?xml version="1.0" encoding="UTF-8" standalone="no"?>
<!-- Created with Inkscape (http://www.inkscape.org/) -->

<svg
   xmlns:dc="http://purl.org/dc/elements/1.1/"
   xmlns:cc="http://creativecommons.org/ns#"
   xmlns:rdf="http://www.w3.org/1999/02/22-rdf-syntax-ns#"
   xmlns:svg="http://www.w3.org/2000/svg"
   xmlns="http://www.w3.org/2000/svg"
   xmlns:sodipodi="http://sodipodi.sourceforge.net/DTD/sodipodi-0.dtd"
   xmlns:inkscape="http://www.inkscape.org/namespaces/inkscape"
   width="210mm"
   height="297mm"
   viewBox="0 0 744.09448819 1052.3622047"
   id="svg2"
   version="1.1"
   inkscape:version="0.91 r13725"
   sodipodi:docname="icon_si_bot_grenadier.svg">
  <defs
     id="defs4" />
  <sodipodi:namedview
     id="base"
     pagecolor="#ffffff"
     bordercolor="#666666"
     borderopacity="1.0"
     inkscape:pageopacity="0.0"
     inkscape:pageshadow="2"
     inkscape:zoom="11.2"
     inkscape:cx="4.2594117"
     inkscape:cy="1052.5975"
     inkscape:document-units="px"
     inkscape:current-layer="layer1"
     showgrid="false"
     inkscape:window-width="1920"
     inkscape:window-height="1028"
     inkscape:window-x="-8"
     inkscape:window-y="-8"
     inkscape:window-maximized="1" />
  <metadata
     id="metadata7">
    <rdf:RDF>
      <cc:Work
         rdf:about="">
        <dc:format>image/svg+xml</dc:format>
        <dc:type
           rdf:resource="http://purl.org/dc/dcmitype/StillImage" />
        <dc:title></dc:title>
      </cc:Work>
    </rdf:RDF>
  </metadata>
  <g
     inkscape:label="Ebene 1"
     inkscape:groupmode="layer"
     id="layer1">
    <g
       id="g3347">
      <path
         style="fill:#c8c8c8"
         d="m -6.061341,3.5729875 -2.525405,-4.9502025 0,-3.1747975 0,-3.1747975 1.4819363,0 c 0.815065,0 2.783815,-1.2230513 4.375,-2.717892 l 2.8930637,-2.717893 2.8930637,2.717893 c 1.5911851,1.4948407 3.5599351,2.717892 4.375,2.717892 l 1.4819363,0 0,3.1747975 0,3.1747975 -2.525405,4.9502025 -2.525405,4.9502025 -3.69919,0 -3.69919,0 -2.525405,-4.9502025 z M 5.556739,2.8557812 c 1.1585825,-2.42957495 2.0753925,-5.3827 2.0373538,-6.5625 L 7.5249315,-5.85181 3.8440928,-8.7593825 0.163254,-11.666956 -3.5175847,-8.7593825 -7.1984235,-5.85181 -7.267586,-3.7067188 c -0.038038,1.1798001 0.8787712,4.13292505 2.0373538,6.5625 l 2.1065175,4.4174088 3.2869687,0 3.2869688,0 L 5.556739,2.8557812 Z M -4.836746,-0.22681 l 0,-1.25 5,0 5,0 0,1.25 0,1.25 -5,0 -5,0 0,-1.25 z m 2.7379638,-5.9375 0.4212737,-2.1875 1.8407625,0 1.8407625,0 0.4212738,2.1875 0.4212737,2.1875 -2.68331,0 -2.68331,0 0.4212738,-2.1875 z"
         id="path3349"
         inkscape:connector-curvature="0" />
    </g>
    <path
       style="fill:#a0a0a0;stroke:none;stroke-width:1px;stroke-linecap:butt;stroke-linejoin:miter;stroke-opacity:1"
       d="M -3.2907759,6.8584132 C -3.4084265,6.6251543 -4.006647,5.3695739 -4.6201549,4.0682346 c -1.1605115,-2.4616125 -1.7596399,-3.9466134 -2.1433458,-5.3125 -0.4485782,-1.596814 -0.4813176,-1.8647107 -0.4437667,-3.6312078 l 0.020251,-0.9526364 3.6792932,-2.9059953 c 3.17634421,-2.5087541 3.69811252,-2.8897851 3.8169643,-2.7874141 0.0757191,0.06522 1.7046354,1.354621 3.6198139,2.8653366 1.9151786,1.5107155 3.5094527,2.8120417 3.5428313,2.8918362 0.033379,0.079794 0.063513,0.69923 0.066964,1.3765235 0.00737,1.4474259 -0.1054509,2.0861243 -0.6803277,3.85123944 C 6.3348215,1.071398 5.9467438,1.9862444 4.5548135,4.8941275 l -1.1432625,2.3883928 -3.24420861,0 -3.24420819,0 -0.2139101,-0.4241071 z m 8.5144733,-7.07589289 0,-1.25000001 -5.04464287,0 -5.04464283,0 0,1.25000001 0,1.24999999 5.04464283,0 5.04464287,0 0,-1.24999999 z M 2.6575322,-5.1058726 C 2.5369822,-5.7319886 2.3502367,-6.706319 2.242542,-7.2710511 L 2.046734,-8.2978369 0.15307302,-8.321934 c -1.15897862,-0.014748 -1.89366132,0.00895 -1.89366132,0.061088 0,0.046852 -0.1806634,1.021981 -0.4014743,2.1669542 -0.2208109,1.1449733 -0.4016145,2.0918142 -0.4017857,2.104091 -1.713e-4,0.012277 1.2193851,0.022321 2.71012524,0.022321 l 2.71043656,0 -0.2191813,-1.1383929 z"
       id="path3353"
       inkscape:connector-curvature="0" />
  </g>
</svg>
