<?xml version="1.0" encoding="UTF-8" standalone="no"?>
<!-- Created with Inkscape (http://www.inkscape.org/) -->

<svg
   xmlns:dc="http://purl.org/dc/elements/1.1/"
   xmlns:cc="http://creativecommons.org/ns#"
   xmlns:rdf="http://www.w3.org/1999/02/22-rdf-syntax-ns#"
   xmlns:svg="http://www.w3.org/2000/svg"
   xmlns="http://www.w3.org/2000/svg"
   xmlns:sodipodi="http://sodipodi.sourceforge.net/DTD/sodipodi-0.dtd"
   xmlns:inkscape="http://www.inkscape.org/namespaces/inkscape"
   width="210mm"
   height="297mm"
   viewBox="0 0 744.09448819 1052.3622047"
   id="svg3412"
   version="1.1"
   inkscape:version="0.91 r13725"
   sodipodi:docname="icon_si_fabrication_aircraft.svg">
  <defs
     id="defs3414" />
  <sodipodi:namedview
     id="base"
     pagecolor="#ffffff"
     bordercolor="#666666"
     borderopacity="1.0"
     inkscape:pageopacity="0.0"
     inkscape:pageshadow="2"
     inkscape:zoom="31.678384"
     inkscape:cx="5.5662299"
     inkscape:cy="1055.5314"
     inkscape:document-units="px"
     inkscape:current-layer="layer1"
     showgrid="false"
     inkscape:window-width="1920"
     inkscape:window-height="1028"
     inkscape:window-x="-8"
     inkscape:window-y="-8"
     inkscape:window-maximized="1" />
  <metadata
     id="metadata3417">
    <rdf:RDF>
      <cc:Work
         rdf:about="">
        <dc:format>image/svg+xml</dc:format>
        <dc:type
           rdf:resource="http://purl.org/dc/dcmitype/StillImage" />
        <dc:title></dc:title>
      </cc:Work>
    </rdf:RDF>
  </metadata>
  <g
     inkscape:label="Ebene 1"
     inkscape:groupmode="layer"
     id="layer1"
     transform="translate(-0.35714286,0.08928571)">
    <path
       style="fill:#000000"
       d="m 0.357143,7.244408 -16.25,0 0,-0.97361 c 0,-0.5354862 3.65625,-4.5973612 8.125,-9.02639 l 8.125,-8.052779 8.125,8.052779 c 4.46875,4.4290288 8.125,8.4909038 8.125,9.02639 l 0,0.97361 z m 0,-1.25 15.064286,-0.044643 -7.264286,-7.7553571 -7.8,-7.8 -7.8,7.8 -7.073953,7.8 z m 1.2799807,-9.9272347 0.031046,2.3303459 2.4417607,0.075882 -0.033482,2.5633256 -2.3325889,-0.11524587 -0.053643,1.26186737 -0.053643,1.2618674 -1.32062745,0.00717 -1.32062745,0.00717 -0.00678,-1.2716903 -0.00678,-1.27169029 -2.3158732,0.0672099 -0.016766,-2.41046872 2.48123862,-0.082636 0.0482029,-2.4933497"
       id="path4279"
       inkscape:connector-curvature="0"
       sodipodi:nodetypes="ccsscsscccccccccccccccccccccccc" />
    <path
       style="stroke:#000000;stroke-width:0.03156727;stroke-opacity:1"
       d="m -14.784101,6.0214064 c 0.01396,-0.022595 1.612554,-1.7893457 3.552421,-3.926112 l 3.5270308,-3.8850293 3.854363,-3.8511577 3.85436269,-3.8511574 3.77545711,3.7722393 c 3.7557144,3.7525131 3.7949339,3.7930117 7.4998604,7.744451 2.048421,2.1847162 3.715434,3.9811804 3.704472,3.9921421 -0.01096,0.010962 -6.7189517,0.02573 -14.90664404,0.032819 C -12.140356,6.0601782 -14.804939,6.055123 -14.784101,6.0214064 Z M 1.2980377,3.4898905 C 1.2972264,3.2966619 1.401728,1.0495911 1.4120407,1.0384893 c 0.00655,-0.00706 0.5237849,0.012736 1.1494008,0.043982 0.6256159,0.031246 1.1444312,0.049864 1.1529228,0.041372 0.00849,-0.00849 0.024639,-0.59078862 0.035883,-1.29399306 L 3.7706907,-1.4487042 3.1737502,-1.4688148 C 2.845433,-1.4798757 2.298448,-1.4981657 1.9582283,-1.5094589 l -0.6185815,-0.020533 -0.020573,-0.6349477 c -0.011315,-0.3492215 -0.02061,-0.8709757 -0.020655,-1.1594541 l -9.47e-5,-0.5245059 -0.44983354,-0.019527 c -0.24740846,-0.01074 -0.80619675,-0.02871 -1.2417518,-0.039932 l -0.79191826,-0.020404 -0.020939,0.7194837 c -0.011505,0.3957162 -0.020927,0.9586777 -0.020927,1.2510259 l 0,0.531542 -0.1025936,-5.746e-4 c -0.056427,-3.156e-4 -0.6176991,0.016464 -1.2472726,0.037289 l -1.1446787,0.037863 0.00826,1.21751037 0.00826,1.21751003 0.1104854,-0.00248 c 0.060767,-0.00136 0.5828107,-0.013662 1.1600971,-0.02733 l 1.0496116,-0.02485 0,1.2663452 0,1.2663449 1.34160884,0 1.34160886,0 -2.841e-4,-0.071026 -1.36e-5,1.2e-6 z"
       id="path4306"
       inkscape:connector-curvature="0"
       transform="translate(0.35714286,-0.08928571)" />
  </g>
</svg>
