<?xml version="1.0" encoding="UTF-8" standalone="no"?>
<!-- Created with Inkscape (http://www.inkscape.org/) -->

<svg
   xmlns:dc="http://purl.org/dc/elements/1.1/"
   xmlns:cc="http://creativecommons.org/ns#"
   xmlns:rdf="http://www.w3.org/1999/02/22-rdf-syntax-ns#"
   xmlns:svg="http://www.w3.org/2000/svg"
   xmlns="http://www.w3.org/2000/svg"
   xmlns:sodipodi="http://sodipodi.sourceforge.net/DTD/sodipodi-0.dtd"
   xmlns:inkscape="http://www.inkscape.org/namespaces/inkscape"
   width="210mm"
   height="297mm"
   viewBox="0 0 744.09448819 1052.3622047"
   id="svg3631"
   version="1.1"
   inkscape:version="0.91 r13725"
   sodipodi:docname="icon_si_land_mine.svg">
  <defs
     id="defs3633" />
  <sodipodi:namedview
     id="base"
     pagecolor="#ffffff"
     bordercolor="#666666"
     borderopacity="1.0"
     inkscape:pageopacity="0.0"
     inkscape:pageshadow="2"
     inkscape:zoom="44.8"
     inkscape:cx="-4.1321772"
     inkscape:cy="1054.7002"
     inkscape:document-units="px"
     inkscape:current-layer="layer1"
     showgrid="false"
     inkscape:window-width="1920"
     inkscape:window-height="1028"
     inkscape:window-x="1912"
     inkscape:window-y="-8"
     inkscape:window-maximized="1" />
  <metadata
     id="metadata3636">
    <rdf:RDF>
      <cc:Work
         rdf:about="">
        <dc:format>image/svg+xml</dc:format>
        <dc:type
           rdf:resource="http://purl.org/dc/dcmitype/StillImage" />
        <dc:title />
      </cc:Work>
    </rdf:RDF>
  </metadata>
  <g
     inkscape:label="Ebene 1"
     inkscape:groupmode="layer"
     id="layer1">
    <path
       d="m 2.4453125,-4.9472656 -1.1523437,0.5996094 c 0,0 -0.15741,0.5996093 -0.2363282,0.5996093 -0.0789182,0 -1.27929685,-0.095703 -1.27929685,-0.095703 l -0.52148437,-0.5039062 -0.25195313,-0.4433594 -1.34179685,-0.015625 -1.1054688,0.3320312 -0.2363281,0.4570313 -0.7734375,0.6640625 -0.5195312,0.2988281 0.078125,1.390625 0.7265624,0.8359375 0.4414063,0.97851562 -0.078125,1.04101558 -0.7890625,0.4746094 -0.1582031,1.2148438 0.109375,0.7890625 0.3789062,0.5996093 0.5371094,0.3632813 0.9160156,0.2519531 1.86132815,-0.015625 0.6640625,-0.7578125 L 0.39257812,3.859375 0.9296875,3.9375 1.2128906,4.7910156 2.0820312,5.3261719 3.3769531,5.2167969 4.1171875,5.0273438 4.78125,4.6796875 5.4433594,3.90625 5.6796875,2.4394531 5.4277344,1.7285156 4.9238281,1.3027344 4.0546875,0.43359375 4.2753906,-0.48046875 5.4589844,-0.89257812 c 0,0 0.2851562,-1.76694368 0.2851562,-1.83007808 0,-0.063135 -0.5527343,-1.1835938 -0.5527344,-1.1835938 L 4.0234375,-4.7578125 2.4453125,-4.9472656 Z m -0.7128906,1.7910156 0.4492187,0.052734 c 0.2466504,0.029815 0.4554002,0.054449 0.4648438,0.054687 0.00944,2.376e-4 0.1753945,0.1161582 0.3671875,0.2558593 l 0.3476562,0.2539063 0.042969,0.085937 C 3.4273459,-2.406154 3.4985724,-2.2588861 3.5625,-2.125 l 0.1152344,0.2441406 -0.064453,0.40625 c -0.090363,0.57535089 -0.09228,0.59333337 -0.097656,0.59765628 -0.00266,0.00214 -0.1915775,0.0689288 -0.4179688,0.14648437 -0.2263918,0.0775541 -0.4128713,0.14379114 -0.4160156,0.1484375 -0.00314,0.004646 -0.061999,0.24311129 -0.1308594,0.52929688 l -0.125,0.51953125 0.3808594,0.3828125 C 3.0169951,1.0602136 3.2615683,1.2955808 3.3496094,1.3710938 L 3.5097656,1.5078125 3.5703125,1.6738281 3.6308594,1.8378906 3.5625,2.2597656 C 3.524789,2.49211 3.4921875,2.686516 3.4921875,2.6914062 c 0,0.0049 -0.082211,0.1065058 -0.1835937,0.2246094 L 3.125,3.1308594 2.9316406,3.2304688 C 2.7487717,3.325982 2.7253377,3.3349561 2.5175781,3.3886719 2.3171834,3.4404835 2.271797,3.4484817 2.0058594,3.4726562 1.8454989,3.4872334 1.664449,3.5016381 1.6015625,3.5058594 L 1.4863281,3.5136719 1.296875,3.3984375 C 1.1931123,3.3346619 1.1001131,3.2741168 1.0898438,3.2636719 1.0795743,3.2532274 1.0222012,3.093307 0.9609375,2.9082031 0.89967395,2.7230991 0.84572776,2.5685064 0.84179688,2.5644531 0.83786615,2.5603998 0.67772456,2.5338683 0.48632812,2.5058594 L 0.13867188,2.4550781 -0.1796875,2.5722656 c -0.17555518,0.065124 -0.32879546,0.1249597 -0.33984375,0.1308594 -0.0110481,0.00589 -0.11386646,0.1169954 -0.22851563,0.2480469 l -0.20898437,0.2382812 -0.21289065,0.00781 c -0.1173498,0.00409 -0.375372,0.00779 -0.5722656,0.00781 l -0.3574219,0 -0.2753906,-0.076172 -0.2773438,-0.076172 -0.1386718,-0.09375 -0.1367188,-0.095703 -0.09375,-0.1484374 -0.095703,-0.1503907 -0.03125,-0.21875 -0.03125,-0.21875 0.041016,-0.3203125 c 0.022795,-0.1761897 0.044868,-0.3256377 0.048828,-0.3320312 0.00397,-0.00639 0.1357111,-0.088137 0.2929688,-0.1816406 0.2496676,-0.1484499 0.2864541,-0.1743139 0.2871094,-0.1992188 4.128e-4,-0.015686 0.018309,-0.24974373 0.039063,-0.51953125 L -2.4335938,0.08398437 -2.6230469,-0.3359375 -2.8125,-0.75585938 -3.0527344,-1.0332031 -3.2949219,-1.3105469 -3.3085938,-1.5820312 c -0.00765,-0.1500582 -0.016158,-0.2958639 -0.019531,-0.3242188 l -0.00586,-0.052734 0.1054688,-0.060547 c 0.079122,-0.044888 0.1882647,-0.1308245 0.4257812,-0.3339844 l 0.3203125,-0.2734375 0.068359,-0.1289063 0.070312,-0.1289062 0.2871094,-0.087891 0.2890625,-0.085938 0.3613281,0 0.359375,0 0.0527344,0.091797 c 0.044936,0.077734 0.0908806,0.126701 0.30664062,0.3359375 0.13936491,0.1351506 0.26281338,0.2473862 0.27539062,0.25 0.039799,0.00827 0.95745994,0.07431 1.03125,0.074219 0.24999865,-3.04e-4 0.3779496,-0.1158173 0.49023438,-0.4492188 l 0.029297,-0.091797 0.296875,-0.1542969 0.296875,-0.1542969 z"
       id="path3665"
       inkscape:connector-curvature="0" />
    <path
       style="fill:#a0a0a0;stroke:none;stroke-width:1px;stroke-linecap:butt;stroke-linejoin:miter;stroke-opacity:1"
       d="M 1.2977546,3.398259 C 1.1939919,3.3344834 1.1006929,3.2737579 1.0904236,3.263313 1.0801542,3.2528685 1.0216273,3.0928741 0.96036361,2.9077702 0.89910006,2.7226662 0.84575918,2.5679012 0.8418283,2.5638479 0.83789757,2.5597946 0.67808434,2.5335619 0.4866879,2.505553 L 0.13869434,2.4546274 -0.18049672,2.5730355 c -0.17555518,0.065124 -0.32823083,0.1232351 -0.33927912,0.1291348 -0.0110481,0.00589 -0.11389172,0.1179506 -0.22854089,0.2490021 l -0.208453,0.2382751 -0.21336277,0.00744 c -0.1173498,0.00409 -0.3744579,0.00745 -0.5713515,0.00747 l -0.3579884,3.26e-5 -0.2763005,-0.07575 L -2.6520735,3.0528911 -2.790077,2.9582891 -2.9280805,2.8636871 -3.0221895,2.7143587 -3.1162985,2.56503 -3.1479065,2.3456555 -3.1795145,2.126281 -3.1380695,1.8059362 c 0.022795,-0.1761897 0.044686,-0.3255763 0.048646,-0.3319698 0.00397,-0.00639 0.1358659,-0.088128 0.2931236,-0.1816316 0.2496676,-0.1484499 0.2860181,-0.1736237 0.2866734,-0.1985286 4.128e-4,-0.015686 0.017732,-0.2492569 0.038485,-0.51904442 l 0.037734,-0.49052286 -0.1896627,-0.41966154 -0.1896627,-0.41966151 -0.2408067,-0.27727827 -0.2408068,-0.2772781 -0.013891,-0.2728334 c -0.00765,-0.1500581 -0.016651,-0.2960323 -0.020024,-0.3243872 l -0.00614,-0.051554 0.1064732,-0.060405 c 0.079122,-0.044888 0.1885766,-0.1306323 0.4260931,-0.3337922 l 0.31962,-0.2733874 0.068909,-0.1298695 0.06891,-0.1298696 0.2884255,-0.086585 0.2884253,-0.086585 0.3603645,0 0.3603643,0 0.052773,0.091291 c 0.044936,0.077734 0.090404,0.1277829 0.30616407,0.3370194 0.13936491,0.1351506 0.26368129,0.247867 0.27625854,0.2504808 0.039799,0.00827 0.95724734,0.07435 1.03103741,0.074259 0.24999865,-3.04e-4 0.37709583,-0.1173753 0.48938061,-0.4507768 l 0.030756,-0.091321 0.296667,-0.1544143 0.296667,-0.1544143 0.4484551,0.05421 c 0.2466504,0.029815 0.4561819,0.054404 0.4656255,0.054643 0.00944,2.376e-4 0.1740919,0.114733 0.3658849,0.2544342 l 0.3487145,0.2540022 0.041905,0.085402 c 0.023049,0.046971 0.094211,0.1949459 0.1581386,0.328832 l 0.1162325,0.2434296 -0.0639,0.4068584 c -0.090363,0.57535087 -0.093531,0.59452937 -0.098907,0.59885227 -0.00266,0.00214 -0.1900584,0.067337 -0.4164497,0.14489259 -0.2263918,0.0775541 -0.4141935,0.14481025 -0.4173378,0.14945661 -0.00314,0.004646 -0.062057,0.24259987 -0.1309172,0.52878546 L 2.4251395,0.4673537 2.8076025,0.85027017 C 3.017957,1.0608744 3.2620989,1.2949701 3.35014,1.3704831 l 0.1600748,0.1372961 0.05999,0.1651593 0.059989,0.1651594 -0.068566,0.4224444 c -0.037711,0.2323444 -0.068566,0.4264455 -0.068566,0.4313357 0,0.0049 -0.08295,0.1055217 -0.1843325,0.2236253 L 3.1243989,3.1302371 2.9310155,3.2312421 C 2.7481466,3.3267553 2.7256862,3.3353357 2.5179266,3.3890515 2.3175319,3.4408631 2.2725941,3.4481855 2.0066565,3.47236 1.846296,3.4869372 1.6636395,3.5023179 1.600753,3.5065392 L 1.486414,3.5142159 1.2977546,3.3982602 Z"
       id="path3667"
       inkscape:connector-curvature="0" />
  </g>
</svg>
