<?xml version="1.0" encoding="UTF-8" standalone="no"?>
<!-- Created with Inkscape (http://www.inkscape.org/) -->

<svg
   xmlns:dc="http://purl.org/dc/elements/1.1/"
   xmlns:cc="http://creativecommons.org/ns#"
   xmlns:rdf="http://www.w3.org/1999/02/22-rdf-syntax-ns#"
   xmlns:svg="http://www.w3.org/2000/svg"
   xmlns="http://www.w3.org/2000/svg"
   xmlns:sodipodi="http://sodipodi.sourceforge.net/DTD/sodipodi-0.dtd"
   xmlns:inkscape="http://www.inkscape.org/namespaces/inkscape"
   width="210mm"
   height="297mm"
   viewBox="0 0 744.09448819 1052.3622047"
   id="svg3459"
   version="1.1"
   inkscape:version="0.91 r13725"
   sodipodi:docname="icon_si_nuke_launcher.svg">
  <defs
     id="defs3461" />
  <sodipodi:namedview
     id="base"
     pagecolor="#ffffff"
     bordercolor="#666666"
     borderopacity="1.0"
     inkscape:pageopacity="0.0"
     inkscape:pageshadow="2"
     inkscape:zoom="2.8"
     inkscape:cx="-116.66731"
     inkscape:cy="1078.1621"
     inkscape:document-units="px"
     inkscape:current-layer="layer1"
     showgrid="false"
     inkscape:window-width="1920"
     inkscape:window-height="1028"
     inkscape:window-x="1912"
     inkscape:window-y="-8"
     inkscape:window-maximized="1" />
  <metadata
     id="metadata3464">
    <rdf:RDF>
      <cc:Work
         rdf:about="">
        <dc:format>image/svg+xml</dc:format>
        <dc:type
           rdf:resource="http://purl.org/dc/dcmitype/StillImage" />
        <dc:title></dc:title>
      </cc:Work>
    </rdf:RDF>
  </metadata>
  <g
     inkscape:label="Ebene 1"
     inkscape:groupmode="layer"
     id="layer1">
    <g
       id="g3478">
      <path
         style="fill:#c8c8c8"
         d="m -16.489861,7.562216 0,-13.4710238 8.75,-8.6829512 8.75,-8.682951 8.75,8.682951 8.75,8.6829512 0,13.4710238 0,13.471025 -17.5,0 -17.5,0 0,-13.471025 z m 14.6069363,8.253132 2.8930637,-2.717892 2.8930637,2.717892 2.8930638,2.717893 4.6069365,0 4.606936,0 0,-11.6016288 0,-11.60163 -7.5,-7.4217412 -7.5,-7.421741 -7.5,7.421741 -7.5,7.4217412 0,11.60163 0,11.6016288 4.6069363,0 4.6069362,0 2.8930638,-2.717893 z m -5.8569363,-7.282107 0,-1.25 3.125,0 3.125,0 0,1.25 0,1.25 -3.125,0 -3.125,0 0,-1.25 z m 7.5,0 c 0,-0.6875 0.5625,-1.25 1.25,-1.25 0.6875,0 1.25,0.5625 1.25,1.25 0,0.6875 -0.5625,1.25 -1.25,1.25 -0.6875,0 -1.25,-0.5625 -1.25,-1.25 z m 3.75,0 c 0,-0.6875 0.5625,-1.25 1.25,-1.25 0.6875,0 1.25,0.5625 1.25,1.25 0,0.6875 -0.5625,1.25 -1.25,1.25 -0.6875,0 -1.25,-0.5625 -1.25,-1.25 z m 3.75,0 c 0,-0.6875 0.5625,-1.25 1.25,-1.25 0.6875,0 1.25,0.5625 1.25,1.25 0,0.6875 -0.5625,1.25 -1.25,1.25 -0.6875,0 -1.25,-0.5625 -1.25,-1.25 z m -10,-11.0969438 0,-6.096945 1.875,-1.5561112 1.875,-1.556111 1.875,1.556111 1.875,1.5561112 0,6.096945 0,6.0969438 -3.75,0 -3.75,0 0,-6.0969438 z m 5.25,19.5969438 -1.5,-1.5 -1.5,1.5 -1.5,1.5 3,0 3,0 -1.5,-1.5 z"
         id="path3480"
         inkscape:connector-curvature="0" />
    </g>
    <path
       style="fill:#a0a0a0;stroke:none;stroke-width:1px;stroke-linecap:butt;stroke-linejoin:miter;stroke-opacity:1"
       d="M 1.0117188 -19.490234 L -6.4746094 -12.083984 L -13.962891 -4.6777344 L -13.964844 6.9238281 L -13.966797 18.525391 L -9.3730469 18.523438 L -4.7792969 18.521484 L -1.9082031 15.810547 C -0.3282614 14.320436 0.9808519 13.099556 1 13.097656 C 1.0191481 13.095749 2.3357155 14.317415 3.9257812 15.810547 L 6.8164062 18.525391 L 11.388672 18.525391 L 15.958984 18.525391 L 15.958984 6.9179688 L 15.958984 -4.6894531 L 10.671875 -9.921875 C 7.7637402 -12.799937 4.4014845 -16.129987 3.1992188 -17.322266 L 1.0117188 -19.490234 z M 1.109375 -11.705078 C 1.172442 -11.659477 2.0249276 -10.957319 3.0039062 -10.144531 L 4.7851562 -8.6660156 L 4.7851562 -2.5527344 L 4.7851562 3.5625 L 1.0390625 3.5625 C -1.0212282 3.5625 -2.726851 3.5426812 -2.75 3.5195312 C -2.807791 3.461738 -2.8000525 -8.5762031 -2.7421875 -8.6582031 C -2.716676 -8.6943552 -1.8649604 -9.4130347 -0.84960938 -10.255859 C 0.80589429 -11.630067 1.0065466 -11.779428 1.109375 -11.705078 z M 4.6289062 7.2851562 C 5.4239451 7.219485 6.229327 7.9561104 5.9824219 8.8730469 C 5.8876986 9.2248218 5.473738 9.6469996 5.1308594 9.7421875 C 4.6849629 9.8659754 4.3492079 9.8031001 3.9902344 9.5292969 C 3.4030845 9.0814559 3.349055 8.1685232 3.8769531 7.640625 C 4.1001765 7.4174017 4.3638933 7.3070467 4.6289062 7.2851562 z M -7.7792969 7.2871094 L -4.6230469 7.2871094 L -1.4648438 7.2871094 L -1.4648438 8.5488281 L -1.4648438 9.8125 L -4.6230469 9.8125 L -7.7792969 9.8125 L -7.7792969 8.5488281 L -7.7792969 7.2871094 z M 8.5097656 7.2871094 C 9.8428469 7.2871094 10.253553 9.0568709 9.0585938 9.6523438 C 8.8820814 9.7403034 8.6350258 9.8125 8.5097656 9.8125 C 8.3845054 9.8125 8.1374497 9.7403037 7.9609375 9.6523438 C 6.7659788 9.0568708 7.1766843 7.2871094 8.5097656 7.2871094 z M 1.0898438 7.2988281 C 1.5237605 7.3264576 1.7679494 7.4619573 2.0546875 7.8378906 C 2.2069908 8.03757 2.2285156 8.1220364 2.2285156 8.5234375 C 2.2285156 8.9297632 2.2073899 9.0097469 2.0390625 9.2480469 C 1.9348905 9.3955229 1.7396871 9.5732368 1.6054688 9.6425781 C 1.0626765 9.9230009 0.4733352 9.8108514 0.068359375 9.3496094 C -0.32826441 8.8978799 -0.36079338 8.2807119 -0.01171875 7.7988281 C 0.25822621 7.4261797 0.60844727 7.268175 1.0898438 7.2988281 z M 1.0273438 15.556641 L -0.45507812 17.041016 L -1.9375 18.525391 L 1.0136719 18.525391 C 2.6367415 18.525391 3.9648438 18.516813 3.9648438 18.507812 C 3.9648437 18.498855 3.3037008 17.832449 2.4960938 17.025391 L 1.0273438 15.556641 z "
       id="path3501" />
  </g>
</svg>
