<?xml version="1.0" encoding="UTF-8" standalone="no"?>
<!-- Created with Inkscape (http://www.inkscape.org/) -->

<svg
   xmlns:dc="http://purl.org/dc/elements/1.1/"
   xmlns:cc="http://creativecommons.org/ns#"
   xmlns:rdf="http://www.w3.org/1999/02/22-rdf-syntax-ns#"
   xmlns:svg="http://www.w3.org/2000/svg"
   xmlns="http://www.w3.org/2000/svg"
   xmlns:sodipodi="http://sodipodi.sourceforge.net/DTD/sodipodi-0.dtd"
   xmlns:inkscape="http://www.inkscape.org/namespaces/inkscape"
   width="210mm"
   height="297mm"
   viewBox="0 0 744.09448819 1052.3622047"
   id="svg4397"
   version="1.1"
   inkscape:version="0.91 r13725"
   sodipodi:docname="icon_si_delta_v_engine.svg">
  <defs
     id="defs4399" />
  <sodipodi:namedview
     id="base"
     pagecolor="#ffffff"
     bordercolor="#666666"
     borderopacity="1.0"
     inkscape:pageopacity="0.0"
     inkscape:pageshadow="2"
     inkscape:zoom="11.2"
     inkscape:cx="-7.1159168"
     inkscape:cy="1055.826"
     inkscape:document-units="px"
     inkscape:current-layer="layer1"
     showgrid="false"
     inkscape:window-width="1920"
     inkscape:window-height="1028"
     inkscape:window-x="-8"
     inkscape:window-y="-8"
     inkscape:window-maximized="1" />
  <metadata
     id="metadata4402">
    <rdf:RDF>
      <cc:Work
         rdf:about="">
        <dc:format>image/svg+xml</dc:format>
        <dc:type
           rdf:resource="http://purl.org/dc/dcmitype/StillImage" />
        <dc:title></dc:title>
      </cc:Work>
    </rdf:RDF>
  </metadata>
  <g
     inkscape:label="Ebene 1"
     inkscape:groupmode="layer"
     id="layer1">
    <g
       id="g4416">
      <path
         style="fill:#c8c8c8"
         d="m -6.622459,10.477413 -4.88237,-5 -2.028422,0 -2.028423,0 -2.717892,-2.8930637 -2.717893,-2.8930638 0,-13.3569365 0,-13.356936 21.25,0 21.25,0 0,13.532108 0,13.532107 -2.893064,2.7178925 -2.893063,2.7178925 -1.853252,0 -1.853251,0 -4.88237,5 -4.88237,5 -1.99263,0 -1.99263,0 -4.88237,-5 z m 13.75,-1.25 4.88237,-5 1.835389,0 c 1.009464,0 2.864056,-0.93093 4.121315,-2.068735 l 2.285926,-2.06873375 0,-12.93126625 0,-12.931265 -20,0 -20,0 0,12.714074 0,12.71407475 2.068735,2.28592495 2.068734,2.2859263 2.052581,0 2.05258,0 4.88237,5 4.88237,5 1.99263,0 1.99263,0 4.88237,-5 z m -12.5,-1.25 -4.88237,-5 -2.05258,0 -2.052581,0 -2.068734,-2.28592625 -2.068735,-2.28592505 0,-11.4640747 0,-11.464074 18.75,0 18.75,0 0,11.681265 0,11.6812662 -2.285926,2.0687338 C 15.459356,2.046483 13.604764,2.977413 12.5953,2.977413 l -1.835389,0 -4.88237,5 c -2.6853038,2.75 -5.21655375,5 -5.625,5 -0.40844625,0 -2.9396962,-2.25 -5.625,-5 z m 10,-1.25 3.5927275,-3.75 -7.9677275,0 -7.9677275,0 3.5927275,3.75 c 1.976,2.0625 3.94475,3.75 4.375,3.75 0.43025,0 2.399,-1.6875 4.375,-3.75 z m 10,-7.5 0.772543,-1.25 -15.147543,0 -15.147542,0 0.772542,1.25 0.772543,1.25 13.602457,0 13.602458,0 0.772542,-1.25 z m 1.875,-12.5 0,-8.75 -16.25,0 -16.25,0 0,8.75 0,8.75 16.25,0 16.25,0 0,-8.75 z"
         id="path4418"
         inkscape:connector-curvature="0" />
    </g>
    <path
       style="fill:#a0a0a0;stroke:none;stroke-width:1px;stroke-linecap:butt;stroke-linejoin:miter;stroke-opacity:1"
       d="M -19.722656 -25.767578 L -19.722656 -13.064453 L -19.722656 -0.36132812 L -17.648438 1.9355469 L -15.576172 4.2324219 L -13.517578 4.2324219 L -11.458984 4.2324219 L -6.5957031 9.2265625 L -1.7324219 14.220703 L 0.23632812 14.226562 L 2.2050781 14.232422 L 7.0664062 9.2558594 L 11.929688 4.2773438 L 13.134766 4.2207031 C 14.489489 4.1561549 14.763453 4.0897451 15.748047 3.5996094 C 16.9183 3.0170513 17.431242 2.6272741 19.361328 0.859375 L 20.1875 0.10351562 L 20.1875 -12.832031 L 20.1875 -25.767578 L 0.23242188 -25.767578 L -19.722656 -25.767578 z M -18.5625 -24.517578 L 0.23242188 -24.517578 L 19.027344 -24.517578 L 19.027344 -12.830078 L 19.027344 -1.140625 L 17.666016 0.087890625 C 16.196923 1.4144701 15.092911 2.1907813 14.029297 2.6445312 C 13.402721 2.9118357 13.267065 2.9336666 12.048828 2.9785156 L 10.742188 3.0273438 L 7.7851562 6.0625 C 4.5535697 9.3805367 2.6689933 11.193556 1.3222656 12.279297 C 0.84182812 12.666629 0.3772152 12.982422 0.2890625 12.982422 C -0.23193304 12.982422 -1.8531276 11.514785 -6.421875 6.9042969 L -10.306641 2.9824219 L -12.359375 2.9804688 L -14.410156 2.9765625 L -16.484375 0.6796875 L -18.556641 -1.6152344 L -18.560547 -13.066406 L -18.5625 -24.517578 z M -15.806641 -21.884766 L -15.806641 -13.298828 L -15.806641 -4.7128906 L 0.35546875 -4.7128906 L 16.517578 -4.7128906 L 16.517578 -13.298828 L 16.517578 -21.884766 L 0.35546875 -21.884766 L -15.806641 -21.884766 z M 0.29296875 -1.9960938 C -7.9822427 -2.0085128 -14.769264 -2.0022269 -14.789062 -1.9824219 C -14.82139 -1.950097 -13.578859 0.09799741 -13.361328 0.37109375 C -13.290911 0.45949849 -10.455744 0.48242186 0.27539062 0.48242188 L 13.822266 0.48242188 L 14.580078 -0.74414062 L 15.339844 -1.9726562 L 0.29296875 -1.9960938 z M -3.6855469 3.0039062 L -7.6621094 3.0273438 L -5.0566406 5.6953125 C -2.2960836 8.5226095 -1.1647477 9.584654 -0.3203125 10.134766 C -0.00272616 10.341658 0.25771056 10.450759 0.34960938 10.417969 C 1.0464364 10.169324 2.8287153 8.5537747 5.6914062 5.5722656 L 8.1347656 3.0273438 L 4.2128906 3.0039062 C 2.0558361 2.9911214 -1.4984535 2.9911213 -3.6855469 3.0039062 z "
       id="path4422" />
  </g>
</svg>
