<?xml version="1.0" encoding="UTF-8" standalone="no"?>
<!-- Created with Inkscape (http://www.inkscape.org/) -->

<svg
   xmlns:dc="http://purl.org/dc/elements/1.1/"
   xmlns:cc="http://creativecommons.org/ns#"
   xmlns:rdf="http://www.w3.org/1999/02/22-rdf-syntax-ns#"
   xmlns:svg="http://www.w3.org/2000/svg"
   xmlns="http://www.w3.org/2000/svg"
   xmlns:sodipodi="http://sodipodi.sourceforge.net/DTD/sodipodi-0.dtd"
   xmlns:inkscape="http://www.inkscape.org/namespaces/inkscape"
   width="210mm"
   height="297mm"
   viewBox="0 0 744.09448819 1052.3622047"
   id="svg3354"
   version="1.1"
   inkscape:version="0.91 r13725"
   sodipodi:docname="icon_si_orbital_lander.svg">
  <defs
     id="defs3356" />
  <sodipodi:namedview
     id="base"
     pagecolor="#ffffff"
     bordercolor="#666666"
     borderopacity="1.0"
     inkscape:pageopacity="0.0"
     inkscape:pageshadow="2"
     inkscape:zoom="15.839192"
     inkscape:cx="-1.6771921"
     inkscape:cy="1050.9738"
     inkscape:document-units="px"
     inkscape:current-layer="layer1"
     showgrid="false"
     inkscape:window-width="1920"
     inkscape:window-height="1028"
     inkscape:window-x="-8"
     inkscape:window-y="-8"
     inkscape:window-maximized="1" />
  <metadata
     id="metadata3359">
    <rdf:RDF>
      <cc:Work
         rdf:about="">
        <dc:format>image/svg+xml</dc:format>
        <dc:type
           rdf:resource="http://purl.org/dc/dcmitype/StillImage" />
        <dc:title></dc:title>
      </cc:Work>
    </rdf:RDF>
  </metadata>
  <g
     inkscape:label="Ebene 1"
     inkscape:groupmode="layer"
     id="layer1">
    <path
       style="fill:#000000"
       d="m -10.724584,18.128282 -4.331727,-2.198813 -2.668273,-4.032033 -2.668273,-4.032033 0,-7.658528 0,-7.658529 2.86163,-4.129333 2.86163,-4.129334 4.204094,-2.035167 4.204095,-2.035167 5.368551,0 5.368551,0 4.204095,2.035167 4.204094,2.035167 2.820976,4.07067 2.820976,4.07067 0.403978,6.344344 0.403977,6.344343 -2.234472,4.615803 -2.234472,4.615804 -4.018336,2.659209 -4.018336,2.659209 -6.610516,0.328682 -6.610515,0.328682 -4.331727,-2.198813 z m 17.113846,-1.285776 3.217881,-1.376839 2.686382,-2.873161 c 1.477509,-1.580239 3.165009,-4.139956 3.75,-5.688261 l 1.063618,-2.815099 0,-3.967019 0,-3.967019 -1.376839,-3.217882 -1.376839,-3.217881 -2.873161,-2.686382 c -1.580239,-1.477509 -4.139956,-3.16501 -5.688261,-3.75 l -2.815099,-1.063618 -3.967019,0 -3.967019,0 -3.217882,1.376839 -3.217881,1.376839 -2.686382,2.873161 c -1.477509,1.580239 -3.165009,4.139956 -3.75,5.688261 l -1.063618,2.815099 0,3.869801 0,3.869801 1.063618,2.815099 c 0.584991,1.548305 2.272491,4.107403 3.75,5.686884 l 2.686382,2.871783 3,1.339075 3,1.339074 4.282119,0.03914 4.282118,0.03914 3.217882,-1.376839 z m -13.98357,-5.582677 -3.201452,-1.952039 -1.548548,-2.994563 -1.548549,-2.994562 0.0037,-3.29966 0.0037,-3.29966 1.95204,-3.201451 1.952039,-3.201452 2.994563,-1.548548 2.994638,-1.548549 3.09932,0 3.09932,0 2.994562,1.548549 2.994563,1.548548 1.952039,3.201452 1.95204,3.201451 0,3.5 0,3.5 -1.95204,3.201451 -1.952039,3.201452 -2.994563,1.548548 -2.994562,1.548549 -3.29966,-0.0037 -3.29966,-0.0037 -3.201451,-1.95204 z m 8.923673,-1.262706 -2.222222,-2.222222 -2.222222,2.222222 -2.222222,2.222222 4.444444,0 4.444444,0 -2.222222,-2.222222 z m 0.527778,-1.527928 2.75,2.624032 1.750022,-0.986643 1.750022,-0.986644 1.499978,-2.900637 1.499978,-2.900638 0,-3.09932 0,-3.09932 -1.516927,-2.933413 -1.516927,-2.933413 -2.933413,-1.516927 -2.933413,-1.516927 -3.09932,0 -3.09932,0 -2.933413,1.516927 -2.933413,1.516927 -1.516927,2.933413 -1.516927,2.933413 0,3.09932 0,3.09932 1.499978,2.900638 1.499978,2.900637 1.750022,0.986644 1.750022,0.986643 2.75,-2.624032 2.75,-2.624032 2.75,2.624032 z m -8.75,-9.24985 0,-6 6,0 6,0 0,6 0,6 -2,0 -2,0 0,-1 c 0,-0.55 0.45,-1 1,-1 l 1,0 0,-4 0,-4 -4,0 -4,0 0,4 0,4 1,0 c 0.55,0 1,0.45 1,1 l 0,1 -2,0 -2,0 0,-6 z"
       id="path3373"
       inkscape:connector-curvature="0" />
    <path
       style="fill:#a0a0a0;stroke:none;stroke-width:1px;stroke-linecap:butt;stroke-linejoin:miter;stroke-opacity:1"
       d="M -5.0058594 -17.728516 L -8.2011719 -16.355469 L -11.394531 -14.982422 L -12.925781 -13.341797 C -14.559372 -11.590314 -14.975843 -11.09847 -15.773438 -9.9804688 C -16.945531 -8.3375269 -17.463601 -7.348281 -18.271484 -5.2089844 L -18.863281 -3.6425781 L -18.861328 0.22070312 L -18.861328 4.0839844 L -18.300781 5.5683594 C -17.45762 7.7966618 -17.249195 8.2129186 -16.173828 9.8300781 C -15.330434 11.098393 -14.611865 11.97035 -12.884766 13.818359 L -11.361328 15.449219 L -8.3828125 16.773438 L -5.4042969 18.099609 L -2.5527344 18.132812 C -0.98416061 18.150703 0.9533013 18.169881 1.7519531 18.175781 L 3.203125 18.1875 L 6.390625 16.814453 L 9.578125 15.443359 L 11.085938 13.835938 C 13.078489 11.710431 13.752532 10.867105 14.837891 9.1386719 C 15.47358 8.126338 15.873417 7.2791253 16.486328 5.6484375 L 17.060547 4.1191406 L 17.060547 0.12695312 L 17.060547 -3.8632812 L 15.695312 -7.0644531 L 14.330078 -10.267578 L 12.554688 -11.916016 C 10.36105 -13.952867 9.062924 -14.948277 7.296875 -15.951172 C 6.5210481 -16.391745 6.1640757 -16.546392 4.4746094 -17.183594 L 3.0332031 -17.728516 L -0.98632812 -17.728516 L -5.0058594 -17.728516 z M -4.015625 -12.804688 L -0.890625 -12.804688 L 2.234375 -12.804688 L 5.1816406 -11.28125 C 6.8020964 -10.443725 8.1602443 -9.7267558 8.2011719 -9.6875 C 8.2420995 -9.6482442 9.1454721 -8.1905399 10.207031 -6.4492188 L 12.136719 -3.2832031 L 12.136719 0.21875 L 12.136719 3.7207031 L 10.179688 6.9316406 L 8.2207031 10.142578 L 5.2070312 11.705078 L 2.1933594 13.267578 L -1.0898438 13.267578 L -4.3730469 13.265625 L -7.5957031 11.298828 L -10.818359 9.3300781 L -12.378906 6.3164062 L -13.9375 3.3007812 L -13.9375 0.0234375 L -13.9375 -3.2539062 L -11.970703 -6.4824219 L -10.001953 -9.7089844 L -7.0097656 -11.255859 L -4.015625 -12.804688 z M -4.0214844 -11.730469 L -6.9257812 -10.232422 L -9.8300781 -8.7324219 L -11.347656 -5.796875 L -12.863281 -2.8613281 L -12.865234 0.22460938 L -12.865234 3.3085938 L -11.365234 6.203125 L -9.8671875 9.0976562 L -8.1308594 10.078125 L -6.3925781 11.056641 L -5.9199219 10.595703 C -5.4541216 10.14281 -1.4691629 6.352685 -1.0800781 5.9921875 L -0.88085938 5.8066406 L 1.8652344 8.4316406 L 4.609375 11.056641 L 6.3496094 10.074219 L 8.0878906 9.09375 L 9.5761719 6.2128906 L 11.0625 3.3300781 L 11.060547 0.203125 L 11.058594 -2.9238281 L 9.5546875 -5.8222656 L 8.0488281 -8.7207031 L 5.1523438 -10.224609 L 2.2558594 -11.726562 L -0.8828125 -11.728516 L -4.0214844 -11.730469 z M -6.9296875 -6.8066406 L -0.90039062 -6.8066406 L 5.1289062 -6.8066406 L 5.1289062 -0.77734375 L 5.1289062 5.2519531 L 3.109375 5.2519531 L 1.0878906 5.2519531 L 1.0878906 4.6191406 C 1.0878906 3.8708865 1.1994627 3.5824287 1.5761719 3.3496094 C 1.7758557 3.2261984 1.9189225 3.197799 2.4609375 3.1777344 L 3.109375 3.1542969 L 3.109375 -0.78515625 L 3.109375 -4.7226562 L -0.86914062 -4.7226562 L -4.8457031 -4.7226562 L -4.8457031 -0.78515625 L -4.8457031 3.1542969 L -4.2285156 3.1796875 C -3.5298316 3.2077508 -3.2724858 3.3119523 -3.03125 3.6699219 C -2.9053586 3.856732 -2.8886719 3.9601279 -2.8886719 4.5664062 L -2.8886719 5.2519531 L -4.9101562 5.2519531 L -6.9296875 5.2519531 L -6.9296875 -0.77734375 L -6.9296875 -6.8066406 z M -0.90039062 7.8398438 L -3.078125 10.019531 L -5.2558594 12.197266 L -0.91601562 12.197266 C 1.4710705 12.197266 3.4238281 12.190541 3.4238281 12.181641 C 3.4238281 12.172771 2.4512031 11.191063 1.2617188 10.001953 L -0.90039062 7.8398438 z "
       id="path3375" />
  </g>
</svg>
