<?xml version="1.0" encoding="UTF-8" standalone="no"?>
<!-- Created with Inkscape (http://www.inkscape.org/) -->

<svg
   xmlns:dc="http://purl.org/dc/elements/1.1/"
   xmlns:cc="http://creativecommons.org/ns#"
   xmlns:rdf="http://www.w3.org/1999/02/22-rdf-syntax-ns#"
   xmlns:svg="http://www.w3.org/2000/svg"
   xmlns="http://www.w3.org/2000/svg"
   xmlns:sodipodi="http://sodipodi.sourceforge.net/DTD/sodipodi-0.dtd"
   xmlns:inkscape="http://www.inkscape.org/namespaces/inkscape"
   width="210mm"
   height="297mm"
   viewBox="0 0 744.09448819 1052.3622047"
   id="svg3354"
   version="1.1"
   inkscape:version="0.91 r13725"
   sodipodi:docname="icon_si_tank_heavy_mortar.svg">
  <defs
     id="defs3356" />
  <sodipodi:namedview
     id="base"
     pagecolor="#ffffff"
     bordercolor="#666666"
     borderopacity="1.0"
     inkscape:pageopacity="0.0"
     inkscape:pageshadow="2"
     inkscape:zoom="15.839192"
     inkscape:cx="-5.0520085"
     inkscape:cy="1051.1467"
     inkscape:document-units="px"
     inkscape:current-layer="layer1"
     showgrid="false"
     inkscape:window-width="1920"
     inkscape:window-height="1028"
     inkscape:window-x="-8"
     inkscape:window-y="-8"
     inkscape:window-maximized="1" />
  <metadata
     id="metadata3359">
    <rdf:RDF>
      <cc:Work
         rdf:about="">
        <dc:format>image/svg+xml</dc:format>
        <dc:type
           rdf:resource="http://purl.org/dc/dcmitype/StillImage" />
        <dc:title></dc:title>
      </cc:Work>
    </rdf:RDF>
  </metadata>
  <g
     inkscape:label="Ebene 1"
     inkscape:groupmode="layer"
     id="layer1">
    <path
       style="fill:#000000"
       d="m -16.616117,6.4047277 0,-6.0047912 4.122009,-3.9952087 4.1220085,-3.9952088 1.7349275,0 1.7349275,0 2.8930637,-2.717892 2.8930638,-2.717893 2.8930637,2.717893 2.8930638,2.717892 1.8617275,0 1.861728,0 3.995208,4.1220088 3.995209,4.1220087 0,5.8779913 0,5.8779912 -17.5,0 -17.5,0 0,-6.0047913 z M -2.0091807,8.4416265 0.883883,5.723734 l 2.8930637,2.7178925 2.8930638,2.7178925 5.2319365,0 5.231936,0 0,-5.3911362 0,-5.3911363 -3.505899,-3.3588637 -3.505898,-3.3588638 -1.726038,0 -1.7260375,0 -2.8930638,-2.7178925 -2.8930637,-2.7178925 -2.8930637,2.7178925 -2.8930638,2.7178925 -1.7260375,0 -1.7260375,0 -3.5058985,3.3588638 -3.505899,3.3588637 0,5.3911363 0,5.3911362 5.231936,0 5.2319365,0 2.8930638,-2.7178925 z M -6.616117,2.409519 l 0,-1.25 3.75,0 3.75,0 0,1.25 0,1.25 -3.75,0 -3.75,0 0,-1.25 z m 8.75,0 c 0,-0.6875 0.5625,-1.25 1.25,-1.25 0.6875,0 1.25,0.5625 1.25,1.25 0,0.6875 -0.5625,1.25 -1.25,1.25 -0.6875,0 -1.25,-0.5625 -1.25,-1.25 z m 3.75,0 c 0,-0.6875 0.5625,-1.25 1.25,-1.25 0.6875,0 1.25,0.5625 1.25,1.25 0,0.6875 -0.5625,1.25 -1.25,1.25 -0.6875,0 -1.25,-0.5625 -1.25,-1.25 z m -7.2744388,-6.5625 0.3994388,-2.8125 1.875,0 1.875,0 0.3994388,2.8125 0.3994387,2.8125 -2.6738775,0 -2.6738775,0 0.3994387,-2.8125 z m 3.7744388,13.8125 -1.5,-1.5 -1.5,1.5 -1.5,1.5 3,0 3,0 -1.5,-1.5 z"
       id="path3373"
       inkscape:connector-curvature="0" />
    <path
       style="fill:#a0a0a0;stroke:none;stroke-width:1px;stroke-linecap:butt;stroke-linejoin:miter;stroke-opacity:1"
       d="M 0.86328125 -11.699219 C 0.84262931 -11.690616 -0.46436388 -10.468021 -2.0410156 -8.984375 L -4.90625 -6.2871094 L -6.6425781 -6.2851562 L -8.3789062 -6.28125 L -11.867188 -2.9335938 L -15.355469 0.4140625 L -15.355469 5.7773438 L -15.355469 11.140625 L -10.130859 11.136719 L -4.90625 11.132812 L -2.0332031 8.4238281 C -0.45326137 6.933718 0.8554697 5.7140081 0.87695312 5.7128906 C 0.89843717 5.7117763 2.2183251 6.9326495 3.8085938 8.4257812 L 6.6992188 11.140625 L 11.898438 11.140625 L 17.095703 11.140625 L 17.09375 5.7578125 L 17.09375 0.375 L 13.613281 -2.9550781 L 10.132812 -6.2851562 L 8.40625 -6.2851562 L 6.6796875 -6.2851562 L 3.7910156 -9 C 2.2019459 -10.493054 0.88393315 -11.707819 0.86328125 -11.699219 z M -1.0097656 -6.9804688 L 0.890625 -6.9648438 L 2.7910156 -6.9472656 L 3.1464844 -4.453125 C 3.3419501 -3.0815272 3.5210981 -1.8112072 3.5449219 -1.6289062 L 3.5898438 -1.296875 L 0.90429688 -1.296875 L -1.78125 -1.296875 L -1.78125 -1.4550781 C -1.78125 -1.5980317 -1.134381 -6.2851454 -1.046875 -6.7753906 L -1.0097656 -6.9804688 z M -6.6425781 1.1015625 L -2.8710938 1.1171875 L 0.90234375 1.1328125 L 0.91796875 2.4121094 L 0.93554688 3.6894531 L -2.8535156 3.6894531 L -6.6425781 3.6894531 L -6.6425781 2.3964844 L -6.6425781 1.1015625 z M 3.4140625 1.1484375 C 3.5155189 1.1520693 3.6207362 1.1678615 3.7265625 1.1953125 C 4.7990484 1.4735117 4.9800386 3.0170935 4 3.5234375 C 3.1188572 3.9786861 2.1328125 3.3939302 2.1328125 2.4179688 C 2.1328125 1.6570953 2.7038676 1.1230152 3.4140625 1.1484375 z M 7.0996094 1.1484375 C 7.8063905 1.1221282 8.3828125 1.6475008 8.3828125 2.3886719 C 8.3828125 2.9571024 8.1092386 3.383757 7.6113281 3.5917969 C 7.1472211 3.7857134 6.6203336 3.6774095 6.2382812 3.3066406 C 5.5471714 2.635941 5.8595656 1.4364208 6.7890625 1.1953125 C 6.8940345 1.1680831 6.9986406 1.152196 7.0996094 1.1484375 z M 0.86914062 8.2050781 L -0.59765625 9.671875 L -2.0644531 11.140625 L 0.86914062 11.140625 L 3.8046875 11.140625 L 2.3378906 9.671875 L 0.86914062 8.2050781 z "
       id="path3375" />
  </g>
</svg>
