<?xml version="1.0" encoding="UTF-8" standalone="no"?>
<!-- Created with Inkscape (http://www.inkscape.org/) -->

<svg
   xmlns:dc="http://purl.org/dc/elements/1.1/"
   xmlns:cc="http://creativecommons.org/ns#"
   xmlns:rdf="http://www.w3.org/1999/02/22-rdf-syntax-ns#"
   xmlns:svg="http://www.w3.org/2000/svg"
   xmlns="http://www.w3.org/2000/svg"
   xmlns:sodipodi="http://sodipodi.sourceforge.net/DTD/sodipodi-0.dtd"
   xmlns:inkscape="http://www.inkscape.org/namespaces/inkscape"
   width="210mm"
   height="297mm"
   viewBox="0 0 744.09448819 1052.3622047"
   id="svg3462"
   version="1.1"
   inkscape:version="0.91 r13725"
   sodipodi:docname="icon_si_control_module.svg">
  <defs
     id="defs3464" />
  <sodipodi:namedview
     id="base"
     pagecolor="#ffffff"
     bordercolor="#666666"
     borderopacity="1.0"
     inkscape:pageopacity="0.0"
     inkscape:pageshadow="2"
     inkscape:zoom="7.9195959"
     inkscape:cx="21.384632"
     inkscape:cy="1055.1158"
     inkscape:document-units="px"
     inkscape:current-layer="layer1"
     showgrid="false"
     inkscape:window-width="1920"
     inkscape:window-height="1028"
     inkscape:window-x="-8"
     inkscape:window-y="-8"
     inkscape:window-maximized="1" />
  <metadata
     id="metadata3467">
    <rdf:RDF>
      <cc:Work
         rdf:about="">
        <dc:format>image/svg+xml</dc:format>
        <dc:type
           rdf:resource="http://purl.org/dc/dcmitype/StillImage" />
        <dc:title></dc:title>
      </cc:Work>
    </rdf:RDF>
  </metadata>
  <g
     inkscape:label="Ebene 1"
     inkscape:groupmode="layer"
     id="layer1">
    <g
       id="g3481">
      <path
         style="fill:#c8c8c8"
         d="m -14.494925,15.780716 0,-11.25 -1.25,0 -1.25,0 0,-16.25 0,-16.25 17.5,0 17.5,0 0,16.25 0,16.25 -1.25,0 -1.25,0 0,11.25 0,11.25 -15,0 -15,0 0,-11.25 z m 28.75,-1.25 0,-11.25 1.25,0 1.25,0 0,-15 0,-15 -7.5,0 -7.5,0 0,6.875 0,6.875 -1.25,0 -1.25,0 0,-6.875 0,-6.875 -7.5,0 -7.5,0 0,15 0,15 1.25,0 1.25,0 0,11.25 0,11.25 13.75,0 13.75,0 0,-11.25 z m -26.25,-1.25 0,-11.25 -1.25,0 -1.25,0 0,-13.75 0,-13.75 6.25,0 6.25,0 0,6.875 0,6.875 2.5,0 2.5,0 0,-6.875 0,-6.875 6.25,0 6.25,0 0,13.75 0,13.75 -1.25,0 -1.25,0 0,11.25 0,11.25 -12.5,0 -12.5,0 0,-11.25 z m 22.5,-2.5 0,-11.25 1.25,0 1.25,0 0,-11.25 0,-11.25 -3.75,0 -3.75,0 0,6.875 0,6.875 -5,0 -5,0 0,-6.875 0,-6.875 -3.75,0 -3.75,0 0,11.25 0,11.25 1.25,0 1.25,0 0,11.25 0,11.25 10,0 10,0 0,-11.25 z m -17.5,-11.25 0,-7.5 7.5,0 7.5,0 0,7.5 0,7.5 -7.5,0 -7.5,0 0,-7.5 z m 13.75,0 0,-6.25 -6.25,0 -6.25,0 0,6.25 0,6.25 6.25,0 6.25,0 0,-6.25 z"
         id="path3483"
         inkscape:connector-curvature="0" />
    </g>
    <path
       style="fill:#a0a0a0;stroke:none;stroke-width:1px;stroke-linecap:butt;stroke-linejoin:miter;stroke-opacity:1"
       d="M -15.763672 -26.71875 L -15.763672 -11.755859 L -15.763672 3.2070312 L -14.501953 3.2070312 L -13.238281 3.2070312 L -13.238281 14.443359 L -13.238281 25.681641 L 0.4609375 25.681641 L 14.160156 25.681641 L 14.193359 14.476562 L 14.224609 3.2695312 L 15.457031 3.2324219 L 16.6875 3.1972656 L 16.6875 -11.761719 L 16.6875 -26.71875 L 9.2382812 -26.71875 L 1.7871094 -26.71875 L 1.7871094 -19.837891 L 1.7871094 -12.957031 L 0.52539062 -12.957031 L -0.73828125 -12.957031 L -0.73828125 -19.837891 L -0.73828125 -26.71875 L -8.25 -26.71875 L -15.763672 -26.71875 z M -14.501953 -25.457031 L -8.25 -25.457031 L -2 -25.457031 L -2 -18.638672 L -2 -11.820312 L 0.4609375 -11.820312 L 2.9238281 -11.820312 L 2.9238281 -18.638672 L 2.9238281 -25.457031 L 9.2382812 -25.457031 L 15.550781 -25.457031 L 15.550781 -11.693359 L 15.550781 2.0703125 L 14.289062 2.0703125 L 13.025391 2.0703125 L 13.025391 13.308594 L 13.025391 24.544922 L 0.52539062 24.544922 L -11.976562 24.544922 L -11.976562 13.308594 L -11.976562 2.0703125 L -13.238281 2.0703125 L -14.501953 2.0703125 L -14.501953 -11.693359 L -14.501953 -25.457031 z M -11.976562 -22.931641 L -11.976562 -11.693359 L -11.976562 -0.45507812 L -10.712891 -0.45507812 L -9.4511719 -0.45507812 L -9.4511719 10.783203 L -9.4511719 22.019531 L 0.52539062 22.019531 L 10.5 22.019531 L 10.5 10.787109 L 10.5 -0.44726562 L 11.730469 -0.48242188 L 12.962891 -0.51953125 L 12.994141 -11.724609 L 13.027344 -22.931641 L 9.3007812 -22.931641 L 5.5761719 -22.931641 L 5.5761719 -16.048828 L 5.5761719 -9.1679688 L 0.52539062 -9.1679688 L -4.5253906 -9.1679688 L -4.5253906 -16.048828 L -4.5253906 -22.931641 L -8.25 -22.931641 L -11.976562 -22.931641 z M -7.0507812 -8.0332031 L 0.49414062 -8.0019531 L 8.0371094 -7.96875 L 8.0371094 -0.45507812 L 8.0371094 7.0566406 L 0.578125 7.0898438 C -3.5245483 7.1077508 -6.9199529 7.0839544 -6.9667969 7.0371094 C -7.0136419 6.9902649 -7.0507813 3.5801113 -7.0507812 -0.54101562 L -7.0507812 -8.0332031 z M -5.6621094 -6.6425781 L -5.6621094 -0.45507812 L -5.6621094 5.7324219 L 0.52539062 5.7324219 L 6.7128906 5.7324219 L 6.7128906 -0.45507812 L 6.7128906 -6.6425781 L 0.52539062 -6.6425781 L -5.6621094 -6.6425781 z "
       id="path3487" />
  </g>
</svg>
