<?xml version="1.0" encoding="UTF-8" standalone="no"?>
<!-- Created with Inkscape (http://www.inkscape.org/) -->

<svg
   xmlns:dc="http://purl.org/dc/elements/1.1/"
   xmlns:cc="http://creativecommons.org/ns#"
   xmlns:rdf="http://www.w3.org/1999/02/22-rdf-syntax-ns#"
   xmlns:svg="http://www.w3.org/2000/svg"
   xmlns="http://www.w3.org/2000/svg"
   xmlns:sodipodi="http://sodipodi.sourceforge.net/DTD/sodipodi-0.dtd"
   xmlns:inkscape="http://www.inkscape.org/namespaces/inkscape"
   width="210mm"
   height="297mm"
   viewBox="0 0 744.09448819 1052.3622047"
   id="svg3631"
   version="1.1"
   inkscape:version="0.91 r13725"
   sodipodi:docname="icon_si_land_mine.svg">
  <defs
     id="defs3633" />
  <sodipodi:namedview
     id="base"
     pagecolor="#ffffff"
     bordercolor="#666666"
     borderopacity="1.0"
     inkscape:pageopacity="0.0"
     inkscape:pageshadow="2"
     inkscape:zoom="63.356767"
     inkscape:cx="0.90278684"
     inkscape:cy="1051.4665"
     inkscape:document-units="px"
     inkscape:current-layer="layer1"
     showgrid="false"
     inkscape:window-width="1920"
     inkscape:window-height="1028"
     inkscape:window-x="-8"
     inkscape:window-y="-8"
     inkscape:window-maximized="1" />
  <metadata
     id="metadata3636">
    <rdf:RDF>
      <cc:Work
         rdf:about="">
        <dc:format>image/svg+xml</dc:format>
        <dc:type
           rdf:resource="http://purl.org/dc/dcmitype/StillImage" />
        <dc:title></dc:title>
      </cc:Work>
    </rdf:RDF>
  </metadata>
  <g
     inkscape:label="Ebene 1"
     inkscape:groupmode="layer"
     id="layer1">
    <path
       style="fill:none;fill-rule:evenodd;stroke:#000000;stroke-width:1px;stroke-linecap:butt;stroke-linejoin:miter;stroke-opacity:1"
       d="m -5.0507627,-1.7320018 0.7260471,0.83653258 0.4419417,0.97858529 -0.078918,1.04171983 -0.7891817,0.473509 -0.1578363,1.2153398 0.1104854,0.7891817 0.3788072,0.599778 0.5366435,0.3630236 0.9154508,0.2525381 1.8624688,-0.015784 0.66291246,-0.757614 L 0.2367545,3.79227 0.77339804,3.8711881 1.0575034,4.7235043 1.9256033,5.2601479 3.2198612,5.1496624 3.961692,4.9602588 4.6246046,4.6130189 5.2875172,3.8396209 5.5242717,2.3717429 5.2717336,1.6614794 4.7666573,1.2353213 3.8985575,0.36722147 4.1195284,-0.54822928 5.3033009,-0.95860375 c 0,0 0.2841054,-1.76776695 0.2841054,-1.83090145 0,-0.063135 -0.5524272,-1.1837726 -0.5524272,-1.1837726 L 3.8669902,-4.825594 2.2886269,-5.0149976 1.1364216,-4.4152195 c 0,0 -0.15783632,0.5997781 -0.23675449,0.5997781 -0.0789182,0 -1.27847432,-0.094702 -1.27847432,-0.094702 l -0.5208599,-0.5050763 -0.25253819,-0.4419417 -1.3416088,-0.015784 -1.1048544,0.3314563 -0.2367545,0.4577254 -0.773398,0.6629126 -0.5208599,0.2998891 z"
       id="path3665"
       inkscape:connector-curvature="0" />
    <path
       style="fill:#a0a0a0;stroke:none;stroke-width:1px;stroke-linecap:butt;stroke-linejoin:miter;stroke-opacity:1"
       d="M 1.7835136,4.5763256 C 1.6402771,4.4880927 1.511485,4.4040795 1.497309,4.3896292 1.4831329,4.3751792 1.4023409,4.1538285 1.3177711,3.8977391 1.2332014,3.6416496 1.1595684,3.4275337 1.1541421,3.421926 1.148716,3.4163182 0.92810599,3.3800255 0.66389775,3.3412754 L 0.18351908,3.2708207 -0.25709999,3.434637 c -0.24234049,0.090099 -0.45309762,0.1704945 -0.46834903,0.1786567 -0.0152514,0.00816 -0.15721888,0.1631837 -0.31548328,0.344492 L -1.3286858,4.287437 -1.623217,4.2977306 c -0.1619924,0.00566 -0.5169106,0.010314 -0.7887073,0.010338 L -2.9061,4.3081136 -3.287512,4.2033156 -3.6689241,4.0985178 -3.8594273,3.967636 -4.0499306,3.8367543 l -0.129911,-0.2065945 -0.129911,-0.2065947 -0.043633,-0.3035025 -0.043633,-0.3035024 0.057212,-0.443194 c 0.031467,-0.2437568 0.061685,-0.4504315 0.067152,-0.4592769 0.00547,-0.00885 0.1875524,-0.121924 0.4046346,-0.2512857 0.3446472,-0.2053791 0.3948263,-0.2402066 0.3957309,-0.2746623 5.698e-4,-0.021702 0.024477,-0.3448443 0.053126,-0.71809278 l 0.05209,-0.67863359 -0.2618149,-0.58059764 -0.2618149,-0.58059769 -0.3324155,-0.3836117 -0.3324155,-0.3836117 -0.019176,-0.3774622 c -0.010547,-0.207604 -0.022985,-0.409558 -0.027642,-0.4487866 l -0.00847,-0.071325 0.1469781,-0.08357 c 0.1092225,-0.062102 0.2603158,-0.1807287 0.5881892,-0.4617984 l 0.4412111,-0.3782287 0.095124,-0.1796732 0.095124,-0.1796733 0.3981494,-0.1197903 0.3981492,-0.1197904 0.4974558,0 0.4974556,0 0.07285,0.1263001 c 0.062031,0.1075438 0.124795,0.1767864 0.42263627,0.4662629 0.19238261,0.1869796 0.3639919,0.3429216 0.3813539,0.3465377 0.0549401,0.011443 1.32140722,0.1028621 1.4232688,0.1027379 0.34510413,-4.206e-4 0.52055213,-0.1623877 0.67555273,-0.6236452 l 0.042456,-0.1263419 0.4095262,-0.2136306 0.4095263,-0.2136306 0.6190582,0.074999 c 0.3404821,0.041249 0.6297244,0.075268 0.6427606,0.075597 0.013036,3.288e-4 0.2403206,0.1587321 0.5050763,0.3520073 l 0.4813739,0.3514096 0.057848,0.1181535 c 0.031816,0.064984 0.1300507,0.2697056 0.2182983,0.4549359 l 0.1604501,0.3367823 -0.088209,0.5628848 c -0.124739,0.7959923 -0.1291115,0.8225257 -0.1365338,0.8285063 -0.00367,0.00295 -0.2623614,0.09316 -0.5748773,0.2004575 -0.312516,0.1072971 -0.5717621,0.20034529 -0.5761026,0.20677349 -0.00434,0.006428 -0.085665,0.33563455 -0.1807211,0.73156952 L 3.3397829,0.52144671 3.867744,1.051208 c 0.2903784,0.2913688 0.6273978,0.6152379 0.7489318,0.7197093 l 0.2209709,0.1899479 0.082811,0.2284963 0.082811,0.2284964 -0.094649,0.5844477 c -0.052057,0.3214462 -0.094649,0.5899832 -0.094649,0.5967489 0,0.00677 -0.1145056,0.145988 -0.2544569,0.3093832 L 4.3050573,4.2055199 4.0381062,4.3452594 C 3.7856697,4.4774009 3.7546647,4.4892718 3.4678683,4.5635871 3.1912387,4.635268 3.1292055,4.6453984 2.7620989,4.6788435 2.5407334,4.699011 2.2885899,4.72029 2.2017799,4.7261303 L 2.0439435,4.7367491 1.7835136,4.5763256 Z"
       id="path3667"
       inkscape:connector-curvature="0" />
  </g>
</svg>
