<?xml version="1.0" encoding="UTF-8" standalone="no"?>
<!-- Created with Inkscape (http://www.inkscape.org/) -->

<svg
   xmlns:dc="http://purl.org/dc/elements/1.1/"
   xmlns:cc="http://creativecommons.org/ns#"
   xmlns:rdf="http://www.w3.org/1999/02/22-rdf-syntax-ns#"
   xmlns:svg="http://www.w3.org/2000/svg"
   xmlns="http://www.w3.org/2000/svg"
   xmlns:sodipodi="http://sodipodi.sourceforge.net/DTD/sodipodi-0.dtd"
   xmlns:inkscape="http://www.inkscape.org/namespaces/inkscape"
   width="210mm"
   height="297mm"
   viewBox="0 0 744.09448819 1052.3622047"
   id="svg4282"
   version="1.1"
   inkscape:version="0.91 r13725"
   sodipodi:docname="icon_si_missile_ship.svg">
  <defs
     id="defs4284" />
  <sodipodi:namedview
     id="base"
     pagecolor="#ffffff"
     bordercolor="#666666"
     borderopacity="1.0"
     inkscape:pageopacity="0.0"
     inkscape:pageshadow="2"
     inkscape:zoom="22.4"
     inkscape:cx="0.49678871"
     inkscape:cy="1050.9526"
     inkscape:document-units="px"
     inkscape:current-layer="layer1"
     showgrid="false"
     inkscape:window-width="1920"
     inkscape:window-height="1028"
     inkscape:window-x="-8"
     inkscape:window-y="-8"
     inkscape:window-maximized="1" />
  <metadata
     id="metadata4287">
    <rdf:RDF>
      <cc:Work
         rdf:about="">
        <dc:format>image/svg+xml</dc:format>
        <dc:type
           rdf:resource="http://purl.org/dc/dcmitype/StillImage" />
        <dc:title></dc:title>
      </cc:Work>
    </rdf:RDF>
  </metadata>
  <g
     inkscape:label="Ebene 1"
     inkscape:groupmode="layer"
     id="layer1">
    <path
       style="fill:#000000"
       d="m -17,0.18363 0,-8.5 3.685549,0 3.685549,0 2.314451,-2.174314 L -5,-12.664998 l 2.314451,2.174314 2.314451,2.174314 8.685549,0 8.685549,0 0,3.28416 0,3.28416 -5.281445,5.21584 -5.281446,5.21584 -11.718554,0 -11.718555,0 0,-8.5 z M -7.314451,5.509316 -5,3.335002 l 2.314451,2.174314 2.314451,2.174314 3.4012,0 3.4012,0 L 11.215651,2.971222 16,-1.741186 l 0,-2.787592 0,-2.787592 -8.185549,0 -8.185549,0 L -2.685549,-9.490684 -5,-11.664998 l -2.314451,2.174314 -2.314451,2.174314 -3.185549,0 -3.185549,0 0,7.5 0,7.5 3.185549,0 3.185549,0 2.314451,-2.174314 z M -9,-0.31637 l 0,-1 4,0 4,0 0,1 0,1 -4,0 -4,0 0,-1 z m 1.981818,-4.381818 C -6.458182,-5.258188 -6,-6.52637 -6,-7.51637 l 0,-1.8 1,0 1,0 0,1.8 c 0,0.99 0.458182,2.258182 1.018182,2.818182 l 1.018182,1.018182 -3.036364,0 -3.036364,0 1.018182,-1.018182 z M -3.8,6.48363 l -1.2,-1.2 -1.2,1.2 -1.2,1.2 2.4,0 2.4,0 -1.2,-1.2 z"
       id="path4301"
       inkscape:connector-curvature="0" />
    <path
       style="fill:#a0a0a0;stroke:none;stroke-width:1px;stroke-linecap:butt;stroke-linejoin:miter;stroke-opacity:1"
       d="M -5.0039062 -11.615234 C -5.016183 -11.614546 -6.0597098 -10.640745 -7.3242188 -9.4511719 L -9.6230469 -7.2890625 L -12.804688 -7.2871094 L -15.986328 -7.2871094 L -15.986328 0.19140625 L -15.986328 7.6679688 L -12.814453 7.6679688 L -9.6445312 7.6679688 L -7.3417969 5.5039062 C -6.0749625 4.313058 -5.020759 3.3378906 -5 3.3378906 C -4.9792411 3.3378906 -3.9252022 4.313058 -2.6582031 5.5039062 L -0.35546875 7.6679688 L 3.0292969 7.6679688 L 6.4140625 7.6679688 L 11.197266 2.9570312 L 15.978516 -1.7558594 L 15.978516 -4.5214844 L 15.978516 -7.2871094 L 7.7988281 -7.2890625 L -0.3828125 -7.2910156 L -2.6816406 -9.453125 C -3.9461496 -10.642837 -4.9916292 -11.615923 -5.0039062 -11.615234 z M -6.0214844 -9.3398438 L -5 -9.3398438 L -3.9765625 -9.3398438 L -3.9765625 -8.2753906 C -3.9765625 -7.1124589 -3.9302014 -6.7144839 -3.7265625 -6.1015625 C -3.483479 -5.3699187 -3.3021523 -5.0925049 -2.6054688 -4.3828125 C -2.25433 -4.025117 -1.9667969 -3.7179179 -1.9667969 -3.7011719 C -1.9667969 -3.6844259 -3.3364294 -3.6699219 -5.0097656 -3.6699219 L -8.0527344 -3.6699219 L -7.4511719 -4.2851562 C -6.6899866 -5.0633019 -6.443625 -5.4742759 -6.1816406 -6.3964844 C -6.0673154 -6.7989192 -6.0598266 -6.8774071 -6.0410156 -8.0800781 L -6.0214844 -9.3398438 z M -9.0214844 -1.3496094 L -5.0039062 -1.3496094 L -0.98632812 -1.3496094 L -0.98632812 -0.32226562 L -0.98632812 0.70507812 L -5.0039062 0.70507812 L -9.0214844 0.70507812 L -9.0214844 -0.32226562 L -9.0214844 -1.3496094 z M -5.0039062 5.3242188 L -6.1757812 6.4960938 L -7.3476562 7.6679688 L -5.0039062 7.6679688 L -2.6601562 7.6679688 L -3.8320312 6.4960938 L -5.0039062 5.3242188 z "
       id="path4303" />
  </g>
</svg>
