<?xml version="1.0" encoding="UTF-8" standalone="no"?>
<!-- Created with Inkscape (http://www.inkscape.org/) -->

<svg
   xmlns:dc="http://purl.org/dc/elements/1.1/"
   xmlns:cc="http://creativecommons.org/ns#"
   xmlns:rdf="http://www.w3.org/1999/02/22-rdf-syntax-ns#"
   xmlns:svg="http://www.w3.org/2000/svg"
   xmlns="http://www.w3.org/2000/svg"
   xmlns:sodipodi="http://sodipodi.sourceforge.net/DTD/sodipodi-0.dtd"
   xmlns:inkscape="http://www.inkscape.org/namespaces/inkscape"
   width="210mm"
   height="297mm"
   viewBox="0 0 744.09448819 1052.3622047"
   id="svg3555"
   version="1.1"
   inkscape:version="0.91 r13725"
   sodipodi:docname="icon_si_assault_bot.svg">
  <defs
     id="defs3557" />
  <sodipodi:namedview
     id="base"
     pagecolor="#ffffff"
     bordercolor="#666666"
     borderopacity="1.0"
     inkscape:pageopacity="0.0"
     inkscape:pageshadow="2"
     inkscape:zoom="7.9195959"
     inkscape:cx="12.502009"
     inkscape:cy="1041.5574"
     inkscape:document-units="px"
     inkscape:current-layer="layer1"
     showgrid="false"
     inkscape:window-width="1920"
     inkscape:window-height="1028"
     inkscape:window-x="-8"
     inkscape:window-y="-8"
     inkscape:window-maximized="1" />
  <metadata
     id="metadata3560">
    <rdf:RDF>
      <cc:Work
         rdf:about="">
        <dc:format>image/svg+xml</dc:format>
        <dc:type
           rdf:resource="http://purl.org/dc/dcmitype/StillImage" />
        <dc:title></dc:title>
      </cc:Work>
    </rdf:RDF>
  </metadata>
  <g
     inkscape:label="Ebene 1"
     inkscape:groupmode="layer"
     id="layer1">
    <g
       id="g3574">
      <path
         style="fill:#c8c8c8"
         d="m -5.925004,3.0575645 -2.525405,-4.9502025 0,-2.5497975 0,-2.5497975 8.75,0 8.75,0 0,2.5497975 0,2.5497975 -2.525405,4.9502025 -2.525405,4.9502025 -3.69919,0 -3.69919,0 -2.525405,-4.9502025 z M 5.693076,2.3403583 c 1.1585825,-2.42957505 2.106515,-5.242075 2.106515,-6.25 l 0,-1.8325913 -7.5,0 -7.5,0 0,1.8325913 c 0,1.007925 0.9479325,3.82042495 2.106515,6.25 l 2.1065162,4.4174087 3.2869688,0 3.2869687,0 2.1065163,-4.4174087 z m -10.393485,-5.5825913 0,-1.25 5,0 5,0 0,1.25 0,1.25 -5,0 -5,0 0,-1.25 z"
         id="path3576"
         inkscape:connector-curvature="0" />
    </g>
    <path
       style="fill:#a0a0a0;stroke:none;stroke-width:1px;stroke-linecap:butt;stroke-linejoin:miter;stroke-opacity:1"
       d="M -4.2450203,4.0431063 C -6.3898709,-0.48858173 -7.0561795,-2.421344 -7.183331,-4.4800558 l -0.076037,-1.2311234 7.5502177,0 7.5502183,0 -0.068079,1.2942579 C 7.6678339,-2.4178377 7.016884,-0.54449847 4.8184525,4.0858068 l -1.2237206,2.5773827 -3.29983262,0 -3.29983278,0 -1.2400868,-2.6200832 z m 9.5244382,-7.2920387 0,-1.3258252 -4.98762825,0 -4.98762825,0 0,1.3258252 0,1.3258252 4.98762825,0 4.98762825,0 0,-1.3258252 z"
       id="path3580"
       inkscape:connector-curvature="0" />
  </g>
</svg>
