<?xml version="1.0" encoding="UTF-8" standalone="no"?>
<!-- Created with Inkscape (http://www.inkscape.org/) -->

<svg
   xmlns:dc="http://purl.org/dc/elements/1.1/"
   xmlns:cc="http://creativecommons.org/ns#"
   xmlns:rdf="http://www.w3.org/1999/02/22-rdf-syntax-ns#"
   xmlns:svg="http://www.w3.org/2000/svg"
   xmlns="http://www.w3.org/2000/svg"
   xmlns:sodipodi="http://sodipodi.sourceforge.net/DTD/sodipodi-0.dtd"
   xmlns:inkscape="http://www.inkscape.org/namespaces/inkscape"
   width="210mm"
   height="297mm"
   viewBox="0 0 744.09448819 1052.3622047"
   id="svg3420"
   version="1.1"
   inkscape:version="0.91 r13725"
   sodipodi:docname="icon_si_fighter.svg">
  <defs
     id="defs3422" />
  <sodipodi:namedview
     id="base"
     pagecolor="#ffffff"
     bordercolor="#666666"
     borderopacity="1.0"
     inkscape:pageopacity="0.0"
     inkscape:pageshadow="2"
     inkscape:zoom="31.678384"
     inkscape:cx="0.54741652"
     inkscape:cy="1052.7208"
     inkscape:document-units="px"
     inkscape:current-layer="layer1"
     showgrid="false"
     inkscape:window-width="1920"
     inkscape:window-height="1028"
     inkscape:window-x="-8"
     inkscape:window-y="-8"
     inkscape:window-maximized="1" />
  <metadata
     id="metadata3425">
    <rdf:RDF>
      <cc:Work
         rdf:about="">
        <dc:format>image/svg+xml</dc:format>
        <dc:type
           rdf:resource="http://purl.org/dc/dcmitype/StillImage" />
        <dc:title></dc:title>
      </cc:Work>
    </rdf:RDF>
  </metadata>
  <g
     inkscape:label="Ebene 1"
     inkscape:groupmode="layer"
     id="layer1">
    <g
       id="g3439">
      <path
         style="fill:#c8c8c8"
         d="m -15.239847,6.549488 c 0,-0.5354863 3.65625,-4.5973613 8.125,-9.02639 l 8.125,-8.052779 8.125,8.052779 c 4.46875,4.4290287 8.125,8.4909037 8.125,9.02639 l 0,0.97361 -16.25,0 -16.25,0 0,-0.97361 z m 24.05,-8.07639 -7.8,-7.8 -7.8,7.8 -7.8,7.8 15.6,0 15.6,0 -7.8,-7.8 z m -10.925,1.55 3.5927275,-3.75 1.875,0 1.875,0 -3.5927275,3.75 -3.5927275,3.75 -1.875,0 -1.875,0 3.5927275,-3.75 z"
         id="path3441"
         inkscape:connector-curvature="0" />
    </g>
    <path
       style="fill:#a0a0a0;stroke:none;stroke-width:1px;stroke-linecap:butt;stroke-linejoin:miter;stroke-opacity:1"
       d="m -14.548051,6.2531226 c 0,-0.013035 3.498059,-3.5217365 7.7734639,-7.797115 l 7.77346352,-7.7734155 7.79706698,7.797115 7.7970666,7.797115 -15.5705301,0 c -8.5637917,0 -15.5705309,-0.010665 -15.5705309,-0.0237 z M 1.6287599,0.04299928 C 3.600124,-2.0140056 5.2130586,-3.7044328 5.2130586,-3.7135055 c 0,-0.00907 -0.8426724,-0.016496 -1.872605,-0.016496 l -1.8726053,0 -3.4385874,3.58739987 C -3.8619625,1.830468 -5.4779379,3.5208952 -5.5617964,3.6139031 l -0.1524692,0.1691049 1.8793632,0 1.8793636,0 3.5842987,-3.74000872 z"
       id="path3445"
       inkscape:connector-curvature="0" />
  </g>
</svg>
