<?xml version="1.0" encoding="UTF-8" standalone="no"?>
<!-- Created with Inkscape (http://www.inkscape.org/) -->

<svg
   xmlns:dc="http://purl.org/dc/elements/1.1/"
   xmlns:cc="http://creativecommons.org/ns#"
   xmlns:rdf="http://www.w3.org/1999/02/22-rdf-syntax-ns#"
   xmlns:svg="http://www.w3.org/2000/svg"
   xmlns="http://www.w3.org/2000/svg"
   xmlns:sodipodi="http://sodipodi.sourceforge.net/DTD/sodipodi-0.dtd"
   xmlns:inkscape="http://www.inkscape.org/namespaces/inkscape"
   width="210mm"
   height="297mm"
   viewBox="0 0 744.09448819 1052.3622047"
   id="svg3669"
   version="1.1"
   inkscape:version="0.91 r13725"
   sodipodi:docname="icon_si_blip.svg">
  <defs
     id="defs3671" />
  <sodipodi:namedview
     id="base"
     pagecolor="#ffffff"
     bordercolor="#666666"
     borderopacity="1.0"
     inkscape:pageopacity="0.0"
     inkscape:pageshadow="2"
     inkscape:zoom="31.678384"
     inkscape:cx="11.336545"
     inkscape:cy="1051.8394"
     inkscape:document-units="px"
     inkscape:current-layer="layer1"
     showgrid="false"
     inkscape:window-width="1920"
     inkscape:window-height="1028"
     inkscape:window-x="-8"
     inkscape:window-y="-8"
     inkscape:window-maximized="1" />
  <metadata
     id="metadata3674">
    <rdf:RDF>
      <cc:Work
         rdf:about="">
        <dc:format>image/svg+xml</dc:format>
        <dc:type
           rdf:resource="http://purl.org/dc/dcmitype/StillImage" />
        <dc:title></dc:title>
      </cc:Work>
    </rdf:RDF>
  </metadata>
  <g
     inkscape:label="Ebene 1"
     inkscape:groupmode="layer"
     id="layer1">
    <g
       id="g3688">
      <path
         style="fill:#c8c8c8"
         d="m -3.1492932,2.5092195 -2.3023937,-2.5441175 2.73366,-2.73366 2.73365996,-2.73366 2.73366004,2.73366 2.73366,2.73366 -2.3023937,2.5441175 C 1.9142419,3.9084845 0.49002556,5.053337 0.01563306,5.053337 c -0.4743925,0 -1.89860876,-1.1448525 -3.16492626,-2.5441175 z M 2.5676994,1.865602 4.1758768,-0.07213425 2.0957544,-2.1522555 0.01563306,-4.2323768 -2.0644881,-2.1522555 -4.1446106,-0.07213425 -2.5364331,1.865602 c 0.8844974,1.0657538 2.03292741,1.937735 2.55206616,1.937735 0.51913875,0 1.66756884,-0.8719812 2.55206634,-1.937735 z"
         id="path3690"
         inkscape:connector-curvature="0" />
    </g>
    <path
       style="fill:#a0a0a0;stroke:none;stroke-width:1px;stroke-linecap:butt;stroke-linejoin:miter;stroke-opacity:1"
       d="M -0.32763079,3.705485 C -0.75460838,3.5259414 -1.242418,3.1660193 -1.8292641,2.5975304 -2.1140671,2.3216359 -2.5582333,1.8205747 -3.1798913,1.0738949 -3.6893402,0.46199087 -4.1061619,-0.04943958 -4.1061619,-0.06261702 c 0,-0.01317744 0.9303801,-0.95425798 2.0675113,-2.09128978 L 0.02886089,-4.2212374 2.1000622,-2.1502546 4.1712635,-0.07927191 3.3145793,0.95181574 C 2.0888239,2.4271101 1.7596181,2.7692721 1.0866535,3.2674247 0.44018269,3.7459656 0.05348178,3.8657422 -0.32763079,3.705485 Z"
       id="path3694"
       inkscape:connector-curvature="0" />
  </g>
</svg>
