<?xml version="1.0" encoding="UTF-8" standalone="no"?>
<!-- Created with Inkscape (http://www.inkscape.org/) -->

<svg
   xmlns:dc="http://purl.org/dc/elements/1.1/"
   xmlns:cc="http://creativecommons.org/ns#"
   xmlns:rdf="http://www.w3.org/1999/02/22-rdf-syntax-ns#"
   xmlns:svg="http://www.w3.org/2000/svg"
   xmlns="http://www.w3.org/2000/svg"
   xmlns:sodipodi="http://sodipodi.sourceforge.net/DTD/sodipodi-0.dtd"
   xmlns:inkscape="http://www.inkscape.org/namespaces/inkscape"
   width="210mm"
   height="297mm"
   viewBox="0 0 744.09448819 1052.3622047"
   id="svg2"
   version="1.1"
   inkscape:version="0.91 r13725"
   sodipodi:docname="icon_si_air_defense.svg">
  <defs
     id="defs4" />
  <sodipodi:namedview
     id="base"
     pagecolor="#ffffff"
     bordercolor="#666666"
     borderopacity="1.0"
     inkscape:pageopacity="0.0"
     inkscape:pageshadow="2"
     inkscape:zoom="7.9195959"
     inkscape:cx="35.802169"
     inkscape:cy="1022.2479"
     inkscape:document-units="px"
     inkscape:current-layer="layer1"
     showgrid="false"
     inkscape:window-width="1920"
     inkscape:window-height="1028"
     inkscape:window-x="-8"
     inkscape:window-y="-8"
     inkscape:window-maximized="1" />
  <metadata
     id="metadata7">
    <rdf:RDF>
      <cc:Work
         rdf:about="">
        <dc:format>image/svg+xml</dc:format>
        <dc:type
           rdf:resource="http://purl.org/dc/dcmitype/StillImage" />
        <dc:title></dc:title>
      </cc:Work>
    </rdf:RDF>
  </metadata>
  <g
     inkscape:label="Ebene 1"
     inkscape:groupmode="layer"
     id="layer1">
    <g
       id="g3347">
      <path
         style="fill:#c8c8c8"
         d="m -8.037558,-0.59457 0,-11.25 8.75,0 8.75,0 0,11.25 0,11.25 -8.75,0 -8.75,0 0,-11.25 z m 16.25,0 0,-10 -7.5,0 -7.5,0 0,10 0,10 7.5,0 7.5,0 0,-10 z m -9.375,-3.75 3.5927275,-3.75 1.875,0 1.875,0 -3.5927275,3.75 -3.5927275,3.75 -1.875,0 -1.875,0 3.5927275,-3.75 z"
         id="path3349"
         inkscape:connector-curvature="0" />
    </g>
    <path
       style="fill:#a0a0a0;stroke:none;stroke-width:1px;stroke-linecap:butt;stroke-linejoin:miter;stroke-opacity:1"
       d="m -6.7505069,-0.60698794 0,-9.91212206 7.44987505,0 7.44987505,0 0,9.91212206 0,9.91212184 -7.44987505,0 -7.44987505,0 0,-9.91212184 z M 2.5632982,-4.2618577 c 1.961102,-2.0449025 3.5656399,-3.7495349 3.5656399,-3.7880721 0,-0.038537 -0.8387686,-0.070068 -1.8639301,-0.070068 l -1.86393,0 -3.5656399,3.7180043 c -1.961102,2.0449025 -3.5656399,3.74953488 -3.5656399,3.78807208 0,0.0385372 0.8387686,0.0700677 1.8639301,0.0700677 l 1.8639301,0 3.5656398,-3.71800429 z"
       id="path3353"
       inkscape:connector-curvature="0" />
  </g>
</svg>
