<?xml version="1.0" encoding="UTF-8" standalone="no"?>
<!-- Created with Inkscape (http://www.inkscape.org/) -->

<svg
   xmlns:dc="http://purl.org/dc/elements/1.1/"
   xmlns:cc="http://creativecommons.org/ns#"
   xmlns:rdf="http://www.w3.org/1999/02/22-rdf-syntax-ns#"
   xmlns:svg="http://www.w3.org/2000/svg"
   xmlns="http://www.w3.org/2000/svg"
   xmlns:sodipodi="http://sodipodi.sourceforge.net/DTD/sodipodi-0.dtd"
   xmlns:inkscape="http://www.inkscape.org/namespaces/inkscape"
   width="210mm"
   height="297mm"
   viewBox="0 0 744.09448819 1052.3622047"
   id="svg3355"
   version="1.1"
   inkscape:version="0.91 r13725"
   sodipodi:docname="icon_si_bot_sniper.svg">
  <defs
     id="defs3357" />
  <sodipodi:namedview
     id="base"
     pagecolor="#ffffff"
     bordercolor="#666666"
     borderopacity="1.0"
     inkscape:pageopacity="0.0"
     inkscape:pageshadow="2"
     inkscape:zoom="11.2"
     inkscape:cx="7.0218641"
     inkscape:cy="1045.7926"
     inkscape:document-units="px"
     inkscape:current-layer="layer1"
     showgrid="false"
     inkscape:window-width="1920"
     inkscape:window-height="1028"
     inkscape:window-x="-8"
     inkscape:window-y="-8"
     inkscape:window-maximized="1" />
  <metadata
     id="metadata3360">
    <rdf:RDF>
      <cc:Work
         rdf:about="">
        <dc:format>image/svg+xml</dc:format>
        <dc:type
           rdf:resource="http://purl.org/dc/dcmitype/StillImage" />
        <dc:title></dc:title>
      </cc:Work>
    </rdf:RDF>
  </metadata>
  <g
     inkscape:label="Ebene 1"
     inkscape:groupmode="layer"
     id="layer1">
    <g
       id="g3374">
      <path
         style="fill:#c8c8c8"
         d="m -8.1740365,6.0279242 -2.7490825,-5.65843995 0,-4.96656005 0,-4.9665612 11.25,0 11.25,0 0,4.9665612 0,4.96656005 -2.7490825,5.65844005 -2.7490812,5.6584387 -5.7518363,0 -5.7518363,0 -2.7490812,-5.6584388 z M 1.826881,8.936363 l -1.5,-1.5 -1.5,1.5 -1.5,1.5 3,0 3,0 -1.5,-1.5 z M -1.9590453,7.117628 0.326881,5.0488942 2.8345447,7.318298 C 5.6770172,9.8907017 5.5505773,9.9545742 8.292911,4.560938 l 2.03397,-4.000425 0,-4.437075 0,-4.437075 -10,0 -10,0 0,4.3325912 0,4.3325913 2.106515,4.4174087 c 2.4195913,5.073935 2.54031,5.1244963 5.6075587,2.3486738 z m -5.2140737,-11.681265 0,-1.25 3.75,0 3.75,0 0,1.25 0,1.25 -3.75,0 -3.75,0 0,-1.25 z m 8.75,0 c 0,-0.6875 0.5625,-1.25 1.25,-1.25 0.6875,0 1.25,0.5625 1.25,1.25 0,0.6875 -0.5625,1.25 -1.25,1.25 -0.6875,0 -1.25,-0.5625 -1.25,-1.25 z m 3.75,0 c 0,-0.6875 0.5625,-1.25 1.25,-1.25 0.6875,0 1.25,0.5625 1.25,1.25 0,0.6875 -0.5625,1.25 -1.25,1.25 -0.6875,0 -1.25,-0.5625 -1.25,-1.25 z"
         id="path3376"
         inkscape:connector-curvature="0" />
    </g>
    <path
       style="fill:#a0a0a0;stroke:none;stroke-width:1px;stroke-linecap:butt;stroke-linejoin:miter;stroke-opacity:1"
       d="M -9.6035156 -8.3242188 L -9.6035156 -3.9433594 L -9.6035156 0.43554688 L -8.2128906 3.3554688 C -5.7519656 8.5219447 -5.4251231 9.0065165 -4.4882812 8.8808594 C -3.985493 8.813421 -3.4261614 8.3975129 -1.4609375 6.6269531 C -0.51274263 5.7726816 0.29236071 5.0733728 0.328125 5.0722656 C 0.36388928 5.0711567 1.0873826 5.6996956 1.9355469 6.46875 C 3.862079 8.215592 4.4715951 8.7236701 4.8144531 8.8730469 C 5.2549085 9.0649451 5.4655152 9.0207451 5.8671875 8.6503906 C 6.3749974 8.1821745 6.7931724 7.4533242 8.6914062 3.7226562 L 10.306641 0.54492188 L 10.306641 -3.8886719 L 10.306641 -8.3242188 L 0.3515625 -8.3242188 L -9.6035156 -8.3242188 z M -7.1933594 -5.8242188 L -3.3984375 -5.8242188 L 0.39648438 -5.8242188 L 0.39648438 -4.5742188 L 0.39648438 -3.3242188 L -3.3984375 -3.3242188 L -7.1933594 -3.3242188 L -7.1933594 -4.5742188 L -7.1933594 -5.8242188 z M 2.765625 -5.8105469 C 3.4127431 -5.8459605 4.0559469 -5.3865567 4.0566406 -4.5917969 C 4.0570639 -4.1053328 3.8611419 -3.7206299 3.4960938 -3.4980469 C 3.143267 -3.2829154 2.4961974 -3.2729266 2.1679688 -3.4765625 C 1.8543305 -3.6711468 1.5581474 -4.2104415 1.5585938 -4.5859375 C 1.5587767 -4.7511263 1.6387461 -5.0157343 1.7363281 -5.1757812 C 1.9882609 -5.5889837 2.3773542 -5.7892987 2.765625 -5.8105469 z M 6.515625 -5.8105469 C 7.1627431 -5.8459605 7.8059469 -5.3865567 7.8066406 -4.5917969 C 7.8070638 -4.1053328 7.611142 -3.7206299 7.2460938 -3.4980469 C 6.893267 -3.2829154 6.2461972 -3.2729266 5.9179688 -3.4765625 C 5.6043303 -3.6711468 5.3081473 -4.2104415 5.3085938 -4.5859375 C 5.3087767 -4.7511263 5.3887461 -5.0157343 5.4863281 -5.1757812 C 5.7382608 -5.5889837 6.1273542 -5.7892987 6.515625 -5.8105469 z M 0.34960938 7.4804688 L -1.1210938 8.953125 L -2.5917969 10.425781 L 0.33007812 10.425781 C 1.9377789 10.425781 3.2539062 10.417137 3.2539062 10.404297 C 3.2539062 10.391462 2.6012756 9.7271285 1.8027344 8.9296875 L 0.34960938 7.4804688 z "
       id="path3380" />
  </g>
</svg>
