<?xml version="1.0" encoding="UTF-8" standalone="no"?>
<!-- Created with Inkscape (http://www.inkscape.org/) -->

<svg
   xmlns:dc="http://purl.org/dc/elements/1.1/"
   xmlns:cc="http://creativecommons.org/ns#"
   xmlns:rdf="http://www.w3.org/1999/02/22-rdf-syntax-ns#"
   xmlns:svg="http://www.w3.org/2000/svg"
   xmlns="http://www.w3.org/2000/svg"
   xmlns:sodipodi="http://sodipodi.sourceforge.net/DTD/sodipodi-0.dtd"
   xmlns:inkscape="http://www.inkscape.org/namespaces/inkscape"
   width="210mm"
   height="297mm"
   viewBox="0 0 744.09448819 1052.3622047"
   id="svg4406"
   version="1.1"
   inkscape:version="0.91 r13725"
   sodipodi:docname="icon_si_combat_fabber.svg">
  <defs
     id="defs4408" />
  <sodipodi:namedview
     id="base"
     pagecolor="#ffffff"
     bordercolor="#666666"
     borderopacity="1.0"
     inkscape:pageopacity="0.0"
     inkscape:pageshadow="2"
     inkscape:zoom="15.839192"
     inkscape:cx="-7.7965683"
     inkscape:cy="1053.092"
     inkscape:document-units="px"
     inkscape:current-layer="layer1"
     showgrid="false"
     inkscape:window-width="1920"
     inkscape:window-height="1028"
     inkscape:window-x="-8"
     inkscape:window-y="-8"
     inkscape:window-maximized="1" />
  <metadata
     id="metadata4411">
    <rdf:RDF>
      <cc:Work
         rdf:about="">
        <dc:format>image/svg+xml</dc:format>
        <dc:type
           rdf:resource="http://purl.org/dc/dcmitype/StillImage" />
        <dc:title></dc:title>
      </cc:Work>
    </rdf:RDF>
  </metadata>
  <g
     inkscape:label="Ebene 1"
     inkscape:groupmode="layer"
     id="layer1">
    <g
       id="g4425">
      <path
         style="fill:#c8c8c8"
         d="m -8.2483805,4.3773502 -2.7490825,-5.6584399 0,-4.3415601 0,-4.3415612 11.25,0 11.25,0 0,4.3415612 0,4.3415601 -2.7490825,5.65844 -2.7490812,5.6584387 -5.7518363,0 -5.7518363,0 -2.7490812,-5.6584388 z M 7.727132,3.8355865 l 2.525405,-4.9502025 0,-3.7997975 0,-3.7997975 -10,0 -10,0 0,3.7997975 0,3.7997975 2.525405,4.9502025 2.525405,4.9502025 4.94919,0 4.94919,0 2.525405,-4.9502025 z m -9.974595,0.5752025 0,-1.875 -1.875,0 -1.875,0 0,-2.5 0,-2.5 1.875,0 1.875,0 0,-1.875 0,-1.875 2.5,0 2.5,0 0,1.875 0,1.875 1.875,0 1.875,0 0,2.5 0,2.5 -1.875,0 -1.875,0 0,1.875 0,1.875 -2.5,0 -2.5,0 0,-1.875 z m 3.75,-1.25 0,-1.875 1.875,0 1.875,0 0,-1.25 0,-1.25 -1.875,0 -1.875,0 0,-1.875 0,-1.875 -1.25,0 -1.25,0 0,1.875 0,1.875 -1.875,0 -1.875,0 0,1.25 0,1.25 1.875,0 1.875,0 0,1.875 0,1.875 1.25,0 1.25,0 0,-1.875 z"
         id="path4427"
         inkscape:connector-curvature="0" />
    </g>
    <path
       style="stroke:#000000;stroke-width:0.06313454;stroke-opacity:1"
       d="M -9.703125 -8.671875 L -9.703125 -4.8730469 L -9.703125 -1.0742188 L -7.1972656 3.8398438 L -4.6933594 8.7539062 L 0.25976562 8.7382812 L 5.2128906 8.7207031 L 7.7285156 3.796875 L 10.244141 -1.1269531 L 10.246094 -4.9003906 L 10.248047 -8.671875 L 0.27148438 -8.671875 L -9.703125 -8.671875 z M -2.2539062 -6.2089844 L 0.27148438 -6.2089844 L 2.796875 -6.2089844 L 2.796875 -4.3476562 L 2.796875 -2.484375 L 4.6601562 -2.484375 L 6.5214844 -2.484375 L 6.5214844 0.041015625 L 6.5214844 2.5664062 L 4.6601562 2.5664062 L 2.796875 2.5664062 L 2.796875 4.4277344 L 2.796875 6.2910156 L 0.27148438 6.2910156 L -2.2539062 6.2910156 L -2.2539062 4.4296875 L -2.2539062 2.5683594 L -4.1308594 2.5507812 L -6.0097656 2.5351562 L -6.0273438 0.025390625 L -6.0429688 -2.484375 L -4.1484375 -2.484375 L -2.2539062 -2.484375 L -2.2539062 -4.3476562 L -2.2539062 -6.2089844 z M -0.99023438 -4.9472656 L -0.99023438 -3.0839844 L -0.99023438 -1.2226562 L -2.8535156 -1.2226562 L -4.7148438 -1.2226562 L -4.7148438 0.009765625 L -4.7148438 1.2402344 L -2.8535156 1.2402344 L -0.99023438 1.2402344 L -0.99023438 3.1347656 L -0.99023438 5.0273438 L 0.24023438 5.0273438 L 1.46875 5.0273438 L 1.4863281 3.1503906 L 1.5039062 1.2714844 L 3.3828125 1.2539062 L 5.2617188 1.2382812 L 5.2460938 0.0234375 L 5.2285156 -1.1914062 L 3.3496094 -1.2070312 L 1.4707031 -1.2246094 L 1.4707031 -3.0859375 L 1.4707031 -4.9472656 L 0.24023438 -4.9472656 L -0.99023438 -4.9472656 z "
       id="path4431" />
  </g>
</svg>
