<?xml version="1.0" encoding="UTF-8" standalone="no"?>
<!-- Created with Inkscape (http://www.inkscape.org/) -->

<svg
   xmlns:dc="http://purl.org/dc/elements/1.1/"
   xmlns:cc="http://creativecommons.org/ns#"
   xmlns:rdf="http://www.w3.org/1999/02/22-rdf-syntax-ns#"
   xmlns:svg="http://www.w3.org/2000/svg"
   xmlns="http://www.w3.org/2000/svg"
   xmlns:sodipodi="http://sodipodi.sourceforge.net/DTD/sodipodi-0.dtd"
   xmlns:inkscape="http://www.inkscape.org/namespaces/inkscape"
   width="210mm"
   height="297mm"
   viewBox="0 0 744.09448819 1052.3622047"
   id="svg3526"
   version="1.1"
   inkscape:version="0.91 r13725"
   sodipodi:docname="icon_si_unit_cannon.svg">
  <defs
     id="defs3528" />
  <sodipodi:namedview
     id="base"
     pagecolor="#ffffff"
     bordercolor="#666666"
     borderopacity="1.0"
     inkscape:pageopacity="0.0"
     inkscape:pageshadow="2"
     inkscape:zoom="11.2"
     inkscape:cx="0.32787705"
     inkscape:cy="1047.6788"
     inkscape:document-units="px"
     inkscape:current-layer="layer1"
     showgrid="false"
     inkscape:window-width="1920"
     inkscape:window-height="1028"
     inkscape:window-x="-8"
     inkscape:window-y="-8"
     inkscape:window-maximized="1" />
  <metadata
     id="metadata3531">
    <rdf:RDF>
      <cc:Work
         rdf:about="">
        <dc:format>image/svg+xml</dc:format>
        <dc:type
           rdf:resource="http://purl.org/dc/dcmitype/StillImage" />
        <dc:title></dc:title>
      </cc:Work>
    </rdf:RDF>
  </metadata>
  <g
     inkscape:label="Ebene 1"
     inkscape:groupmode="layer"
     id="layer1">
    <path
       style="fill:#000000"
       d="m -15.836748,7.341553 0,-13.77346 8,-7.95308 8,-7.95308 8,7.95308 8,7.95308 0,13.77346 0,13.77346 -16,0 -16,0 0,-13.77346 z m 13.685549,9.599146 2.314451,-2.174314 2.314451,2.174314 2.314451,2.174314 4.685549,0 4.685549,0 0,-12.27682 0,-12.276819 -7,-6.946361 -7,-6.946361 -7,6.946361 -7,6.946361 0,12.276819 0,12.27682 4.685549,0 4.685549,0 2.314451,-2.174314 z m -5.685549,-5.825686 0,-1 5.5,0 5.5,0 0,-2.174314 0,-2.174314 2.5,2.348628 c 1.375,1.291745 2.5,2.720187 2.5,3.174314 l 0,0.825686 -8,0 -8,0 0,-1 z m 2,-9.345012 0,-1.345013 1.828741,-1.654987 1.82874,-1.654988 2.516272,0 2.516272,0 1.654987,1.828741 c 0.910244,1.005807 1.654988,2.355807 1.654988,3 l 0,1.171259 -6,0 -6,0 0,-1.345012 z M -2.676233,-8.43204 c -1.598061,-3.507362 -1.642809,-3.452947 2.839485,-3.452947 4.482294,0 4.437546,-0.05442 2.839485,3.452947 l -1.160515,2.547053 -1.67897,0 -1.67897,0 -1.160515,-2.547053 z m 4.039485,26.347053 -1.2,-1.2 -1.2,1.2 -1.2,1.2 2.4,0 2.4,0 -1.2,-1.2 z"
       id="path3545"
       inkscape:connector-curvature="0" />
    <path
       style="fill:#a0a0a0;stroke:none;stroke-width:1px;stroke-linecap:butt;stroke-linejoin:miter;stroke-opacity:1"
       d="M 0.13476562 -19.208984 C 0.096294195 -19.194047 -3.0530929 -16.08539 -6.8652344 -12.298828 L -13.796875 -5.4140625 L -13.796875 6.8320312 L -13.796875 19.076172 L -9.1328125 19.072266 L -4.4667969 19.068359 L -2.1523438 16.888672 L 0.16015625 14.708984 L 1.1054688 15.591797 C 1.625416 16.078015 2.6743862 17.059671 3.4355469 17.773438 L 4.8183594 19.072266 L 9.484375 19.074219 L 14.148438 19.076172 L 14.148438 6.8554688 L 14.148438 -5.3652344 L 7.1777344 -12.300781 C 3.3430791 -16.115478 0.17323702 -19.223924 0.13476562 -19.208984 z M -1.3183594 -11.892578 C -0.8282841 -11.899026 -0.22560246 -11.898412 0.52148438 -11.890625 C 2.9932781 -11.864863 3.3341665 -11.843967 3.5957031 -11.701172 C 4.2464621 -11.34587 4.1818888 -10.961248 3.0644531 -8.484375 C 2.617554 -7.4937911 2.1683642 -6.4910714 2.0664062 -6.2578125 L 1.8808594 -5.8339844 L 0.16796875 -5.8339844 L -1.5449219 -5.8339844 L -2.484375 -7.9101562 C -3.8094518 -10.841662 -3.8988076 -11.160378 -3.5019531 -11.533203 C -3.2406947 -11.778644 -2.7885852 -11.873235 -1.3183594 -11.892578 z M -2.2363281 -2.8886719 L 0.35351562 -2.8847656 L 2.9433594 -2.8808594 L 3.9453125 -1.7460938 C 5.1250795 -0.41043034 5.3996961 -0.04005357 5.8339844 0.80859375 C 6.1295648 1.3861892 6.1614602 1.5184295 6.1894531 2.3125 L 6.21875 3.1835938 L 0.18359375 3.1835938 L -5.8515625 3.1835938 L -5.8515625 1.7753906 L -5.8515625 0.3671875 L -4.0429688 -1.2597656 L -2.2363281 -2.8886719 z M 3.1621094 5.7734375 C 3.2936192 5.7734375 6.4956665 8.8359602 7.0644531 9.5058594 C 7.3432576 9.8342272 7.7055406 10.312905 7.8691406 10.568359 C 8.128652 10.973572 8.1679688 11.107121 8.1679688 11.617188 L 8.1679688 12.201172 L 0.19140625 12.201172 C -4.1954991 12.201172 -7.8129651 12.175318 -7.8457031 12.142578 C -7.8784411 12.109841 -7.9042969 11.62686 -7.9042969 11.070312 L -7.9042969 10.058594 L -2.4140625 10.058594 L 3.078125 10.058594 L 3.078125 7.9160156 C 3.078125 6.6237183 3.1110094 5.7734375 3.1621094 5.7734375 z M 0.17382812 16.753906 L -0.984375 17.916016 L -2.1425781 19.076172 L 0.15429688 19.076172 C 1.4180974 19.076172 2.453125 19.065724 2.453125 19.052734 C 2.453125 19.039748 1.9393118 18.517998 1.3125 17.892578 L 0.17382812 16.753906 z "
       id="path3547" />
  </g>
</svg>
