<?xml version="1.0" encoding="UTF-8" standalone="no"?>
<!-- Created with Inkscape (http://www.inkscape.org/) -->

<svg
   xmlns:dc="http://purl.org/dc/elements/1.1/"
   xmlns:cc="http://creativecommons.org/ns#"
   xmlns:rdf="http://www.w3.org/1999/02/22-rdf-syntax-ns#"
   xmlns:svg="http://www.w3.org/2000/svg"
   xmlns="http://www.w3.org/2000/svg"
   xmlns:sodipodi="http://sodipodi.sourceforge.net/DTD/sodipodi-0.dtd"
   xmlns:inkscape="http://www.inkscape.org/namespaces/inkscape"
   width="210mm"
   height="297mm"
   viewBox="0 0 744.09448819 1052.3622047"
   id="svg3383"
   version="1.1"
   inkscape:version="0.91 r13725"
   sodipodi:docname="icon_si_orbital_laser.svg">
  <defs
     id="defs3385" />
  <sodipodi:namedview
     id="base"
     pagecolor="#ffffff"
     bordercolor="#666666"
     borderopacity="1.0"
     inkscape:pageopacity="0.0"
     inkscape:pageshadow="2"
     inkscape:zoom="15.839192"
     inkscape:cx="3.840707"
     inkscape:cy="1054.2165"
     inkscape:document-units="px"
     inkscape:current-layer="layer1"
     showgrid="false"
     inkscape:window-width="1920"
     inkscape:window-height="1028"
     inkscape:window-x="-8"
     inkscape:window-y="-8"
     inkscape:window-maximized="1" />
  <metadata
     id="metadata3388">
    <rdf:RDF>
      <cc:Work
         rdf:about="">
        <dc:format>image/svg+xml</dc:format>
        <dc:type
           rdf:resource="http://purl.org/dc/dcmitype/StillImage" />
        <dc:title></dc:title>
      </cc:Work>
    </rdf:RDF>
  </metadata>
  <g
     inkscape:label="Ebene 1"
     inkscape:groupmode="layer"
     id="layer1">
    <path
       style="fill:#000000"
       d="m -10.025617,17.868133 -4.331727,-2.198813 -2.668273,-4.032033 -2.668273,-4.032033 0,-7.658528 0,-7.658529 2.86163,-4.129333 2.86163,-4.129334 4.204094,-2.035167 4.204095,-2.035167 5.368551,0 5.368551,0 4.204095,2.035167 4.204094,2.035167 2.820976,4.07067 2.820976,4.07067 0.403978,6.344344 0.403977,6.344343 -2.234472,4.615803 -2.234472,4.615804 -4.018336,2.659209 -4.018336,2.659209 -6.610516,0.328682 -6.610515,0.328682 -4.331727,-2.198813 z m 17.113846,-1.285776 3.217881,-1.376839 2.686382,-2.873161 c 1.477509,-1.580239 3.165009,-4.139956 3.75,-5.688261 l 1.063618,-2.815099 0,-3.967019 0,-3.967019 -1.376839,-3.217882 -1.376839,-3.217881 -2.873161,-2.686382 c -1.580239,-1.477509 -4.139956,-3.165009 -5.688261,-3.75 l -2.815099,-1.063618 -3.967019,0 -3.967019,0 -3.217882,1.376839 -3.217881,1.376839 -2.686382,2.873161 c -1.477509,1.580239 -3.16501,4.139956 -3.75,5.688261 l -1.063618,2.815099 0,3.869801 0,3.869801 1.063618,2.815099 c 0.58499,1.548305 2.272491,4.107403 3.75,5.686884 l 2.686382,2.871783 3,1.339075 3,1.339074 4.282119,0.03914 4.282118,0.03914 3.217882,-1.376839 z m -13.98357,-5.582677 -3.201452,-1.952039 -1.548548,-2.994563 -1.548549,-2.994562 0.0037,-3.29966 0.0037,-3.29966 1.95204,-3.201451 1.952039,-3.201452 2.994563,-1.548548 2.994638,-1.548549 3.09932,0 3.09932,0 2.994562,1.548549 2.994563,1.548548 1.952039,3.201452 1.95204,3.201451 0,3.5 0,3.5 -1.95204,3.201451 -1.952039,3.201452 -2.994563,1.548548 -2.994562,1.548549 -3.29966,-0.0037 -3.29966,-0.0037 -3.201451,-1.95204 z M 2.028332,9.736974 -0.19389,7.514752 l -2.222222,2.222222 -2.222222,2.222222 4.444444,0 4.444444,0 -2.222222,-2.222222 z m 0.527778,-1.527928 2.75,2.624032 1.750022,-0.986643 1.750022,-0.986644 1.499978,-2.900637 1.499978,-2.900638 0,-3.09932 0,-3.09932 -1.516927,-2.933413 -1.516927,-2.933413 -2.933413,-1.516927 -2.933413,-1.516927 -3.09932,0 -3.09932,0 -2.933413,1.516927 -2.933413,1.516927 -1.516927,2.933413 -1.516927,2.933413 0,3.09932 0,3.09932 1.499978,2.900638 1.499978,2.900637 1.750022,0.986644 1.750022,0.986643 2.75,-2.624032 2.75,-2.624032 2.75,2.624032 z m -8.75,-10.24985 0,-1 6,0 6,0 0,1 0,1 -6,0 -6,0 0,-1 z"
       id="path3402"
       inkscape:connector-curvature="0" />
    <path
       style="fill:#a0a0a0;stroke:none;stroke-width:1px;stroke-linecap:butt;stroke-linejoin:miter;stroke-opacity:1"
       d="M 3.6894531 -18.003906 L -0.296875 -18.001953 L -4.2851562 -18 L -7.484375 -16.626953 L -10.681641 -15.253906 L -12.214844 -13.613281 C -13.996666 -11.706275 -14.567463 -11.011041 -15.457031 -9.6699219 C -16.589607 -7.9624421 -16.770687 -7.6016685 -17.595703 -5.4042969 L -18.142578 -3.9492188 L -18.142578 -0.03515625 L -18.142578 3.8789062 L -17.582031 5.359375 C -17.273466 6.1736962 -16.949308 7.0015225 -16.861328 7.1992188 C -16.440506 8.1448233 -15.222599 10.04061 -14.275391 11.226562 C -13.984187 11.591164 -13.056261 12.628426 -12.212891 13.53125 L -10.679688 15.173828 L -7.6757812 16.513672 L -4.6738281 17.855469 L -2.6796875 17.873047 C -1.5830659 17.882717 0.34061071 17.896097 1.5957031 17.904297 L 3.8789062 17.919922 L 7.0742188 16.556641 L 10.269531 15.193359 L 11.640625 13.730469 C 13.71935 11.515032 14.39132 10.686839 15.412109 9.0800781 C 16.149072 7.9200719 16.550425 7.0830233 17.199219 5.3515625 L 17.78125 3.8007812 L 17.78125 -0.13867188 L 17.78125 -4.0761719 L 16.408203 -7.2949219 L 15.035156 -10.513672 L 13.392578 -12.044922 C 11.671696 -13.65059 10.990448 -14.230602 10.027344 -14.910156 C 8.3447902 -16.097345 7.2363968 -16.676417 5.1308594 -17.464844 L 3.6894531 -18.003906 z M -3.2871094 -13.080078 L -0.19335938 -13.080078 L 2.9003906 -13.080078 L 5.9101562 -11.521484 L 8.9199219 -9.9648438 L 10.888672 -6.7402344 L 12.855469 -3.515625 L 12.855469 -0.04296875 L 12.855469 3.4296875 L 10.886719 6.6582031 L 8.9179688 9.8867188 L 5.9101562 11.441406 L 2.9003906 12.994141 L -0.40820312 12.990234 L -3.7167969 12.986328 L -6.9257812 11.017578 L -10.136719 9.0488281 L -11.677734 6.0664062 L -13.21875 3.0839844 L -13.21875 -0.234375 L -13.21875 -3.5507812 L -11.267578 -6.7519531 L -9.3164062 -9.9550781 L -6.3007812 -11.517578 L -3.2871094 -13.080078 z M -3.2910156 -12.005859 L -6.2109375 -10.496094 L -9.1328125 -8.9863281 L -10.638672 -6.078125 L -12.144531 -3.1699219 L -12.144531 -0.0390625 L -12.144531 3.0898438 L -10.685547 5.9121094 C -9.8830231 7.4639954 -9.1938297 8.7666832 -9.1542969 8.8085938 C -9.1147641 8.8505043 -8.3303422 9.3129654 -7.4101562 9.8339844 C -6.4899705 10.355003 -5.7176975 10.774878 -5.6953125 10.767578 C -5.6729275 10.760232 -4.4262343 9.5790781 -2.9238281 8.1445312 L -0.19140625 5.5371094 L 0.22460938 5.9414062 C 0.56559079 6.2721607 4.120171 9.6544285 5.0625 10.544922 L 5.3183594 10.787109 L 7.0507812 9.8144531 L 8.78125 8.8398438 L 10.279297 5.9453125 L 11.779297 3.0507812 L 11.78125 -0.03515625 L 11.783203 -3.1210938 L 10.292969 -6.0019531 C 9.4739504 -7.5858047 8.7708696 -8.9156174 8.7304688 -8.9570312 C 8.690067 -8.998445 7.3638889 -9.7015261 5.78125 -10.519531 L 2.9023438 -12.005859 L -0.19335938 -12.005859 L -3.2910156 -12.005859 z M -6.2109375 -3.0410156 L -0.18164062 -3.0410156 L 5.8476562 -3.0410156 L 5.8476562 -2.03125 L 5.8476562 -1.0214844 L -0.18164062 -1.0214844 L -6.2109375 -1.0214844 L -6.2109375 -2.03125 L -6.2109375 -3.0410156 z M -0.18164062 7.5644531 L -2.359375 9.7441406 L -4.5371094 11.921875 L -0.19726562 11.921875 C 2.1898205 11.921875 4.1445312 11.91515 4.1445312 11.90625 C 4.1445312 11.89738 3.1699531 10.915672 1.9804688 9.7265625 L -0.18164062 7.5644531 z "
       id="path3404" />
  </g>
</svg>
