<?xml version="1.0" encoding="UTF-8" standalone="no"?>
<!-- Created with Inkscape (http://www.inkscape.org/) -->

<svg
   xmlns:dc="http://purl.org/dc/elements/1.1/"
   xmlns:cc="http://creativecommons.org/ns#"
   xmlns:rdf="http://www.w3.org/1999/02/22-rdf-syntax-ns#"
   xmlns:svg="http://www.w3.org/2000/svg"
   xmlns="http://www.w3.org/2000/svg"
   xmlns:sodipodi="http://sodipodi.sourceforge.net/DTD/sodipodi-0.dtd"
   xmlns:inkscape="http://www.inkscape.org/namespaces/inkscape"
   width="210mm"
   height="297mm"
   viewBox="0 0 744.09448819 1052.3622047"
   id="svg3599"
   version="1.1"
   inkscape:version="0.91 r13725"
   sodipodi:docname="icon_si_tatical_missile_launcher.svg">
  <defs
     id="defs3601" />
  <sodipodi:namedview
     id="base"
     pagecolor="#ffffff"
     bordercolor="#666666"
     borderopacity="1.0"
     inkscape:pageopacity="0.0"
     inkscape:pageshadow="2"
     inkscape:zoom="22.4"
     inkscape:cx="1.4398642"
     inkscape:cy="1052.2206"
     inkscape:document-units="px"
     inkscape:current-layer="layer1"
     showgrid="false"
     inkscape:window-width="1920"
     inkscape:window-height="1028"
     inkscape:window-x="-8"
     inkscape:window-y="-8"
     inkscape:window-maximized="1" />
  <metadata
     id="metadata3604">
    <rdf:RDF>
      <cc:Work
         rdf:about="">
        <dc:format>image/svg+xml</dc:format>
        <dc:type
           rdf:resource="http://purl.org/dc/dcmitype/StillImage" />
        <dc:title></dc:title>
      </cc:Work>
    </rdf:RDF>
  </metadata>
  <g
     inkscape:label="Ebene 1"
     inkscape:groupmode="layer"
     id="layer1">
    <path
       style="fill:#000000"
       d="m -16.388962,1.910789 0,-13.125 3.994101,0 3.9941015,0 3.5058988,-3.358864 3.5058987,-3.358863 3.5058988,3.358863 3.5058987,3.358864 3.9941013,0 3.9941012,0 0,13.125 0,13.125 -15,0 -15,0 0,-13.125 z m 12.1069363,9.157107 2.8930637,-2.717892 2.8930637,2.717892 2.8930638,2.717893 3.9819362,0 3.9819363,0 0,-11.875 0,-11.875 -3.3691012,0 -3.3691013,0 -3.5058987,-3.358864 -3.5058988,-3.358863 -3.5058987,3.358863 -3.5058988,3.358864 -3.3691015,0 -3.369101,0 0,11.875 0,11.875 3.981936,0 3.9819365,0 2.8930638,-2.717893 z m -4.6069363,-9.782107 0,-1.25 3.75,0 3.75,0 0,1.25 0,1.25 -3.75,0 -3.75,0 0,-1.25 z m 8.75,0 c 0,-0.6875 0.5625,-1.25 1.25,-1.25 0.6875,0 1.25,0.5625 1.25,1.25 0,0.6875 -0.5625,1.25 -1.25,1.25 -0.6875,0 -1.25,-0.5625 -1.25,-1.25 z m 3.75,0 c 0,-0.6875 0.5625,-1.25 1.25,-1.25 0.6875,0 1.25,0.5625 1.25,1.25 0,0.6875 -0.5625,1.25 -1.25,1.25 -0.6875,0 -1.25,-0.5625 -1.25,-1.25 z m -7.5227275,-6.7272725 c 0.7,-0.7 1.2727275,-2.2852275 1.2727275,-3.5227275 l 0,-2.25 1.25,0 1.25,0 0,2.25 c 0,1.2375 0.5727275,2.8227275 1.2727275,3.5227275 l 1.2727275,1.2727275 -3.795455,0 -3.795455,0 1.2727275,-1.2727275 z m 4.0227275,17.7272725 -1.5,-1.5 -1.5,1.5 -1.5,1.5 3,0 3,0 -1.5,-1.5 z"
       id="path3618"
       inkscape:connector-curvature="0" />
    <path
       style="fill:#a0a0a0;stroke:none;stroke-width:1px;stroke-linecap:butt;stroke-linejoin:miter;stroke-opacity:1"
       d="M -1.3808594 -16.632812 C -1.3931362 -16.634029 -2.9761866 -15.128618 -4.8984375 -13.287109 L -8.3945312 -9.9394531 L -11.763672 -9.9394531 L -15.130859 -9.9394531 L -15.130859 1.9140625 L -15.130859 13.767578 L -11.158203 13.767578 L -7.1855469 13.767578 L -4.5625 11.304688 C -3.1196786 9.9506785 -1.8161307 8.7239978 -1.6660156 8.578125 L -1.3945312 8.3125 L 1.5039062 11.037109 L 4.4003906 13.763672 L 8.3613281 13.765625 L 12.324219 13.767578 L 12.324219 1.9140625 L 12.324219 -9.9394531 L 8.9648438 -9.9414062 L 5.6054688 -9.9414062 L 2.1230469 -13.287109 C 0.20786834 -15.126391 -1.3685824 -16.631612 -1.3808594 -16.632812 z M -2.6757812 -11.232422 L -1.4082031 -11.232422 L -0.140625 -11.232422 L -0.11914062 -9.7929688 C -0.095602685 -8.2079375 -0.05808437 -7.9136295 0.23046875 -7.0957031 C 0.55636384 -6.1719286 0.80964996 -5.7962151 1.7167969 -4.8945312 C 2.0993839 -4.5142477 2.4121094 -4.1886339 2.4121094 -4.1699219 C 2.4121094 -4.1512099 0.70619415 -4.1347656 -1.3808594 -4.1347656 C -3.467913 -4.1347656 -5.1757812 -4.1511999 -5.1757812 -4.1699219 C -5.1757813 -4.1886442 -4.8738063 -4.5050505 -4.5039062 -4.8730469 C -3.5981835 -5.7741081 -3.310084 -6.2067379 -2.9824219 -7.1679688 C -2.7198242 -7.9383268 -2.6757812 -8.3261728 -2.6757812 -9.8515625 L -2.6757812 -11.232422 z M 1.0820312 0.015625 C 1.4043347 0.0066422987 1.7294745 0.12986518 1.9882812 0.38867188 C 2.6024991 1.0028902 2.4652799 1.9837933 1.7070312 2.3964844 C 1.4244879 2.5502634 1.0119496 2.5908706 0.7109375 2.4941406 C 0.4248134 2.4021946 0.084303125 2.0842804 -0.041015625 1.7929688 C -0.24520044 1.3183277 -0.1620076 0.82400714 0.18945312 0.43945312 C 0.43893482 0.16648036 0.7597278 0.024607701 1.0820312 0.015625 z M 4.8320312 0.015625 C 5.1543347 0.0066422987 5.4794745 0.12986518 5.7382812 0.38867188 C 6.3524991 1.0028902 6.21528 1.9837933 5.4570312 2.3964844 C 5.174488 2.5502634 4.7619496 2.5908706 4.4609375 2.4941406 C 4.1748134 2.4021946 3.8343032 2.0842804 3.7089844 1.7929688 C 3.5047996 1.3183277 3.5879924 0.82400714 3.9394531 0.43945312 C 4.1889348 0.16648036 4.5097278 0.024607701 4.8320312 0.015625 z M -8.9257812 0.017578125 L -5.1542969 0.017578125 L -1.3808594 0.017578125 L -1.3808594 1.2890625 L -1.3808594 2.5605469 L -5.1542969 2.5605469 L -8.9257812 2.5605469 L -8.9257812 1.2890625 L -8.9257812 0.017578125 z M -1.4042969 10.820312 L -2.8769531 12.292969 L -4.3496094 13.767578 L -1.4140625 13.767578 C 0.20019542 13.767578 1.5195312 13.762159 1.5195312 13.755859 C 1.5195313 13.749581 0.86286161 13.08524 0.05859375 12.28125 L -1.4042969 10.820312 z "
       id="path3620" />
  </g>
</svg>
