<?xml version="1.0" encoding="UTF-8" standalone="no"?>
<!-- Created with Inkscape (http://www.inkscape.org/) -->

<svg
   xmlns:dc="http://purl.org/dc/elements/1.1/"
   xmlns:cc="http://creativecommons.org/ns#"
   xmlns:rdf="http://www.w3.org/1999/02/22-rdf-syntax-ns#"
   xmlns:svg="http://www.w3.org/2000/svg"
   xmlns="http://www.w3.org/2000/svg"
   xmlns:sodipodi="http://sodipodi.sourceforge.net/DTD/sodipodi-0.dtd"
   xmlns:inkscape="http://www.inkscape.org/namespaces/inkscape"
   width="210mm"
   height="297mm"
   viewBox="0 0 744.09448819 1052.3622047"
   id="svg4444"
   version="1.1"
   inkscape:version="0.91 r13725"
   sodipodi:docname="icon_si_combat_fabber_adv.svg">
  <defs
     id="defs4446" />
  <sodipodi:namedview
     id="base"
     pagecolor="#ffffff"
     bordercolor="#666666"
     borderopacity="1.0"
     inkscape:pageopacity="0.0"
     inkscape:pageshadow="2"
     inkscape:zoom="11.2"
     inkscape:cx="9.0929319"
     inkscape:cy="1044.0805"
     inkscape:document-units="px"
     inkscape:current-layer="layer1"
     showgrid="false"
     inkscape:window-width="1920"
     inkscape:window-height="1028"
     inkscape:window-x="-8"
     inkscape:window-y="-8"
     inkscape:window-maximized="1" />
  <metadata
     id="metadata4449">
    <rdf:RDF>
      <cc:Work
         rdf:about="">
        <dc:format>image/svg+xml</dc:format>
        <dc:type
           rdf:resource="http://purl.org/dc/dcmitype/StillImage" />
        <dc:title></dc:title>
      </cc:Work>
    </rdf:RDF>
  </metadata>
  <g
     inkscape:label="Ebene 1"
     inkscape:groupmode="layer"
     id="layer1">
    <g
       id="g4463">
      <path
         style="fill:#c8c8c8"
         d="m -10.425372,8.028757 -3.146058,-6.2084462 0,-6.2915538 0,-6.291555 13.75,0 13.75,0 0,6.291555 0,6.2915538 -3.146057,6.2084462 -3.146058,6.208445 -7.457885,0 -7.457885,0 -3.146057,-6.208445 z m 7.7108783,2.240552 2.8930637,-2.717892 3.1200713,2.931155 c 3.5758912,3.359375 3.2417425,3.52744 6.7262787,-3.3830725 l 2.65365,-5.2627025 0,-5.6747975 0,-5.6747975 -12.5,0 -12.5,0 0,5.5915612 0,5.59156 2.7490825,5.6584401 c 1.511995,3.1121407 3.0226162,5.6584387 3.356935,5.6584387 0.33432,0 1.9097337,-1.223051 3.5009187,-2.717893 z m 0.3930637,-6.657107 0,-1.875 -1.875,0 -1.875,0 0,-2.5 0,-2.5 1.875,0 1.875,0 0,-1.875 0,-1.875 2.5,0 2.5,0 0,1.875 0,1.875 1.875,0 1.875,0 0,2.5 0,2.5 -1.875,0 -1.875,0 0,1.875 0,1.875 -2.5,0 -2.5,0 0,-1.875 z m 3.75,-1.25 0,-1.875 1.875,0 1.875,0 0,-1.25 0,-1.25 -1.875,0 -1.875,0 0,-1.875 0,-1.875 -1.25,0 -1.25,0 0,1.875 0,1.875 -1.875,0 -1.875,0 0,1.25 0,1.25 1.875,0 1.875,0 0,1.875 0,1.875 1.25,0 1.25,0 0,-1.875 z m 0.25,9.125 -1.5,-1.5 -1.5,1.5 -1.5,1.5 3,0 3,0 -1.5,-1.5 z"
         id="path4465"
         inkscape:connector-curvature="0" />
    </g>
    <path
       style="stroke:#000000;stroke-width:0.08928572;stroke-opacity:1"
       d="M -12.263672 -9.46875 L -12.263672 -3.8632812 L -12.263672 1.7421875 L -10.568359 5.2148438 C -8.2648702 9.9292939 -7.2570199 11.787253 -6.5683594 12.591797 C -6.4034865 12.784414 -6.2164299 12.943359 -6.1542969 12.943359 C -5.8170985 12.943359 -4.1195502 11.541485 -1.5859375 9.1757812 C -0.67482413 8.3250491 0.12477362 7.6308594 0.18945312 7.6308594 C 0.25413259 7.6308594 1.2070642 8.479021 2.3085938 9.5175781 C 5.4484053 12.477892 5.7001102 12.673828 6.3457031 12.673828 C 6.751804 12.673828 7.1575751 12.321637 7.6601562 11.53125 C 7.8691849 11.20252 9.0768948 8.8929018 10.34375 6.3984375 L 12.646484 1.8632812 L 12.646484 -3.8027344 L 12.646484 -9.46875 L 0.19140625 -9.46875 L -12.263672 -9.46875 z M -2.3535156 -7.0605469 L 0.16796875 -7.0371094 L 2.6914062 -7.0136719 L 2.7148438 -5.1621094 L 2.7402344 -3.3105469 L 4.5898438 -3.2871094 L 6.4414062 -3.2636719 L 6.4648438 -0.74023438 L 6.4882812 1.78125 L 4.6113281 1.78125 L 2.7363281 1.78125 L 2.7363281 3.65625 L 2.7363281 5.53125 L 0.19140625 5.53125 L -2.3535156 5.53125 L -2.3535156 3.65625 L -2.3535156 1.78125 L -4.2285156 1.78125 L -6.1035156 1.78125 L -6.1035156 -0.76367188 L -6.1035156 -3.3066406 L -4.2285156 -3.3066406 L -2.3535156 -3.3066406 L -2.3535156 -5.1835938 L -2.3535156 -7.0605469 z M -1.0136719 -5.71875 L -1.0136719 -3.84375 L -1.0136719 -1.96875 L -2.8886719 -1.96875 L -4.7636719 -1.96875 L -4.7636719 -0.765625 L -4.7636719 0.43945312 L -2.9121094 0.46289062 L -1.0585938 0.48632812 L -1.0351562 2.3398438 L -1.0097656 4.1933594 L 0.19335938 4.1933594 L 1.3964844 4.1933594 L 1.3964844 2.3183594 L 1.3964844 0.44335938 L 3.2714844 0.44335938 L 5.1464844 0.44335938 L 5.1464844 -0.76367188 L 5.1464844 -1.96875 L 3.2714844 -1.96875 L 1.3964844 -1.96875 L 1.3964844 -3.84375 L 1.3964844 -5.71875 L 0.19140625 -5.71875 L -1.0136719 -5.71875 z M 0.19140625 10.085938 C 0.14114786 10.085938 -0.54160882 10.727958 -1.3261719 11.513672 L -2.7539062 12.943359 L 0.19140625 12.943359 L 3.1347656 12.943359 L 1.7089844 11.513672 C 0.92442135 10.727958 0.24166465 10.085938 0.19140625 10.085938 z "
       id="path4469" />
  </g>
</svg>
