<?xml version="1.0" encoding="UTF-8" standalone="no"?>
<!-- Created with Inkscape (http://www.inkscape.org/) -->

<svg
   xmlns:dc="http://purl.org/dc/elements/1.1/"
   xmlns:cc="http://creativecommons.org/ns#"
   xmlns:rdf="http://www.w3.org/1999/02/22-rdf-syntax-ns#"
   xmlns:svg="http://www.w3.org/2000/svg"
   xmlns="http://www.w3.org/2000/svg"
   xmlns:sodipodi="http://sodipodi.sourceforge.net/DTD/sodipodi-0.dtd"
   xmlns:inkscape="http://www.inkscape.org/namespaces/inkscape"
   width="210mm"
   height="297mm"
   viewBox="0 0 744.09448819 1052.3622047"
   id="svg2"
   version="1.1"
   inkscape:version="0.91 r13725"
   sodipodi:docname="icon_si_fabrication_ship_adv.svg">
  <defs
     id="defs4" />
  <sodipodi:namedview
     id="base"
     pagecolor="#ffffff"
     bordercolor="#666666"
     borderopacity="1.0"
     inkscape:pageopacity="0.0"
     inkscape:pageshadow="2"
     inkscape:zoom="44.8"
     inkscape:cx="0.58254962"
     inkscape:cy="1053.8966"
     inkscape:document-units="px"
     inkscape:current-layer="layer1"
     showgrid="false"
     inkscape:window-width="1920"
     inkscape:window-height="1028"
     inkscape:window-x="-8"
     inkscape:window-y="-8"
     inkscape:window-maximized="1" />
  <metadata
     id="metadata7">
    <rdf:RDF>
      <cc:Work
         rdf:about="">
        <dc:format>image/svg+xml</dc:format>
        <dc:type
           rdf:resource="http://purl.org/dc/dcmitype/StillImage" />
        <dc:title></dc:title>
      </cc:Work>
    </rdf:RDF>
  </metadata>
  <g
     inkscape:label="Ebene 1"
     inkscape:groupmode="layer"
     id="layer1">
    <g
       id="g3347">
      <path
         style="fill:#c8c8c8"
         d="m -9.820583,0.57893 0,-8 15,0 15,0 0,2.281303 0,2.281304 -5.778997,5.718696 -5.778998,5.718697 -9.221002,0 -9.221003,0 z m 7.685549,4.825686 2.314451,-2.174314 2.314451,2.174314 2.314451,2.174314 1.904104,0 1.904103,0 5.281446,-5.21584 5.281445,-5.21584 0,-1.78416 0,-1.78416 -14,0 -14,0 0,7 0,7 2.185549,0 2.185549,0 z m -0.7283497,-5.94359943 0.1116071,-2.00892857 1.95666775,-0.081668 -0.0522599,-2.3138116 2.04017902,0.053571 0.089286,2.1205357 1.883928,0.03125 0.084821,2.01339287 L 1.353524,-0.59071286 1.2093554,1.3413113 -0.91118032,1.4529184 -0.80981228,-0.62826914 Z M 1.379417,6.37893 l -1.2,-1.2 -1.2,1.2 -1.2,1.2 2.4,0 2.4,0 z"
         id="path3349"
         inkscape:connector-curvature="0"
         sodipodi:nodetypes="cccccccccccccccccccccccccccccccccccccccccccccccc" />
    </g>
    <path
       style="fill:#a0a0a0;stroke:none;stroke-width:1px;stroke-linecap:butt;stroke-linejoin:miter;stroke-opacity:1"
       d="M -8.8183594 -6.4179688 L -8.8183594 0.58007812 L -8.8183594 7.578125 L -6.6367188 7.5761719 L -4.4550781 7.5761719 L -2.1386719 5.4003906 L 0.17773438 3.2226562 L 0.41796875 3.4453125 C 0.54939397 3.5678399 1.5906808 4.5467769 2.7324219 5.6210938 L 4.8085938 7.5742188 L 6.7089844 7.5761719 L 8.609375 7.578125 L 13.890625 2.3613281 L 19.171875 -2.8535156 L 19.171875 -4.6367188 L 19.171875 -6.4179688 L 5.1757812 -6.4179688 L -8.8183594 -6.4179688 z M -0.84375 -4.9375 C -0.83286763 -4.948382 1.1843705 -4.9039411 1.1953125 -4.8925781 C 1.1972975 -4.8905162 1.2193936 -4.4188302 1.2441406 -3.84375 C 1.2688886 -3.2686696 1.2929581 -2.7929794 1.2988281 -2.7871094 C 1.3046935 -2.7812444 1.7230442 -2.7700588 2.2265625 -2.7617188 C 2.7300808 -2.7533788 3.1491131 -2.7395688 3.1582031 -2.7304688 C 3.1854311 -2.7031973 3.2618841 -0.7423567 3.2363281 -0.7265625 C 3.2240728 -0.7189884 2.7973859 -0.6837741 2.2890625 -0.6484375 L 1.3652344 -0.58398438 L 1.3515625 -0.4609375 C 1.3447425 -0.39241786 1.3126319 0.041573665 1.2792969 0.50195312 C 1.2459619 0.96233259 1.2184569 1.3393669 1.2167969 1.3417969 C 1.2151375 1.3442259 0.82216183 1.3675821 0.34375 1.3925781 C -0.13466206 1.4175741 -0.61722634 1.445335 -0.7265625 1.453125 L -0.92382812 1.4667969 L -0.91015625 1.2578125 C -0.87538345 0.72969935 -0.82147477 -0.59295915 -0.83398438 -0.60546875 C -0.84165892 -0.61314335 -1.2975534 -0.60048777 -1.8476562 -0.57617188 C -2.3977593 -0.55185608 -2.8518519 -0.53599063 -2.8574219 -0.54101562 C -2.8629919 -0.54604129 -2.8445761 -0.99794304 -2.8144531 -1.546875 L -2.7597656 -2.5449219 L -2.546875 -2.5585938 C -2.4302455 -2.5661588 -2.0012752 -2.5857165 -1.59375 -2.6015625 C -1.1862248 -2.6174075 -0.8422085 -2.6377844 -0.828125 -2.6464844 C -0.8088707 -2.6583842 -0.8077933 -2.9423364 -0.828125 -3.7929688 C -0.8429975 -4.4151733 -0.850923 -4.93033 -0.84375 -4.9375 z M 0.1875 5.1894531 L -1.0058594 6.3828125 L -2.2011719 7.578125 L 0.18164062 7.578125 C 1.4921446 7.578125 2.5644531 7.5753756 2.5644531 7.5722656 C 2.5644531 7.5691533 2.0307348 7.0306491 1.3769531 6.3769531 L 0.1875 5.1894531 z "
       id="path3353" />
  </g>
</svg>
