<?xml version="1.0" encoding="UTF-8" standalone="no"?>
<!-- Created with Inkscape (http://www.inkscape.org/) -->

<svg
   xmlns:dc="http://purl.org/dc/elements/1.1/"
   xmlns:cc="http://creativecommons.org/ns#"
   xmlns:rdf="http://www.w3.org/1999/02/22-rdf-syntax-ns#"
   xmlns:svg="http://www.w3.org/2000/svg"
   xmlns="http://www.w3.org/2000/svg"
   xmlns:sodipodi="http://sodipodi.sourceforge.net/DTD/sodipodi-0.dtd"
   xmlns:inkscape="http://www.inkscape.org/namespaces/inkscape"
   width="210mm"
   height="297mm"
   viewBox="0 0 744.09448819 1052.3622047"
   id="svg3723"
   version="1.1"
   inkscape:version="0.91 r13725"
   sodipodi:docname="icon_si_bomber_adv.svg">
  <defs
     id="defs3725" />
  <sodipodi:namedview
     id="base"
     pagecolor="#ffffff"
     bordercolor="#666666"
     borderopacity="1.0"
     inkscape:pageopacity="0.0"
     inkscape:pageshadow="2"
     inkscape:zoom="15.839192"
     inkscape:cx="-0.37782559"
     inkscape:cy="1050.867"
     inkscape:document-units="px"
     inkscape:current-layer="layer1"
     showgrid="false"
     inkscape:window-width="1920"
     inkscape:window-height="1028"
     inkscape:window-x="-8"
     inkscape:window-y="-8"
     inkscape:window-maximized="1" />
  <metadata
     id="metadata3728">
    <rdf:RDF>
      <cc:Work
         rdf:about="">
        <dc:format>image/svg+xml</dc:format>
        <dc:type
           rdf:resource="http://purl.org/dc/dcmitype/StillImage" />
        <dc:title></dc:title>
      </cc:Work>
    </rdf:RDF>
  </metadata>
  <g
     inkscape:label="Ebene 1"
     inkscape:groupmode="layer"
     id="layer1">
    <g
       id="g3742">
      <path
         style="fill:#c8c8c8"
         d="m -2.992386,11.433723 -2.2624688,-2.5 -6.0562662,0 -6.056265,0 0,-2.846025 0,-2.8460237 8.75,-8.6829513 8.75,-8.682951 8.75,8.682951 8.75,8.6829513 0,2.8460237 0,2.846025 -6.056265,0 -6.0562663,0 -2.2624687,2.5 c -1.2443575,1.375 -2.6506075,2.5 -3.125,2.5 -0.4743925,0 -1.8806425,-1.125 -3.125,-2.5 z m 6.25,-1.25 2.2624687,-2.5 5.4312663,0 5.431265,0 0,-2.22361 0,-2.2236112 -8.125,-8.0527788 -8.125,-8.052779 -8.125,8.052779 -8.125,8.0527788 0,2.2236112 0,2.22361 5.431265,0 5.4312662,0 2.2624688,2.5 c 1.2443575,1.375 2.6506075,2.5 3.125,2.5 0.4743925,0 1.8806425,-1.125 3.125,-2.5 z M -2.3901135,5.9564505 c 0.7,-0.7 1.2727275,-2.2852275 1.2727275,-3.5227275 l 0,-2.25 1.25,0 1.25,0 0,2.25 c 0,1.2375 0.5727275,2.8227275 1.2727275,3.5227275 l 1.2727275,1.2727275 -3.795455,0 -3.795455,0 1.2727275,-1.2727275 z m -3.7272725,-9.5227275 0,-1.25 4.375,0 4.375,0 0,1.25 0,1.25 -4.375,0 -4.375,0 0,-1.25 z m 10,0 c 0,-0.6875 0.5625,-1.25 1.25,-1.25 0.6875,0 1.25,0.5625 1.25,1.25 0,0.6875 -0.5625,1.25 -1.25,1.25 -0.6875,0 -1.25,-0.5625 -1.25,-1.25 z"
         id="path3744"
         inkscape:connector-curvature="0" />
    </g>
    <path
       style="fill:#a0a0a0;stroke:none;stroke-width:1px;stroke-linecap:butt;stroke-linejoin:miter;stroke-opacity:1"
       d="M -0.29586434,12.493177 C -1.1182213,12.060592 -2.0736451,11.170699 -3.9730658,9.0681877 l -1.2975719,-1.4363106 -5.4201573,0 -5.420157,0 0.0022,-2.1939251 0.0022,-2.193925 8.0888857,-8.0180859 c 4.448888,-4.4099472 8.10665922,-8.0254951 8.12838128,-8.0345521 0.0217227,-0.0091 3.68222572,3.5940202 8.13445292,8.006836 l 8.0949571,8.0233014 0,2.205175 0,2.2051757 -5.394802,0 -5.3948027,0 -1.5267622,1.6761032 C 2.4987858,10.9822 1.4521548,11.969631 0.75188735,12.394856 c -0.52260053,0.317341 -0.614919,0.326004 -1.04775169,0.09832 z M 3.9026958,7.2104054 c 0,-0.023465 -0.3631934,-0.4141101 -0.8070961,-0.8680998 C 2.2556194,5.483239 2.0535535,5.1771571 1.7508171,4.3052787 1.4846779,3.5387977 1.43253,3.1478547 1.3966134,1.64988 l -0.035194,-1.46787796 -1.25474333,0 -1.25474267,0 0,1.35041806 c 0,1.4685755 -0.071098,2.0337653 -0.3570732,2.8385324 -0.2917541,0.8210299 -0.5610058,1.2202706 -1.4008492,2.0771521 l -0.7889594,0.8049653 3.79882256,0 c 2.08935214,0 3.79882194,-0.019199 3.79882194,-0.042664 z m -1.2626907,-10.7853406 0,-1.2946898 -4.3720665,0.016216 -4.3720664,0.016216 -0.017091,1.2784743 -0.017091,1.2784743 4.389157,0 4.3891576,0 0,-1.2946904 z m 2.8094868,1.2250038 c 0.809177,-0.2210315 1.1855826,-1.1313399 0.7647373,-1.849458 -0.5886096,-1.0043859 -2.0984865,-0.7188309 -2.340014,0.4425541 -0.1353257,0.6507163 0.5042429,1.4363896 1.1964695,1.4697934 0.069448,0.00335 0.2399112,-0.024949 0.3788072,-0.062889 z"
       id="path3751"
       inkscape:connector-curvature="0" />
  </g>
</svg>
