<?xml version="1.0" encoding="UTF-8" standalone="no"?>
<!-- Created with Inkscape (http://www.inkscape.org/) -->

<svg
   xmlns:dc="http://purl.org/dc/elements/1.1/"
   xmlns:cc="http://creativecommons.org/ns#"
   xmlns:rdf="http://www.w3.org/1999/02/22-rdf-syntax-ns#"
   xmlns:svg="http://www.w3.org/2000/svg"
   xmlns="http://www.w3.org/2000/svg"
   xmlns:sodipodi="http://sodipodi.sourceforge.net/DTD/sodipodi-0.dtd"
   xmlns:inkscape="http://www.inkscape.org/namespaces/inkscape"
   width="210mm"
   height="297mm"
   viewBox="0 0 744.09448819 1052.3622047"
   id="svg2"
   version="1.1"
   inkscape:version="0.91 r13725"
   sodipodi:docname="icon_si_aa_missile_vehicle.svg">
  <defs
     id="defs4" />
  <sodipodi:namedview
     id="base"
     pagecolor="#ffffff"
     bordercolor="#666666"
     borderopacity="1.0"
     inkscape:pageopacity="0.0"
     inkscape:pageshadow="2"
     inkscape:zoom="7.9195959"
     inkscape:cx="-9.2842341"
     inkscape:cy="1036.1454"
     inkscape:document-units="px"
     inkscape:current-layer="layer1"
     showgrid="false"
     inkscape:window-width="1920"
     inkscape:window-height="1028"
     inkscape:window-x="1912"
     inkscape:window-y="-8"
     inkscape:window-maximized="1" />
  <metadata
     id="metadata7">
    <rdf:RDF>
      <cc:Work
         rdf:about="">
        <dc:format>image/svg+xml</dc:format>
        <dc:type
           rdf:resource="http://purl.org/dc/dcmitype/StillImage" />
        <dc:title></dc:title>
      </cc:Work>
    </rdf:RDF>
  </metadata>
  <g
     inkscape:label="Ebene 1"
     inkscape:groupmode="layer"
     id="layer1">
    <g
       id="g3347">
      <path
         style="fill:#c8c8c8"
         d="m -15.000008,5.562347 0,-2.871315 4.740204,-4.628685 4.7402023,-4.628685 5.63111245,0 5.63111125,0 4.628685,4.7402038 4.628685,4.7402025 0,2.7597975 0,2.7597962 -15,0 -15,0 0,-2.871315 z m 28.75,-0.5066762 0,-2.1279913 -3.9952088,-4.1220087 -3.9952087,-4.1220088 -5.6327825,0 -5.6327825,0 -4.1220088,3.9952088 -4.1220087,3.9952087 0,2.2547912 0,2.2547913 13.75,0 13.75,0 0,-2.1279912 z m -16.875,-4.1220088 3.5927275,-3.75 1.875,0 1.875,0 -3.5927275,3.75 -3.5927275,3.75 -1.875,0 -1.875,0 3.5927275,-3.75 z"
         id="path3349"
         inkscape:connector-curvature="0" />
    </g>
    <path
       style="fill:#a0a0a0;stroke:none;stroke-width:1px;stroke-linecap:butt;stroke-linejoin:miter;stroke-opacity:1"
       d="m -13.678398,4.8963527 0,-2.2543426 4.0721778,-3.9322173 4.0721774,-3.9322171 5.6821081,0.00402 5.6821081,0.00402 3.940446,4.067531 3.9404456,4.067531 0.0055,2.1150069 0.0055,2.1150069 -13.70019376,0 -13.70019424,0 0,-2.2543426 z M -0.53928795,2.1946344 C 0.80684513,0.78831266 2.4461687,-0.91631977 3.103653,-1.5934376 l 1.1954284,-1.2311235 -1.9492396,0.00427 -1.94923836,0.00427 -3.21986124,3.35923676 C -4.5901815,2.3908015 -6.1995138,4.0935112 -6.3955519,4.3270206 l -0.3564328,0.4245624 1.882592,0 1.882592,0 2.44751275,-2.5569486 z"
       id="path3353"
       inkscape:connector-curvature="0" />
  </g>
</svg>
