<?xml version="1.0" encoding="UTF-8" standalone="no"?>
<!-- Created with Inkscape (http://www.inkscape.org/) -->

<svg
   xmlns:dc="http://purl.org/dc/elements/1.1/"
   xmlns:cc="http://creativecommons.org/ns#"
   xmlns:rdf="http://www.w3.org/1999/02/22-rdf-syntax-ns#"
   xmlns:svg="http://www.w3.org/2000/svg"
   xmlns="http://www.w3.org/2000/svg"
   xmlns:sodipodi="http://sodipodi.sourceforge.net/DTD/sodipodi-0.dtd"
   xmlns:inkscape="http://www.inkscape.org/namespaces/inkscape"
   width="210mm"
   height="297mm"
   viewBox="0 0 744.09448819 1052.3622047"
   id="svg2"
   version="1.1"
   inkscape:version="0.91 r13725"
   sodipodi:docname="icon_si_laser_defense_adv.svg">
  <defs
     id="defs4" />
  <sodipodi:namedview
     id="base"
     pagecolor="#ffffff"
     bordercolor="#666666"
     borderopacity="1.0"
     inkscape:pageopacity="0.0"
     inkscape:pageshadow="2"
     inkscape:zoom="15.839192"
     inkscape:cx="-3.1075173"
     inkscape:cy="1051.7132"
     inkscape:document-units="px"
     inkscape:current-layer="layer1"
     showgrid="false"
     inkscape:window-width="1920"
     inkscape:window-height="1028"
     inkscape:window-x="-8"
     inkscape:window-y="-8"
     inkscape:window-maximized="1" />
  <metadata
     id="metadata7">
    <rdf:RDF>
      <cc:Work
         rdf:about="">
        <dc:format>image/svg+xml</dc:format>
        <dc:type
           rdf:resource="http://purl.org/dc/dcmitype/StillImage" />
        <dc:title></dc:title>
      </cc:Work>
    </rdf:RDF>
  </metadata>
  <g
     inkscape:label="Ebene 1"
     inkscape:groupmode="layer"
     id="layer1">
    <path
       style="fill:#000000"
       d="m -10.17857,0.219345 0,-15 10,0 10,0 0,15 0,15 -10,0 -10,0 0,-15 z M -3.0716337,11.251452 -0.17857,8.53356 2.7144937,11.251452 c 1.591185,1.494842 3.559935,2.717893 4.375,2.717893 l 1.4819363,0 0,-13.75 0,-13.75 -8.75,0 -8.75,0 0,13.75 0,13.75 1.4819363,0 c 0.815065,0 2.783815,-1.223051 4.375,-2.717893 z M -5.17857,-9.780655 l 0,-1.25 5,0 5,0 0,1.25 0,1.25 -5,0 -5,0 0,-1.25 z m 6.5,22.25 -1.5,-1.5 -1.5,1.5 -1.5,1.5 3,0 3,0 -1.5,-1.5 z"
       id="path3347"
       inkscape:connector-curvature="0" />
    <path
       style="fill:#a0a0a0;stroke:none;stroke-width:1px;stroke-linecap:butt;stroke-linejoin:miter;stroke-opacity:1"
       d="M -8.9277344 -13.480469 L -8.9277344 0.22460938 L -8.9277344 13.929688 L -7.9589844 13.908203 L -6.9882812 13.888672 L -6.3320312 13.5625 C -5.5954191 13.196091 -4.5413959 12.481184 -3.7832031 11.833984 C -3.5054112 11.596858 -2.5822941 10.748986 -1.7324219 9.9511719 L -0.1875 8.5019531 L 0.06640625 8.7285156 C 0.2061678 8.8537082 0.9311685 9.5307318 1.6777344 10.232422 C 3.2017073 11.664789 3.7015579 12.096095 4.4648438 12.636719 C 5.1967283 13.155101 5.723708 13.464689 6.2832031 13.708984 C 6.7497528 13.912696 6.7814277 13.91917 7.6601562 13.919922 L 8.5605469 13.919922 L 8.5605469 0.22070312 L 8.5605469 -13.480469 L -0.18359375 -13.480469 L -8.9277344 -13.480469 z M -5.203125 -11.082031 L -0.18359375 -11.082031 L 4.8339844 -11.082031 L 4.8339844 -9.7871094 L 4.8339844 -8.4921875 L -0.18359375 -8.4921875 L -5.203125 -8.4921875 L -5.203125 -9.7871094 L -5.203125 -11.082031 z M -0.18554688 11.015625 L -1.6367188 12.46875 L -3.0878906 13.919922 L -0.19921875 13.919922 C 1.3891209 13.919922 2.6875 13.913297 2.6875 13.904297 C 2.6875 13.895333 2.0422041 13.240862 1.2519531 12.451172 L -0.18554688 11.015625 z "
       id="path3349" />
  </g>
</svg>
