<?xml version="1.0" encoding="UTF-8" standalone="no"?>
<!-- Created with Inkscape (http://www.inkscape.org/) -->

<svg
   xmlns:dc="http://purl.org/dc/elements/1.1/"
   xmlns:cc="http://creativecommons.org/ns#"
   xmlns:rdf="http://www.w3.org/1999/02/22-rdf-syntax-ns#"
   xmlns:svg="http://www.w3.org/2000/svg"
   xmlns="http://www.w3.org/2000/svg"
   xmlns:sodipodi="http://sodipodi.sourceforge.net/DTD/sodipodi-0.dtd"
   xmlns:inkscape="http://www.inkscape.org/namespaces/inkscape"
   width="210mm"
   height="297mm"
   viewBox="0 0 744.09448819 1052.3622047"
   id="svg3355"
   version="1.1"
   inkscape:version="0.91 r13725"
   sodipodi:docname="icon_si_power_plant_adv.svg">
  <defs
     id="defs3357" />
  <sodipodi:namedview
     id="base"
     pagecolor="#ffffff"
     bordercolor="#666666"
     borderopacity="1.0"
     inkscape:pageopacity="0.0"
     inkscape:pageshadow="2"
     inkscape:zoom="5.6"
     inkscape:cx="3.8363225"
     inkscape:cy="1039.7786"
     inkscape:document-units="px"
     inkscape:current-layer="layer1"
     showgrid="false"
     inkscape:window-width="1920"
     inkscape:window-height="1028"
     inkscape:window-x="-8"
     inkscape:window-y="-8"
     inkscape:window-maximized="1" />
  <metadata
     id="metadata3360">
    <rdf:RDF>
      <cc:Work
         rdf:about="">
        <dc:format>image/svg+xml</dc:format>
        <dc:type
           rdf:resource="http://purl.org/dc/dcmitype/StillImage" />
        <dc:title></dc:title>
      </cc:Work>
    </rdf:RDF>
  </metadata>
  <g
     inkscape:label="Ebene 1"
     inkscape:groupmode="layer"
     id="layer1">
    <g
       id="g3374">
      <path
         style="fill:#c8c8c8"
         d="m -10.014172,10.121998 -4.628685,-4.7402022 0,-5.63111255 0,-5.63111125 4.7402037,-4.628685 4.7402026,-4.628685 5.63111245,0 5.63111125,0 4.628685,4.740204 4.628685,4.7402023 0,5.63111245 0,5.63111125 -4.740204,4.628685 -4.7402023,4.628685 -5.63111245,0 -5.63111125,0 -4.628685,-4.740204 z m 13.2574325,0.765785 2.8861162,2.711367 3.9888843,-4.115483 3.988882,-4.1154825 0,-5.5059825 0,-5.5059825 -3.995209,-4.1220087 -3.9952085,-4.1220088 -5.6327825,0 -5.6327825,0 -4.1220088,3.9952088 -4.1220087,3.9952087 0,5.6327825 0,5.6327825 3.9888825,4.1154825 3.9888838,4.115483 2.8861162,-2.711367 2.8861175,-2.711366 2.8861175,2.711366 z m -6.0111175,-8.525581 1.9392,-3.75 -2.1008337,0 -2.1008351,0 2.2624688,-2.5 2.26246875,-2.5 3.12500005,0 3.125,0 -2.2624688,2.5 -2.2624688,2.5 1.6775988,0 1.6775975,0 -3.5927275,3.75 c -1.976,2.0625 -4.0644337,3.75 -4.6409638,3.75 l -1.0482362,0 1.9392,-3.75 z m 4.625,9.75 -1.5,-1.5 -1.5,1.5 -1.5,1.5 3,0 3,0 -1.5,-1.5 z"
         id="path3376"
         inkscape:connector-curvature="0" />
    </g>
    <path
       style="fill:#a0a0a0;stroke:none;stroke-width:1px;stroke-linecap:butt;stroke-linejoin:miter;stroke-opacity:1"
       d="M -5.1582031 -13.808594 L -9.25 -9.8476562 L -13.341797 -5.8847656 L -13.341797 -0.2734375 L -13.341797 5.3378906 L -9.3925781 9.4238281 L -5.4414062 13.509766 L -3.9902344 12.167969 C -3.1919119 11.430031 -1.8763016 10.214885 -1.0664062 9.46875 L 0.40625 8.1132812 L 3.25 10.820312 L 6.09375 13.527344 L 9.109375 10.439453 C 10.767187 8.7410464 12.540351 6.9012304 13.050781 6.3515625 L 13.978516 5.3535156 L 13.978516 -0.17382812 L 13.978516 -5.6992188 L 10.035156 -9.7539062 L 6.0917969 -13.808594 L 0.46679688 -13.808594 L -5.1582031 -13.808594 z M -0.46484375 -6.4882812 L 2.6503906 -6.4882812 C 4.3635776 -6.4882812 5.765625 -6.4524541 5.765625 -6.4082031 C 5.765625 -6.3639524 4.7973814 -5.2573676 3.6152344 -3.9511719 L 1.4667969 -1.5761719 L 2.9902344 -1.5253906 C 3.8286321 -1.4970133 4.5143862 -1.4174932 4.5136719 -1.3476562 C 4.5110469 -1.0645935 -1.1903648 4.5974326 -2.2460938 5.3652344 C -3.1442404 6.0184327 -3.5305414 6.1914062 -4.0917969 6.1914062 L -4.8007812 6.1914062 L -2.9101562 2.5390625 C -1.8706165 0.53026003 -1.0214844 -1.1572395 -1.0214844 -1.2109375 C -1.0214844 -1.2646355 -1.9114583 -1.3085938 -3 -1.3085938 C -4.1839667 -1.3085937 -4.9555299 -1.3781315 -4.9199219 -1.4804688 C -4.8871839 -1.5745575 -3.8707966 -2.7402941 -2.6621094 -4.0703125 L -0.46484375 -6.4882812 z M 0.31054688 10.654297 L -1.109375 12.083984 L -2.53125 13.511719 L 0.27734375 13.511719 C 1.8219146 13.511719 3.0859375 13.489751 3.0859375 13.462891 C 3.0859375 13.436033 2.4626184 12.794079 1.6992188 12.035156 L 0.31054688 10.654297 z "
       id="path3380" />
  </g>
</svg>
