<?xml version="1.0" encoding="UTF-8" standalone="no"?>
<!-- Created with Inkscape (http://www.inkscape.org/) -->

<svg
   xmlns:dc="http://purl.org/dc/elements/1.1/"
   xmlns:cc="http://creativecommons.org/ns#"
   xmlns:rdf="http://www.w3.org/1999/02/22-rdf-syntax-ns#"
   xmlns:svg="http://www.w3.org/2000/svg"
   xmlns="http://www.w3.org/2000/svg"
   xmlns:sodipodi="http://sodipodi.sourceforge.net/DTD/sodipodi-0.dtd"
   xmlns:inkscape="http://www.inkscape.org/namespaces/inkscape"
   width="210mm"
   height="297mm"
   viewBox="0 0 744.09448819 1052.3622047"
   id="svg3406"
   version="1.1"
   inkscape:version="0.91 r13725"
   sodipodi:docname="icon_si_tank_light_laser.svg">
  <defs
     id="defs3408" />
  <sodipodi:namedview
     id="base"
     pagecolor="#ffffff"
     bordercolor="#666666"
     borderopacity="1.0"
     inkscape:pageopacity="0.0"
     inkscape:pageshadow="2"
     inkscape:zoom="15.839192"
     inkscape:cx="5.7351005"
     inkscape:cy="1056.0482"
     inkscape:document-units="px"
     inkscape:current-layer="layer1"
     showgrid="false"
     inkscape:window-width="1920"
     inkscape:window-height="1028"
     inkscape:window-x="-8"
     inkscape:window-y="-8"
     inkscape:window-maximized="1" />
  <metadata
     id="metadata3411">
    <rdf:RDF>
      <cc:Work
         rdf:about="">
        <dc:format>image/svg+xml</dc:format>
        <dc:type
           rdf:resource="http://purl.org/dc/dcmitype/StillImage" />
        <dc:title></dc:title>
      </cc:Work>
    </rdf:RDF>
  </metadata>
  <g
     inkscape:label="Ebene 1"
     inkscape:groupmode="layer"
     id="layer1">
    <path
       style="fill:#000000"
       d="m -14.852058,4.922268 0,-2.871315 4.740204,-4.628685 4.7402023,-4.628685 5.63111245,0 5.63111125,0 4.628685,4.7402037 4.628685,4.7402025 0,2.7597975 0,2.7597963 -15,0 -15,0 0,-2.871315 z m 28.75,-0.5066763 0,-2.1279912 -3.9952088,-4.1220088 -3.9952087,-4.1220087 -5.6327825,0 -5.6327825,0 -4.1220088,3.9952087 -4.1220087,3.9952088 0,2.2547912 0,2.2547913 13.75,0 13.75,0 0,-2.1279913 z m -18.75,-6.6220087 0,-1.25 5,0 5,0 0,1.25 0,1.25 -5,0 -5,0 0,-1.25 z"
       id="path3425"
       inkscape:connector-curvature="0" />
    <path
       style="fill:#a0a0a0;stroke:none;stroke-width:1px;stroke-linecap:butt;stroke-linejoin:miter;stroke-opacity:1"
       d="m -13.596694,4.2856668 0,-2.2055973 4.1347885,-4.0131541 4.1347882,-4.0131538 5.60371398,8.303e-4 5.60371332,8.303e-4 3.9913412,4.1186981 3.9913418,4.118698 0.0019,2.0992233 0.0019,2.0992233 -13.73176164,0 -13.73176136,0 0,-2.2055981 z m 18.7509568,-6.4754004 0,-1.2942579 -5.01919544,0 -5.01919546,0 0,1.2521682 c 0,0.6886926 0.01894,1.27110866 0.04209,1.29425794 0.023149,0.0231494 2.2817869,0.0420897 5.01919546,0.0420897 l 4.97710554,0 0,-1.29425795 z"
       id="path3427"
       inkscape:connector-curvature="0" />
  </g>
</svg>
