<?xml version="1.0" encoding="UTF-8" standalone="no"?>
<!-- Created with Inkscape (http://www.inkscape.org/) -->

<svg
   xmlns:dc="http://purl.org/dc/elements/1.1/"
   xmlns:cc="http://creativecommons.org/ns#"
   xmlns:rdf="http://www.w3.org/1999/02/22-rdf-syntax-ns#"
   xmlns:svg="http://www.w3.org/2000/svg"
   xmlns="http://www.w3.org/2000/svg"
   xmlns:sodipodi="http://sodipodi.sourceforge.net/DTD/sodipodi-0.dtd"
   xmlns:inkscape="http://www.inkscape.org/namespaces/inkscape"
   width="210mm"
   height="297mm"
   viewBox="0 0 744.09448819 1052.3622047"
   id="svg3498"
   version="1.1"
   inkscape:version="0.91 r13725"
   sodipodi:docname="icon_si_artillery_long.svg">
  <defs
     id="defs3500" />
  <sodipodi:namedview
     id="base"
     pagecolor="#ffffff"
     bordercolor="#666666"
     borderopacity="1.0"
     inkscape:pageopacity="0.0"
     inkscape:pageshadow="2"
     inkscape:zoom="7.9195959"
     inkscape:cx="-1.8181061"
     inkscape:cy="1044.7281"
     inkscape:document-units="px"
     inkscape:current-layer="layer1"
     showgrid="false"
     inkscape:window-width="1920"
     inkscape:window-height="1028"
     inkscape:window-x="-8"
     inkscape:window-y="-8"
     inkscape:window-maximized="1" />
  <metadata
     id="metadata3503">
    <rdf:RDF>
      <cc:Work
         rdf:about="">
        <dc:format>image/svg+xml</dc:format>
        <dc:type
           rdf:resource="http://purl.org/dc/dcmitype/StillImage" />
        <dc:title></dc:title>
      </cc:Work>
    </rdf:RDF>
  </metadata>
  <g
     inkscape:label="Ebene 1"
     inkscape:groupmode="layer"
     id="layer1">
    <g
       id="g3517">
      <path
         style="fill:#c8c8c8"
         d="m -14.747452,0.521858 0,-13.125 3.994101,0 3.9941015,0 3.5058987,-3.358864 3.5058988,-3.358863 3.5058987,3.358863 3.5058988,3.358864 3.9941015,0 3.994101,0 0,13.125 0,13.125 -15,0 -15,0 0,-13.125 z M -2.6405157,9.6789655 0.252548,6.961073 l 2.8930637,2.7178925 2.8930638,2.7178925 3.9819365,0 3.981936,0 0,-11.875 0,-11.875 -3.369101,0 -3.3691015,0 -3.5058988,-3.358864 -3.5058987,-3.358863 -3.5058988,3.358863 -3.5058987,3.358864 -3.3691015,0 -3.369101,0 0,11.875 0,11.875 3.9819363,0 3.9819362,0 2.8930638,-2.7178925 z M -7.247452,-1.353142 l 0,-1.25 3.75,0 3.75,0 0,1.25 0,1.25 -3.75,0 -3.75,0 0,-1.25 z m 8.75,0 c 0,-0.6875 0.5625,-1.25 1.25,-1.25 0.6875,0 1.25,0.5625 1.25,1.25 0,0.6875 -0.5625,1.25 -1.25,1.25 -0.6875,0 -1.25,-0.5625 -1.25,-1.25 z m 3.75,0 c 0,-0.6875 0.5625,-1.25 1.25,-1.25 0.6875,0 1.25,0.5625 1.25,1.25 0,0.6875 -0.5625,1.25 -1.25,1.25 -0.6875,0 -1.25,-0.5625 -1.25,-1.25 z m -7.2744388,-7.8125 0.3994388,-2.8125 1.875,0 1.875,0 0.3994387,2.8125 0.3994388,2.8125 -2.6738775,0 -2.6738775,0 0.3994387,-2.8125 z m 3.7744388,20.0625 -1.5,-1.5 -1.5,1.5 -1.5,1.5 3,0 3,0 -1.5,-1.5 z"
         id="path3519"
         inkscape:connector-curvature="0" />
    </g>
    <path
       style="fill:#a0a0a0;stroke:none;stroke-width:1px;stroke-linecap:butt;stroke-linejoin:miter;stroke-opacity:1"
       d="M 0.28515625 -18.001953 L -0.11132812 -17.640625 C -0.32930137 -17.441481 -1.9137142 -15.928686 -3.6328125 -14.279297 L -6.7597656 -11.28125 L -10.109375 -11.28125 L -13.460938 -11.28125 L -13.460938 0.52539062 L -13.460938 12.332031 L -9.4765625 12.332031 L -5.4921875 12.332031 L -3.3203125 10.287109 C -2.1257818 9.1628236 -0.83592231 7.9418966 -0.453125 7.5742188 L 0.2421875 6.90625 L 3.1386719 9.6191406 L 6.0351562 12.332031 L 9.9882812 12.332031 L 13.939453 12.332031 L 13.939453 0.52539062 L 13.939453 -11.28125 L 10.615234 -11.28125 L 7.2890625 -11.28125 L 3.7871094 -14.642578 L 0.28515625 -18.001953 z M 2.1542969 -12.044922 L 2.5058594 -9.5488281 C 2.6983288 -8.1754838 2.8838191 -6.894107 2.9199219 -6.703125 L 2.9863281 -6.3574219 L 0.25390625 -6.3574219 L -2.4785156 -6.3574219 L -2.4042969 -6.8300781 C -2.3638173 -7.090508 -2.1782346 -8.3538842 -1.9921875 -9.6386719 L -1.6542969 -11.974609 L 0.25 -12.009766 L 2.1542969 -12.044922 z M -7.2734375 -2.6992188 L -3.515625 -2.6640625 L 0.24023438 -2.6308594 L 0.27539062 -1.3378906 L 0.3125 -0.04296875 L -3.4804688 -0.04296875 L -7.2734375 -0.04296875 L -7.2734375 -1.3710938 L -7.2734375 -2.6992188 z M 2.59375 -2.6230469 C 2.7137584 -2.6473322 2.8253468 -2.6482981 2.9160156 -2.6191406 C 3.4703519 -2.4408765 3.7144071 -2.2517243 3.9042969 -1.8515625 C 4.1762527 -1.2784588 3.9733105 -0.62692848 3.4160156 -0.28710938 C 2.7454183 0.12179532 2.101264 -0.032140275 1.6933594 -0.70117188 C 1.3883741 -1.2013969 1.3766296 -1.4501675 1.6367188 -1.953125 C 1.7987734 -2.2665046 2.2337248 -2.5501909 2.59375 -2.6230469 z M 6.5644531 -2.6132812 C 6.8714917 -2.6033285 7.1829116 -2.4689448 7.4394531 -2.1640625 C 7.9563027 -1.5498229 7.8081917 -0.65863148 7.1230469 -0.25390625 C 6.5345825 0.09370745 5.9560476 -0.03493305 5.4980469 -0.6171875 C 4.7592545 -1.5564097 5.6433375 -2.6431394 6.5644531 -2.6132812 z M 0.23632812 9.4277344 L -1.2128906 10.878906 L -2.6601562 12.332031 L 0.2109375 12.332031 C 1.7897463 12.332031 3.0820312 12.315365 3.0820312 12.296875 C 3.0820312 12.278381 2.4406029 11.625883 1.6582031 10.845703 L 0.23632812 9.4277344 z "
       id="path3523" />
  </g>
</svg>
