<?xml version="1.0" encoding="UTF-8" standalone="no"?>
<!-- Created with Inkscape (http://www.inkscape.org/) -->

<svg
   xmlns:dc="http://purl.org/dc/elements/1.1/"
   xmlns:cc="http://creativecommons.org/ns#"
   xmlns:rdf="http://www.w3.org/1999/02/22-rdf-syntax-ns#"
   xmlns:svg="http://www.w3.org/2000/svg"
   xmlns="http://www.w3.org/2000/svg"
   xmlns:sodipodi="http://sodipodi.sourceforge.net/DTD/sodipodi-0.dtd"
   xmlns:inkscape="http://www.inkscape.org/namespaces/inkscape"
   width="210mm"
   height="297mm"
   viewBox="0 0 744.09448819 1052.3622047"
   id="svg2"
   version="1.1"
   inkscape:version="0.91 r13725"
   sodipodi:docname="icon_si_orbital_fighter.svg">
  <defs
     id="defs4" />
  <sodipodi:namedview
     id="base"
     pagecolor="#ffffff"
     bordercolor="#666666"
     borderopacity="1.0"
     inkscape:pageopacity="0.0"
     inkscape:pageshadow="2"
     inkscape:zoom="15.839192"
     inkscape:cx="-15.464615"
     inkscape:cy="1048.0154"
     inkscape:document-units="px"
     inkscape:current-layer="layer1"
     showgrid="false"
     inkscape:window-width="1920"
     inkscape:window-height="1028"
     inkscape:window-x="-8"
     inkscape:window-y="-8"
     inkscape:window-maximized="1" />
  <metadata
     id="metadata7">
    <rdf:RDF>
      <cc:Work
         rdf:about="">
        <dc:format>image/svg+xml</dc:format>
        <dc:type
           rdf:resource="http://purl.org/dc/dcmitype/StillImage" />
        <dc:title></dc:title>
      </cc:Work>
    </rdf:RDF>
  </metadata>
  <g
     inkscape:label="Ebene 1"
     inkscape:groupmode="layer"
     id="layer1">
    <path
       style="fill:#000000"
       d="m -9.720326,18.530559 -4.331727,-2.198813 -2.668273,-4.032033 -2.668273,-4.032033 0,-7.658528 0,-7.658529 2.86163,-4.129333 2.86163,-4.129334 4.204094,-2.035167 4.204095,-2.035167 5.368551,0 5.368551,0 4.204095,2.035167 4.204094,2.035167 2.820976,4.07067 2.820976,4.07067 0.403978,6.344344 0.403977,6.344343 -2.234472,4.615803 -2.234472,4.615804 -4.018336,2.659209 -4.018336,2.659209 -6.610516,0.328682 -6.610515,0.328682 -4.331727,-2.198813 z m 17.113846,-1.285776 3.217881,-1.376839 2.686382,-2.873161 c 1.477509,-1.580239 3.165009,-4.139956 3.75,-5.688261 l 1.063618,-2.815099 0,-3.967019 0,-3.967019 -1.376839,-3.217882 -1.376839,-3.217881 -2.873161,-2.686382 c -1.580239,-1.477509 -4.139956,-3.16501 -5.688261,-3.75 l -2.815099,-1.063618 -3.967019,0 -3.967019,0 -3.217882,1.376839 -3.217881,1.376839 -2.686382,2.873161 c -1.477509,1.580239 -3.165009,4.139956 -3.75,5.688261 l -1.063618,2.815099 0,3.869801 0,3.869801 1.063618,2.815099 c 0.584991,1.548305 2.272491,4.107403 3.75,5.686884 l 2.686382,2.871783 3,1.339075 3,1.339074 4.282119,0.03914 4.282118,0.03914 3.217882,-1.376839 z M -14.888599,5.846594 c 0,-0.426265 3.375,-4.127502 7.5,-8.224972 l 7.5,-7.449945 7.5,7.449945 c 4.125,4.09747 7.5,7.798707 7.5,8.224972 l 0,0.775028 -15,0 -15,0 0,-0.775028 z m 22.241379,-7.466351 -7.241379,-7.24138 -7.241379,7.24138 -7.24138,7.241379 14.482759,0 14.482759,0 -7.24138,-7.241379 z m -8.241379,0.241379 0,-5 1,0 1,0 0,5 0,5 -1,0 -1,0 0,-5 z"
       id="path3347"
       inkscape:connector-curvature="0" />
    <path
       style="fill:#a0a0a0;stroke:none;stroke-width:1px;stroke-linecap:butt;stroke-linejoin:miter;stroke-opacity:1"
       d="M -3.90625 -17.359375 L -7.1347656 -15.980469 L -10.365234 -14.601562 L -11.898438 -12.960938 C -13.577325 -11.163289 -13.925325 -10.753583 -14.734375 -9.625 C -15.93733 -7.9469403 -16.412519 -7.0438973 -17.253906 -4.8359375 L -17.876953 -3.203125 L -17.876953 0.6171875 L -17.876953 4.4375 L -17.302734 5.9609375 C -16.625987 7.7579124 -16.233362 8.5814133 -15.507812 9.7207031 C -14.44457 11.390253 -13.69762 12.30019 -11.396484 14.734375 L -10.332031 15.861328 L -7.4277344 17.166016 L -4.5234375 18.46875 L -3.3867188 18.503906 C -2.7616869 18.522956 -0.79327745 18.543681 0.98828125 18.550781 L 4.2285156 18.564453 L 7.2714844 17.263672 C 8.9449631 16.547925 10.387132 15.924846 10.476562 15.878906 C 10.696048 15.766159 13.485304 12.768365 14.195312 11.882812 C 14.961933 10.926649 16.054575 9.269251 16.523438 8.3496094 C 16.734584 7.9354589 17.17674 6.880593 17.507812 6.0039062 L 18.109375 4.4101562 L 18.109375 0.51757812 L 18.111328 -3.375 L 16.714844 -6.6269531 L 15.320312 -9.8769531 L 13.605469 -11.470703 C 11.785825 -13.162022 10.985287 -13.81927 9.7128906 -14.666016 C 8.1610835 -15.698703 7.6484857 -15.957019 5.5585938 -16.751953 L 3.9609375 -17.359375 L 0.02734375 -17.359375 L -3.90625 -17.359375 z M 0.12109375 -9.8652344 L 3.3867188 -6.6289062 C 9.8902186 -0.18426302 13.066042 3.1064729 14.482422 4.8652344 C 15.101546 5.6340135 15.142578 5.7175534 15.142578 6.1992188 L 15.142578 6.6328125 L 0.1171875 6.6328125 L -14.908203 6.6328125 L -14.908203 6.1816406 C -14.908203 5.7642746 -14.892087 5.7078528 -14.677734 5.4082031 C -13.632041 3.9463955 -10.179866 0.32293173 -4.1894531 -5.6015625 L 0.12109375 -9.8652344 z M 0.1171875 -8.8046875 L -7.0957031 -1.5917969 L -14.308594 5.6230469 L 0.1171875 5.6230469 L 14.542969 5.6230469 L 7.3300781 -1.5917969 L 0.1171875 -8.8046875 z M -0.89257812 -6.4375 L 0.1171875 -6.4375 L 1.1269531 -6.4375 L 1.1269531 -1.3867188 L 1.1269531 3.6640625 L 0.1171875 3.6640625 L -0.89257812 3.6640625 L -0.89257812 -1.3867188 L -0.89257812 -6.4375 z "
       id="path3349" />
  </g>
</svg>
