<?xml version="1.0" encoding="UTF-8" standalone="no"?>
<!-- Created with Inkscape (http://www.inkscape.org/) -->

<svg
   xmlns:dc="http://purl.org/dc/elements/1.1/"
   xmlns:cc="http://creativecommons.org/ns#"
   xmlns:rdf="http://www.w3.org/1999/02/22-rdf-syntax-ns#"
   xmlns:svg="http://www.w3.org/2000/svg"
   xmlns="http://www.w3.org/2000/svg"
   xmlns:sodipodi="http://sodipodi.sourceforge.net/DTD/sodipodi-0.dtd"
   xmlns:inkscape="http://www.inkscape.org/namespaces/inkscape"
   width="210mm"
   height="297mm"
   viewBox="0 0 744.09448819 1052.3622047"
   id="svg3477"
   version="1.1"
   inkscape:version="0.91 r13725"
   sodipodi:docname="icon_si_frigate.svg">
  <defs
     id="defs3479" />
  <sodipodi:namedview
     id="base"
     pagecolor="#ffffff"
     bordercolor="#666666"
     borderopacity="1.0"
     inkscape:pageopacity="0.0"
     inkscape:pageshadow="2"
     inkscape:zoom="22.4"
     inkscape:cx="6.4511087"
     inkscape:cy="1048.3558"
     inkscape:document-units="px"
     inkscape:current-layer="layer1"
     showgrid="false"
     inkscape:window-width="1920"
     inkscape:window-height="1028"
     inkscape:window-x="-8"
     inkscape:window-y="-8"
     inkscape:window-maximized="1" />
  <metadata
     id="metadata3482">
    <rdf:RDF>
      <cc:Work
         rdf:about="">
        <dc:format>image/svg+xml</dc:format>
        <dc:type
           rdf:resource="http://purl.org/dc/dcmitype/StillImage" />
        <dc:title></dc:title>
      </cc:Work>
    </rdf:RDF>
  </metadata>
  <g
     inkscape:label="Ebene 1"
     inkscape:groupmode="layer"
     id="layer1">
    <g
       id="g3496">
      <path
         style="fill:#c8c8c8"
         d="m -12.390501,-0.525442 0,-8 16,0 16,0 0,1.27682 0,1.276819 -6.775096,6.723181 -6.775096,6.72318 -9.224904,0 -9.224904,0 0,-8 z m 24.723095,0.778888 c 3.452298,-3.421611 6.276905,-6.571611 6.276905,-7 l 0,-0.778888 -15,0 -15,0 0,7 0,7 8.723095,0 8.723094,0 6.276906,-6.221112 z m -20.223095,2.221112 -1.809975,-2 1.5,0 1.5,0 1.809975,2 1.809975,2 -1.5,0 -1.5,0 -1.809975,-2 z m 11.863636,-3 0,-2.640221 2.31038,1.07011 c 1.270709,0.588561 2.31038,1.295111 2.31038,1.570111 0,0.275 -1.039671,0.98155 -2.31038,1.570111 l -2.31038,1.07011 0,-2.640221 z m -9.363636,0 0,-1 3,0 3,0 0,1 0,1 -3,0 -3,0 0,-1 z m -2.5,-3 1.809975,-2 1.5,0 1.5,0 -1.809975,2 -1.809975,2 -1.5,0 -1.5,0 1.809975,-2 z"
         id="path3498"
         inkscape:connector-curvature="0" />
    </g>
    <path
       style="fill:#a0a0a0;stroke:none;stroke-width:1px;stroke-linecap:butt;stroke-linejoin:miter;stroke-opacity:1"
       d="m -11.37032,-0.51591096 0,-6.98660714 14.9776787,0 14.9776783,0 0,0.4183792 0,0.4183792 -0.217206,0.3293887 c -0.40487,0.6139769 -1.584907,1.9670146 -3.283968,3.7654194 -0.464708,0.4918795 -2.684574,2.72676341 -4.933036,4.9664085 l -4.0881112,4.0720817 -8.7165179,0.00158 -8.7165179,0.00158 0,-6.98660716 z M -3.1273547,4.4399167 C -3.1413887,4.4033453 -3.9521315,3.489614 -4.9290061,2.4094024 l -1.7761353,-1.9640205 -1.484375,-7.3572e-4 c -0.8394803,-4.0178e-4 -1.484375,0.0165482 -1.484375,0.0390473 0,0.0361174 2.7990063,3.1546353 3.3801683,3.7660206 l 0.2440072,0.2566964 1.4739384,0 c 1.2871906,0 1.4707058,-0.00842 1.4484228,-0.066494 z M 5.1666279,1.5784444 C 5.7822439,1.2939556 6.5474002,0.92610154 6.8669748,0.76099083 7.9059065,0.22421806 8.5850373,-0.28630114 8.5850373,-0.530519 c 0,-0.23555848 -0.679425,-0.7447049 -1.7051902,-1.2778321 -0.4871612,-0.2531951 -2.8621916,-1.3638099 -2.916484,-1.3638099 -0.011651,0 -0.021183,1.1852679 -0.021183,2.63392861 0,1.99104689 0.012832,2.63392859 0.052573,2.63392859 0.028915,0 0.5562585,-0.2327634 1.171875,-0.5172518 z m -4.52801924,-2.09435536 0,-1.00446434 -3.01339286,0 -3.0133929,0 0,1.00446434 0,1.00446429 3.0133929,0 3.01339286,0 0,-1.00446429 z M -5.0040744,-3.3842145 c 0.9259442,-1.0251117 1.744579,-1.9291295 1.819188,-2.0089286 l 0.1356526,-0.1450893 -1.5192741,0 -1.5192736,0 -0.9783229,1.0824912 c -0.5380775,0.5953701 -1.3561969,1.4993878 -1.8180432,2.0089284 l -0.8397206,0.9264375 1.5181292,0 1.5181293,0 1.6835353,-1.8638392 z"
       id="path3502"
       inkscape:connector-curvature="0" />
  </g>
</svg>
