<?xml version="1.0" encoding="UTF-8" standalone="no"?>
<!-- Created with Inkscape (http://www.inkscape.org/) -->

<svg
   xmlns:dc="http://purl.org/dc/elements/1.1/"
   xmlns:cc="http://creativecommons.org/ns#"
   xmlns:rdf="http://www.w3.org/1999/02/22-rdf-syntax-ns#"
   xmlns:svg="http://www.w3.org/2000/svg"
   xmlns="http://www.w3.org/2000/svg"
   xmlns:sodipodi="http://sodipodi.sourceforge.net/DTD/sodipodi-0.dtd"
   xmlns:inkscape="http://www.inkscape.org/namespaces/inkscape"
   width="210mm"
   height="297mm"
   viewBox="0 0 744.09448819 1052.3622047"
   id="svg3504"
   version="1.1"
   inkscape:version="0.91 r13725"
   sodipodi:docname="icon_si_gunship.svg">
  <defs
     id="defs3506" />
  <sodipodi:namedview
     id="base"
     pagecolor="#ffffff"
     bordercolor="#666666"
     borderopacity="1.0"
     inkscape:pageopacity="0.0"
     inkscape:pageshadow="2"
     inkscape:zoom="15.839192"
     inkscape:cx="1.4086472"
     inkscape:cy="1052.8828"
     inkscape:document-units="px"
     inkscape:current-layer="layer1"
     showgrid="false"
     inkscape:window-width="1920"
     inkscape:window-height="1028"
     inkscape:window-x="-8"
     inkscape:window-y="-8"
     inkscape:window-maximized="1" />
  <metadata
     id="metadata3509">
    <rdf:RDF>
      <cc:Work
         rdf:about="">
        <dc:format>image/svg+xml</dc:format>
        <dc:type
           rdf:resource="http://purl.org/dc/dcmitype/StillImage" />
        <dc:title></dc:title>
      </cc:Work>
    </rdf:RDF>
  </metadata>
  <g
     inkscape:label="Ebene 1"
     inkscape:groupmode="layer"
     id="layer1">
    <g
       id="g3523">
      <path
         style="fill:#c8c8c8"
         d="m -18.75,6.726268 0,-2.8437837 9.375,-9.3124313 9.375,-9.312431 9.375,9.312431 9.375,9.3124313 0,2.8437837 0,2.843785 -18.75,0 -18.75,0 0,-2.843785 z M -2.8930637,5.6021605 0,2.884268 2.8930637,5.6021605 5.7861275,8.320053 l 5.8569365,0 5.856936,0 0,-2.221025 0,-2.2210237 L 8.75,-4.804947 0,-13.487898 l -8.75,8.682951 -8.75,8.6829513 0,2.2210237 0,2.221025 5.856936,0 5.8569365,0 2.8930638,-2.7178925 z M -5,-4.179947 l 0,-1.25 5,0 5,0 0,1.25 0,1.25 -5,0 -5,0 0,-1.25 z m 6.5,11 -1.5,-1.5 -1.5,1.5 -1.5,1.5 3,0 3,0 -1.5,-1.5 z"
         id="path3525"
         inkscape:connector-curvature="0" />
    </g>
    <path
       style="fill:#a0a0a0;stroke:none;stroke-width:1px;stroke-linecap:butt;stroke-linejoin:miter;stroke-opacity:1"
       d="M 0.005859375 -13.419922 C -0.018263695 -13.419922 -3.9630727 -9.5267185 -8.7597656 -4.7695312 L -17.480469 3.8808594 L -17.480469 6.0742188 L -17.480469 8.2675781 L -11.619141 8.2675781 L -5.7558594 8.2675781 L -2.8984375 5.5839844 C -1.3275815 4.1082147 -0.022484995 2.9003906 0.001953125 2.9003906 C 0.026391235 2.9003906 1.3311303 4.1082147 2.9023438 5.5839844 L 5.7597656 8.2675781 L 11.626953 8.2675781 L 17.496094 8.2675781 L 17.492188 6.0742188 L 17.488281 3.8808594 L 8.7695312 -4.7695312 C 3.97375 -9.5267185 0.029982455 -13.419922 0.005859375 -13.419922 z M -5.0429688 -5.4316406 L -0.025390625 -5.4316406 L 4.9941406 -5.4316406 L 4.9941406 -4.1699219 L 4.9941406 -2.90625 L -0.025390625 -2.90625 L -5.0429688 -2.90625 L -5.0429688 -4.1699219 L -5.0429688 -5.4316406 z M 0.0078125 5.3320312 L -1.4609375 6.8007812 L -2.9277344 8.2675781 L 0.0078125 8.2675781 L 2.9433594 8.2675781 L 1.4746094 6.8007812 L 0.0078125 5.3320312 z "
       id="path3529" />
  </g>
</svg>
