<?xml version="1.0" encoding="UTF-8" standalone="no"?>
<!-- Created with Inkscape (http://www.inkscape.org/) -->

<svg
   xmlns:dc="http://purl.org/dc/elements/1.1/"
   xmlns:cc="http://creativecommons.org/ns#"
   xmlns:rdf="http://www.w3.org/1999/02/22-rdf-syntax-ns#"
   xmlns:svg="http://www.w3.org/2000/svg"
   xmlns="http://www.w3.org/2000/svg"
   xmlns:sodipodi="http://sodipodi.sourceforge.net/DTD/sodipodi-0.dtd"
   xmlns:inkscape="http://www.inkscape.org/namespaces/inkscape"
   width="210mm"
   height="297mm"
   viewBox="0 0 744.09448819 1052.3622047"
   id="svg3692"
   version="1.1"
   inkscape:version="0.91 r13725"
   sodipodi:docname="icon_si_laser_defense.svg">
  <defs
     id="defs3694" />
  <sodipodi:namedview
     id="base"
     pagecolor="#ffffff"
     bordercolor="#666666"
     borderopacity="1.0"
     inkscape:pageopacity="0.0"
     inkscape:pageshadow="2"
     inkscape:zoom="15.839192"
     inkscape:cx="17.980506"
     inkscape:cy="1048.1904"
     inkscape:document-units="px"
     inkscape:current-layer="layer1"
     showgrid="false"
     showguides="false"
     inkscape:window-width="1920"
     inkscape:window-height="1028"
     inkscape:window-x="-8"
     inkscape:window-y="-8"
     inkscape:window-maximized="1" />
  <metadata
     id="metadata3697">
    <rdf:RDF>
      <cc:Work
         rdf:about="">
        <dc:format>image/svg+xml</dc:format>
        <dc:type
           rdf:resource="http://purl.org/dc/dcmitype/StillImage" />
        <dc:title></dc:title>
      </cc:Work>
    </rdf:RDF>
  </metadata>
  <g
     inkscape:label="Ebene 1"
     inkscape:groupmode="layer"
     id="layer1">
    <path
       style="fill:#000000"
       d="m -7.175354,0.098335 0,-12.5 7.5,0 7.5,0 0,12.5 0,12.5 -7.5,0 -7.5,0 0,-12.5 z m 13.75,0 0,-11.25 -6.25,0 -6.25,0 0,11.25 0,11.25 6.25,0 6.25,0 0,-11.25 z m -11.25,-7.5 0,-1.25 5,0 5,0 0,1.25 0,1.25 -5,0 -5,0 0,-1.25 z"
       id="path3711"
       inkscape:connector-curvature="0" />
    <path
       style="fill:#a0a0a0;stroke:none;stroke-width:1px;stroke-linecap:butt;stroke-linejoin:miter;stroke-opacity:1"
       d="m -5.8654078,0.11221129 0,-11.20638029 6.21875166,0 6.21875164,0 0,11.20638029 0,11.20637971 -6.21875164,0 -6.21875166,0 0,-11.20637971 z m 11.2379471,-7.51300959 0,-1.2942579 -5.05076271,0 -5.05076269,0 0,1.2942579 0,1.294258 5.05076269,0 5.05076271,0 0,-1.294258 z"
       id="path3713"
       inkscape:connector-curvature="0" />
  </g>
</svg>
