<?xml version="1.0" encoding="UTF-8" standalone="no"?>
<!-- Created with Inkscape (http://www.inkscape.org/) -->

<svg
   xmlns:dc="http://purl.org/dc/elements/1.1/"
   xmlns:cc="http://creativecommons.org/ns#"
   xmlns:rdf="http://www.w3.org/1999/02/22-rdf-syntax-ns#"
   xmlns:svg="http://www.w3.org/2000/svg"
   xmlns="http://www.w3.org/2000/svg"
   xmlns:sodipodi="http://sodipodi.sourceforge.net/DTD/sodipodi-0.dtd"
   xmlns:inkscape="http://www.inkscape.org/namespaces/inkscape"
   width="210mm"
   height="297mm"
   viewBox="0 0 744.09448819 1052.3622047"
   id="svg3513"
   version="1.1"
   inkscape:version="0.91 r13725"
   sodipodi:docname="icon_si_radar_satellite_adv.svg">
  <defs
     id="defs3515" />
  <sodipodi:namedview
     id="base"
     pagecolor="#ffffff"
     bordercolor="#666666"
     borderopacity="1.0"
     inkscape:pageopacity="0.0"
     inkscape:pageshadow="2"
     inkscape:zoom="15.839192"
     inkscape:cx="3.7622534"
     inkscape:cy="1051.7024"
     inkscape:document-units="px"
     inkscape:current-layer="layer1"
     showgrid="false"
     inkscape:window-width="1920"
     inkscape:window-height="1028"
     inkscape:window-x="-8"
     inkscape:window-y="-8"
     inkscape:window-maximized="1" />
  <metadata
     id="metadata3518">
    <rdf:RDF>
      <cc:Work
         rdf:about="">
        <dc:format>image/svg+xml</dc:format>
        <dc:type
           rdf:resource="http://purl.org/dc/dcmitype/StillImage" />
        <dc:title></dc:title>
      </cc:Work>
    </rdf:RDF>
  </metadata>
  <g
     inkscape:label="Ebene 1"
     inkscape:groupmode="layer"
     id="layer1">
    <path
       style="fill:#000000"
       d="m -9.653155,16.878282 -4.331727,-2.198813 -2.668273,-4.032033 -2.668273,-4.032033 0,-7.658528 0,-7.658529 2.86163,-4.129333 2.86163,-4.129334 4.204094,-2.035167 4.204095,-2.035167 5.368551,0 5.368551,0 4.204095,2.035167 4.204094,2.035167 2.820976,4.07067 2.820976,4.07067 0.403978,6.344344 0.403977,6.344343 -2.234472,4.615803 -2.234472,4.615804 -4.018336,2.659209 -4.018336,2.659209 -6.610516,0.328682 -6.610515,0.328682 -4.331727,-2.198813 z m 17.113846,-1.285776 3.217881,-1.376839 2.686382,-2.873161 c 1.477509,-1.580239 3.165009,-4.139956 3.75,-5.688261 l 1.063618,-2.815099 0,-3.967019 0,-3.967019 -1.376839,-3.217882 -1.376839,-3.217881 -2.873161,-2.686382 c -1.580239,-1.477509 -4.139956,-3.16501 -5.688261,-3.75 l -2.815099,-1.063618 -3.967019,0 -3.967019,0 -3.217882,1.376839 -3.217881,1.376839 -2.686382,2.873161 c -1.477509,1.580239 -3.16501,4.139956 -3.75,5.688261 l -1.063618,2.815099 0,3.869801 0,3.869801 1.063618,2.815099 c 0.58499,1.548305 2.272491,4.107403 3.75,5.686884 l 2.686382,2.871783 3,1.339075 3,1.339074 4.282119,0.03914 4.282118,0.03914 3.217882,-1.376839 z m -13.98357,-5.582677 -3.201452,-1.952039 -1.548548,-2.994563 -1.548549,-2.994562 0.0037,-3.29966 0.0037,-3.29966 1.95204,-3.201451 1.952039,-3.201452 2.994563,-1.548548 2.994638,-1.548549 3.09932,0 3.09932,0 2.994562,1.548549 2.994563,1.548548 1.952039,3.201452 1.95204,3.201451 0,3.5 0,3.5 -1.95204,3.201451 -1.952039,3.201452 -2.994563,1.548548 -2.994562,1.548549 -3.29966,-0.0037 -3.29966,-0.0037 -3.201451,-1.95204 z M 2.400794,8.747123 0.178572,6.524901 -2.04365,8.747123 l -2.222222,2.222222 4.444444,0 4.444444,0 -2.222222,-2.222222 z m 0.527778,-1.527928 2.75,2.624032 1.750022,-0.986643 1.750022,-0.986644 1.499978,-2.900637 1.499978,-2.900638 0,-3.09932 0,-3.09932 -1.516927,-2.933413 -1.516927,-2.933413 -2.933413,-1.516927 -2.933413,-1.516927 -3.09932,0 -3.09932,0 -2.933413,1.516927 -2.933413,1.516927 -1.516927,2.933413 -1.516927,2.933413 0,3.09932 0,3.09932 1.499978,2.900638 1.499978,2.900637 1.750022,0.986644 1.750022,0.986643 2.75,-2.624032 2.75,-2.624032 2.75,2.624032 z M -5.833693,-4.007737 c 1.193641,-2.230338 4.086413,-4.022918 6.491978,-4.022918 l 1.611196,0 2.560606,2.560606 2.560606,2.560606 -0.629061,0.629062 -0.629062,0.629061 -1.533703,-2.189667 -1.533703,-2.189668 -2.934822,0 -2.934822,0 -1.249021,2 c -0.686961,1.1 -1.606607,2 -2.043658,2 l -0.794637,0 1.058103,-1.977082 z"
       id="path3532"
       inkscape:connector-curvature="0" />
    <path
       style="fill:#a0a0a0;stroke:none;stroke-width:1px;stroke-linecap:butt;stroke-linejoin:miter;stroke-opacity:1"
       d="M -3.8144531 -19.025391 L -7.0566406 -17.638672 L -10.296875 -16.251953 L -11.707031 -14.75 C -13.683246 -12.645205 -14.45882 -11.684046 -15.494141 -10.050781 C -16.169001 -8.9861594 -16.498113 -8.2967075 -17.146484 -6.59375 L -17.779297 -4.9335938 L -17.779297 -1.0292969 L -17.779297 2.8730469 L -17.148438 4.53125 C -16.50312 6.2238306 -16.175861 6.9068766 -15.501953 7.9765625 C -14.497525 9.5708819 -13.685091 10.579246 -11.707031 12.6875 L -10.296875 14.189453 L -7.3300781 15.525391 L -4.3632812 16.859375 L -0.60742188 16.896484 C 1.4586558 16.917124 3.3802831 16.940066 3.6621094 16.947266 L 4.1738281 16.960938 L 7.4140625 15.580078 L 10.654297 14.197266 L 11.945312 12.816406 C 12.655358 12.057145 13.42552 11.223326 13.65625 10.962891 C 14.780028 9.6944342 16.266523 7.477991 16.832031 6.2285156 C 16.934185 6.0028097 17.272348 5.1489636 17.582031 4.3320312 L 18.144531 2.8476562 L 18.144531 -1.1289062 L 18.144531 -5.1035156 L 16.771484 -8.3105469 L 15.398438 -11.515625 L 13.841797 -12.966797 C 11.643941 -15.017439 10.896954 -15.622694 9.3535156 -16.601562 C 8.1528098 -17.363066 7.4032288 -17.726239 5.6503906 -18.394531 L 3.9941406 -19.025391 L 0.08984375 -19.025391 L -3.8144531 -19.025391 z M -2.9746094 -14.037109 L 0.18164062 -14.037109 L 3.3398438 -14.037109 L 6.2753906 -12.517578 C 7.8900563 -11.682703 9.2445373 -10.967251 9.2851562 -10.925781 C 9.3257745 -10.88431 10.227194 -9.4238052 11.289062 -7.6816406 L 13.220703 -4.5136719 L 13.220703 -1.03125 L 13.220703 2.453125 L 11.347656 5.5234375 C 10.318254 7.2127693 9.4269591 8.6674521 9.3652344 8.7558594 C 9.2895071 8.8643232 8.2902323 9.4141845 6.2929688 10.445312 L 3.3320312 11.972656 L -0.013671875 11.972656 L -3.3613281 11.972656 L -6.5488281 10.03125 L -9.7382812 8.0898438 L -11.296875 5.0820312 L -12.855469 2.0742188 L -12.855469 -1.2246094 L -12.855469 -4.5253906 L -10.951172 -7.65625 C -9.9040745 -9.3780973 -9.0026556 -10.835011 -8.9472656 -10.894531 C -8.8918758 -10.954048 -7.5248219 -11.685261 -5.9101562 -12.519531 L -2.9746094 -14.037109 z M -2.8515625 -13.027344 L -5.8105469 -11.496094 L -8.7695312 -9.9648438 L -10.273438 -7.0625 L -11.777344 -4.1582031 L -11.779297 -1.0390625 L -11.78125 2.078125 L -10.289062 4.9628906 L -8.7949219 7.8457031 L -7.1152344 8.8007812 C -6.1914286 9.3257752 -5.4018248 9.7575054 -5.359375 9.7597656 C -5.3169246 9.7620283 -4.0704729 8.6064089 -2.5898438 7.1914062 C -1.1092145 5.7764035 0.12778049 4.6090982 0.15820312 4.5976562 C 0.18862513 4.5862137 1.4340628 5.7468175 2.9277344 7.1757812 C 4.4214059 8.604745 5.6820694 9.7631525 5.7285156 9.7519531 C 5.7749624 9.7407536 6.5642488 9.3084827 7.4824219 8.7910156 L 9.1523438 7.8496094 L 10.648438 4.9589844 L 12.146484 2.0664062 L 12.146484 -1.0292969 L 12.146484 -4.1269531 L 10.636719 -7.046875 L 9.1269531 -9.9648438 L 6.1699219 -11.496094 L 3.2148438 -13.027344 L 0.18164062 -13.027344 L -2.8515625 -13.027344 z M 1.2148438 -8.0410156 L 2.3300781 -8.0410156 L 4.8847656 -5.484375 L 7.4414062 -2.9277344 L 6.8125 -2.2949219 C 6.4663182 -1.9474364 6.1617127 -1.6640625 6.1367188 -1.6640625 C 6.087013 -1.6640625 5.9142752 -1.9051742 4.1953125 -4.3632812 L 3.0371094 -6.0195312 L 0.125 -6.0195312 L -2.7851562 -6.0195312 L -3.15625 -5.4042969 C -4.3402473 -3.4487034 -5.1981842 -2.3771992 -5.796875 -2.1054688 C -6.0516954 -1.9898117 -6.9199219 -1.919964 -6.9199219 -2.015625 C -6.9199219 -2.1290645 -5.6021706 -4.4670431 -5.3359375 -4.8261719 C -4.4383943 -6.0368902 -2.821571 -7.1946211 -1.3242188 -7.6972656 C -0.51463072 -7.9690355 0.00919315 -8.0410156 1.2148438 -8.0410156 z M 0.18164062 6.6074219 C 0.14653916 6.6074219 -0.86099343 7.5871785 -2.0585938 8.7851562 L -4.2363281 10.962891 L 0.18164062 10.962891 L 4.6015625 10.962891 L 2.4238281 8.7851562 C 1.2262278 7.5871785 0.21674214 6.6074219 0.18164062 6.6074219 z "
       id="path3534" />
  </g>
</svg>
