<?xml version="1.0" encoding="UTF-8" standalone="no"?>
<!-- Created with Inkscape (http://www.inkscape.org/) -->

<svg
   xmlns:dc="http://purl.org/dc/elements/1.1/"
   xmlns:cc="http://creativecommons.org/ns#"
   xmlns:rdf="http://www.w3.org/1999/02/22-rdf-syntax-ns#"
   xmlns:svg="http://www.w3.org/2000/svg"
   xmlns="http://www.w3.org/2000/svg"
   xmlns:sodipodi="http://sodipodi.sourceforge.net/DTD/sodipodi-0.dtd"
   xmlns:inkscape="http://www.inkscape.org/namespaces/inkscape"
   width="210mm"
   height="297mm"
   viewBox="0 0 744.09448819 1052.3622047"
   id="svg3415"
   version="1.1"
   inkscape:version="0.91 r13725"
   sodipodi:docname="icon_si_commander.svg">
  <defs
     id="defs3417" />
  <sodipodi:namedview
     id="base"
     pagecolor="#ffffff"
     bordercolor="#666666"
     borderopacity="1.0"
     inkscape:pageopacity="0.0"
     inkscape:pageshadow="2"
     inkscape:zoom="7.9195959"
     inkscape:cx="26.353357"
     inkscape:cy="1044.3558"
     inkscape:document-units="px"
     inkscape:current-layer="layer1"
     showgrid="false"
     inkscape:window-width="1920"
     inkscape:window-height="1028"
     inkscape:window-x="-8"
     inkscape:window-y="-8"
     inkscape:window-maximized="1" />
  <metadata
     id="metadata3420">
    <rdf:RDF>
      <cc:Work
         rdf:about="">
        <dc:format>image/svg+xml</dc:format>
        <dc:type
           rdf:resource="http://purl.org/dc/dcmitype/StillImage" />
        <dc:title></dc:title>
      </cc:Work>
    </rdf:RDF>
  </metadata>
  <g
     inkscape:label="Ebene 1"
     inkscape:groupmode="layer"
     id="layer1">
    <g
       id="g3434">
      <path
         style="fill:#c8c8c8"
         d="m -15.054193,12.913462 -5.26026,-5.3598137 0,-9.3799263 0,-9.379925 5.359815,-5.26026 5.3598138,-5.26026 9.2803712,0 9.2803713,0 5.3598137,5.26026 5.359815,5.26026 0,9.47948 0,9.47948 -5.359815,5.26026 -5.3598137,5.26026 -4.0151863,0 -4.015185,0 0,-7.5 0,-7.5 -1.25,0 -1.25,0 0,7.5 0,7.5 -4.11474,0 -4.11474,0 -5.26026,-5.359815 z m 12.23974,-3.390185 0,-7.5 2.5,0 2.5,0 0,7.5 0,7.5 3.3847963,0 3.3847974,0 4.7402023,-4.628685 4.740204,-4.628685 0,-9.3811112 0,-9.3811128 -4.628685,-4.740202 -4.628685,-4.740204 -9.38111125,0 -9.38111245,0 -4.7402023,4.628685 -4.740204,4.628685 0,9.3811112 0,9.3811125 4.628685,4.7402023 4.628685,4.740204 3.496315,0 3.496315,0 0,-7.5 z m -10.371315,1.509796 -4.628685,-4.7402023 0,-8.1311125 0,-8.1311112 4.740204,-4.628685 4.7402023,-4.628685 8.13111245,0 8.13111125,0 4.628685,4.740204 4.628685,4.7402023 0,8.1311125 0,8.1311112 -4.740204,4.628685 -4.7402023,4.628685 -2.1347974,0 -2.1347963,0 0,-7.5 0,-7.5 -3.75,0 -3.75,0 0,7.5 0,7.5 -2.246315,0 -2.246315,0 -4.628685,-4.740204 z m 4.1065987,-17.7886423 -2.6306937,-5.1565867 -1.802295,1.495773 -1.802295,1.4957713 0,6.974935 0,6.9749362 4.0625,4.20083 4.0625,4.2008305 0.3704887,-7.5149518 0.3704888,-7.5149512 -2.6306938,-5.1565862 z m 23.7647163,4.9366938 0,-7.1017362 -1.802295,-1.4957713 -1.802295,-1.495773 -2.572705,5.0429192 -2.572705,5.0429188 0,7.7950062 0,7.7950068 4.375,-4.240418 4.375,-4.2404175 0,-7.101735 z m -8.21616,-5.9779513 3.0759538,-6.0701022 -1.4298975,-1.429898 -1.4298963,-1.429896 -7,0 -7,0 -1.4298963,1.429896 -1.4298977,1.429898 3.075954,6.0701023 3.075955,6.0701037 3.707885,0 3.707885,0 3.075955,-6.0701037 z m -10.3063975,-2.0548962 -1.423845,-3.125 4.9464025,0 4.9464025,0 -1.423845,3.125 -1.423845,3.125 -2.0987125,0 -2.0987125,0 -1.423845,-3.125 z"
         id="path3436"
         inkscape:connector-curvature="0" />
    </g>
    <path
       style="fill:#a0a0a0;stroke:none;stroke-width:1px;stroke-linecap:butt;stroke-linejoin:miter;stroke-opacity:1"
       d="M -9.6230469 -20.378906 L -14.3125 -15.810547 L -19.001953 -11.240234 L -18.998047 -1.8261719 L -18.994141 7.5898438 L -14.376953 12.292969 L -9.7578125 16.996094 L -6.2988281 16.996094 L -2.8398438 16.996094 L -2.8398438 9.484375 L -2.8398438 1.9707031 L -0.31445312 1.9707031 L 2.2109375 1.9707031 L 2.2109375 9.484375 L 2.2109375 16.996094 L 5.5878906 16.992188 L 8.9667969 16.988281 L 13.675781 12.353516 L 18.384766 7.7167969 L 18.378906 -1.6425781 L 18.373047 -11 L 13.806641 -15.689453 L 9.2382812 -20.378906 L -0.19335938 -20.378906 L -9.6230469 -20.378906 z M -8.3613281 -19.242188 L -0.19140625 -19.242188 L 7.9785156 -19.242188 L 12.607422 -14.490234 L 17.236328 -9.7363281 L 17.222656 -1.578125 L 17.208984 6.5800781 L 12.476562 11.1875 L 7.7421875 15.796875 L 5.5761719 15.796875 L 3.4101562 15.796875 L 3.3769531 8.3164062 L 3.3457031 0.83398438 L -0.31445312 0.83398438 L -3.9746094 0.83398438 L -4.0078125 8.3164062 L -4.0390625 15.796875 L -6.265625 15.832031 L -8.4921875 15.865234 L -13.175781 11.095703 L -17.859375 6.3261719 L -17.863281 -1.8261719 L -17.865234 -9.9804688 L -13.113281 -14.611328 L -8.3613281 -19.242188 z M -7.3183594 -16.716797 L -8.734375 -15.304688 L -10.150391 -13.892578 L -7.0957031 -7.8574219 L -4.0390625 -1.8242188 L -0.31445312 -1.8222656 L 3.4101562 -1.8222656 L 6.4667969 -7.8574219 L 9.5234375 -13.890625 L 8.1054688 -15.304688 L 6.6894531 -16.716797 L -0.31445312 -16.716797 L -7.3183594 -16.716797 z M -0.31445312 -13.054688 C 2.3940184 -13.054688 4.609375 -13.006456 4.609375 -12.947266 C 4.609375 -12.88808 3.9923779 -11.481917 3.2382812 -9.8222656 L 1.8671875 -6.8046875 L -0.30273438 -6.7695312 L -2.4726562 -6.7363281 L -2.7695312 -7.4023438 C -2.9327315 -7.768599 -3.5547068 -9.1409575 -4.1523438 -10.453125 C -4.749981 -11.765292 -5.2382812 -12.887836 -5.2382812 -12.947266 C -5.2382812 -13.006701 -3.0229246 -13.054688 -0.31445312 -13.054688 z M -11.681641 -11.710938 C -11.7361 -11.770012 -12.5536 -11.174158 -13.498047 -10.386719 L -15.214844 -8.9550781 L -15.214844 -1.9414062 L -15.214844 5.0722656 L -11.267578 9.1601562 L -7.3222656 13.25 L -7.2324219 12.755859 C -7.1829353 12.483986 -6.9963484 9.1478623 -6.8164062 5.3417969 L -6.4882812 -1.578125 L -9.0351562 -6.5917969 C -10.435929 -9.3485663 -11.627181 -11.651857 -11.681641 -11.710938 z M 11.052734 -11.710938 C 10.998854 -11.65186 9.8394675 -9.4091584 8.4765625 -6.7285156 L 5.9980469 -1.8554688 L 5.9980469 5.8828125 L 5.9980469 13.623047 L 7.1035156 12.568359 C 7.7111855 11.988519 9.6429226 10.121894 11.396484 8.421875 L 14.585938 5.3320312 L 14.585938 -1.8105469 L 14.585938 -8.9550781 L 12.867188 -10.386719 C 11.922741 -11.174158 11.106614 -11.770016 11.052734 -11.710938 z "
       id="path3451" />
  </g>
</svg>
