<?xml version="1.0" encoding="UTF-8" standalone="no"?>
<!-- Created with Inkscape (http://www.inkscape.org/) -->

<svg
   xmlns:dc="http://purl.org/dc/elements/1.1/"
   xmlns:cc="http://creativecommons.org/ns#"
   xmlns:rdf="http://www.w3.org/1999/02/22-rdf-syntax-ns#"
   xmlns:svg="http://www.w3.org/2000/svg"
   xmlns="http://www.w3.org/2000/svg"
   xmlns:sodipodi="http://sodipodi.sourceforge.net/DTD/sodipodi-0.dtd"
   xmlns:inkscape="http://www.inkscape.org/namespaces/inkscape"
   width="210mm"
   height="297mm"
   viewBox="0 0 744.09448819 1052.3622047"
   id="svg3669"
   version="1.1"
   inkscape:version="0.91 r13725"
   sodipodi:docname="icon_si_land_scout.svg">
  <defs
     id="defs3671" />
  <sodipodi:namedview
     id="base"
     pagecolor="#ffffff"
     bordercolor="#666666"
     borderopacity="1.0"
     inkscape:pageopacity="0.0"
     inkscape:pageshadow="2"
     inkscape:zoom="22.4"
     inkscape:cx="0.45980535"
     inkscape:cy="1053.7554"
     inkscape:document-units="px"
     inkscape:current-layer="layer1"
     showgrid="false"
     inkscape:window-width="1920"
     inkscape:window-height="1028"
     inkscape:window-x="-8"
     inkscape:window-y="-8"
     inkscape:window-maximized="1" />
  <metadata
     id="metadata3674">
    <rdf:RDF>
      <cc:Work
         rdf:about="">
        <dc:format>image/svg+xml</dc:format>
        <dc:type
           rdf:resource="http://purl.org/dc/dcmitype/StillImage" />
        <dc:title></dc:title>
      </cc:Work>
    </rdf:RDF>
  </metadata>
  <g
     inkscape:label="Ebene 1"
     inkscape:groupmode="layer"
     id="layer1">
    <path
       style="fill:#000000"
       d="m -12.753853,1.6575237 0,-2.8911362 3.5058988,-3.3588638 3.5058987,-3.3588637 5.6352375,0 5.6352375,0 3.3588637,3.5058987 3.3588638,3.5058988 0,2.7441012 0,2.7441013 -12.5,0 -12.5,0 0,-2.8911363 z m 23.75,-0.4658 0,-2.1069362 L 8.2782545,-3.8082763 5.560362,-6.70134 l -5.63904375,0 -5.63904375,0 -2.8930638,2.7178925 -2.8930637,2.7178925 0,2.2821075 0,2.2821075 11.25,0 11.25,0 0,-2.1069363 z M -5.6925605,0.138935 c 0.4030563,-1.05034875 1.7509037,-2.4545813 2.9952163,-3.1205175 L -0.434958,-4.192375 1.5653195,-3.4247963 C 2.665472,-3.0026275 4.132262,-1.598395 4.824852,-0.30427875 L 6.084107,2.04866 l -1.1602437,0 c -0.6381351,0 -1.4840213,-0.84375 -1.8797488,-1.875 l -0.719505,-1.875 -2.5784625,0 -2.5784625,0 -0.719505,1.875 c -0.3957275,1.03125 -1.2041687,1.875 -1.7965375,1.875 l -1.0770325,0 0.73283,-1.909725 z"
       id="path3688"
       inkscape:connector-curvature="0" />
    <path
       style="fill:#a0a0a0;stroke:none;stroke-width:1px;stroke-linecap:butt;stroke-linejoin:miter;stroke-opacity:1"
       d="m -11.468028,0.99300154 7.39e-4,-2.26562504 2.8896838,-2.7120536 2.8896842,-2.7120535 5.61029912,0 5.61029958,0 2.7269567,2.9014457 2.7269566,2.90144581 0,2.07623259 0,2.076233 -11.22767851,0 -11.22767849,0 7.38e-4,-2.26562496 z m 6.4604981,0.99185896 c 0.4151817,-0.1734741 0.949433,-0.7416447 1.2599375,-1.33992995 0.077055,-0.14847053 0.3176652,-0.73105982 0.5346897,-1.29464286 l 0.3945897,-1.02469689 2.56148085,-0.011519 2.56148085,-0.011519 0.39495,1.03830448 C 2.9168214,-0.08807481 3.1620897,0.50192564 3.2446388,0.65196939 3.4611161,1.0454439 3.852204,1.5280404 4.1049366,1.7135631 4.5253054,2.0221422 4.6363795,2.0511971 5.3998496,2.052289 6.0344326,2.0531953 6.0832447,2.0474582 6.0560594,1.9751444 5.9816031,1.7770864 4.7876138,-0.41898463 4.5815339,-0.73690918 3.9167107,-1.7625494 2.8259196,-2.8089251 1.9462598,-3.26488 1.6477049,-3.4196302 -0.33379777,-4.1967306 -0.42983572,-4.1967306 c -0.0949746,0 -2.50561738,1.317945 -2.88880268,1.5793643 -0.7321442,0.4994888 -1.7149688,1.5217317 -2.1197509,2.20476872 -0.1472951,0.24854867 -0.9857339,2.31646518 -0.9857339,2.43120408 0,0.019065 0.2818951,0.034663 0.6264339,0.034663 0.4617174,0 0.6694844,-0.017987 0.7901594,-0.068409 z"
       id="path3690"
       inkscape:connector-curvature="0" />
  </g>
</svg>
