<?xml version="1.0" encoding="UTF-8" standalone="no"?>
<!-- Created with Inkscape (http://www.inkscape.org/) -->

<svg
   xmlns:dc="http://purl.org/dc/elements/1.1/"
   xmlns:cc="http://creativecommons.org/ns#"
   xmlns:rdf="http://www.w3.org/1999/02/22-rdf-syntax-ns#"
   xmlns:svg="http://www.w3.org/2000/svg"
   xmlns="http://www.w3.org/2000/svg"
   xmlns:sodipodi="http://sodipodi.sourceforge.net/DTD/sodipodi-0.dtd"
   xmlns:inkscape="http://www.inkscape.org/namespaces/inkscape"
   width="210mm"
   height="297mm"
   viewBox="0 0 744.09448819 1052.3622047"
   id="svg4357"
   version="1.1"
   inkscape:version="0.91 r13725"
   sodipodi:docname="icon_si_nuclear_sub.svg">
  <defs
     id="defs4359" />
  <sodipodi:namedview
     id="base"
     pagecolor="#ffffff"
     bordercolor="#666666"
     borderopacity="1.0"
     inkscape:pageopacity="0.0"
     inkscape:pageshadow="2"
     inkscape:zoom="15.839192"
     inkscape:cx="2.2977873"
     inkscape:cy="1044.096"
     inkscape:document-units="px"
     inkscape:current-layer="layer1"
     showgrid="false"
     inkscape:window-width="1920"
     inkscape:window-height="1028"
     inkscape:window-x="-8"
     inkscape:window-y="-8"
     inkscape:window-maximized="1" />
  <metadata
     id="metadata4362">
    <rdf:RDF>
      <cc:Work
         rdf:about="">
        <dc:format>image/svg+xml</dc:format>
        <dc:type
           rdf:resource="http://purl.org/dc/dcmitype/StillImage" />
        <dc:title></dc:title>
      </cc:Work>
    </rdf:RDF>
  </metadata>
  <g
     inkscape:label="Ebene 1"
     inkscape:groupmode="layer"
     id="layer1">
    <path
       style="fill:#000000"
       d="m -17.505075,0.288326 0,-9 12.791792,0 12.791792,0 4.416416,4.5 4.416416,4.5 -4.416416,4.5 -4.416416,4.5 -12.791792,0 -12.791792,0 0,-9 z m 9.685549,5.825686 2.314451,-2.174314 2.314451,2.174314 2.314451,2.174314 4.482601,0 4.482601,0 3.905896,-4 3.905896,-4 -3.905896,-4 -3.905896,-4 -12.297052,0 -12.297052,0 0,8 0,8 3.185549,0 3.185549,0 2.314451,-2.174314 z m 0.814451,-5.825686 -2.874182,-3 1.5,0 1.5,0 2.874182,3 2.874182,3 -1.5,0 -1.5,0 -2.874182,-3 z m 13.863636,0 0,-2.640221 2.31038,1.07011 c 1.270709,0.588561 2.31038,1.295111 2.31038,1.570111 0,0.275 -1.039671,0.98155 -2.31038,1.570111 l -2.31038,1.07011 0,-2.640221 z m -16.363636,-5 0,-1 4,0 4,0 0,1 0,1 -4,0 -4,0 0,-1 z m 5.2,11.8 -1.2,-1.2 -1.2,1.2 -1.2,1.2 2.4,0 2.4,0 -1.2,-1.2 z"
       id="path4376"
       inkscape:connector-curvature="0" />
    <path
       style="fill:#a0a0a0;stroke:none;stroke-width:1px;stroke-linecap:butt;stroke-linejoin:miter;stroke-opacity:1"
       d="M -16.464844 -7.6933594 L -16.464844 0.29296875 L -16.464844 8.2792969 L -13.318359 8.2792969 L -10.171875 8.2792969 L -7.8515625 6.0976562 C -6.5746703 4.8980994 -5.5078904 3.9252869 -5.4824219 3.9355469 C -5.4569541 3.9458069 -4.4027282 4.9261744 -3.1386719 6.1152344 L -0.83984375 8.2773438 L 3.6113281 8.2773438 L 8.0625 8.2773438 L 11.933594 4.3046875 C 14.06326 2.1202396 15.802928 0.3100438 15.798828 0.28125 C 15.794692 0.25245624 14.053681 -1.5534913 11.929688 -3.7324219 L 8.0683594 -7.6933594 L -4.1992188 -7.6933594 L -16.464844 -7.6933594 z M -9.5214844 -5.7363281 L -5.5117188 -5.7363281 L -1.5019531 -5.7363281 L -1.5019531 -4.6953125 L -1.5019531 -3.6542969 L -5.5117188 -3.6542969 L -9.5214844 -3.6542969 L -9.5214844 -4.6953125 L -9.5214844 -5.7363281 z M -8.4003906 -2.7695312 L -6.890625 -2.7695312 L -4.2753906 -0.04296875 C -2.8373602 1.4565919 -1.5375138 2.8191371 -1.3867188 2.9863281 L -1.1132812 3.2910156 L -2.6484375 3.2890625 L -4.1855469 3.2871094 L -7.0273438 0.31640625 C -8.5899234 -1.3178653 -9.8770969 -2.6813046 -9.8886719 -2.7128906 C -9.9009364 -2.7463586 -9.2804961 -2.7695312 -8.4003906 -2.7695312 z M 6.8300781 -2.3886719 L 6.9726562 -2.3320312 C 7.0507853 -2.3015323 7.6691497 -2.0164617 8.3457031 -1.6992188 C 10.748013 -0.57275006 11.596828 -0.00841832 11.472656 0.3828125 C 11.372427 0.69860702 10.318253 1.3527028 8.6621094 2.1269531 C 8.0197155 2.427274 7.3444104 2.7392367 7.1621094 2.8203125 L 6.8300781 2.96875 L 6.8300781 0.29101562 L 6.8300781 -2.3886719 z M -5.5136719 5.9433594 L -6.6796875 7.1113281 L -7.8457031 8.2792969 L -5.5273438 8.2792969 C -4.251589 8.2792969 -3.2070312 8.2707487 -3.2070312 8.2617188 C -3.2070312 8.2526857 -3.7272678 7.7271155 -4.3613281 7.09375 L -5.5136719 5.9433594 z "
       id="path4378" />
  </g>
</svg>
